<?xml version="1.0" encoding="UTF-8" standalone="no"?>
<!-- Created with Inkscape (http://www.inkscape.org/) -->

<svg
   xmlns:dc="http://purl.org/dc/elements/1.1/"
   xmlns:cc="http://creativecommons.org/ns#"
   xmlns:rdf="http://www.w3.org/1999/02/22-rdf-syntax-ns#"
   xmlns:svg="http://www.w3.org/2000/svg"
   xmlns="http://www.w3.org/2000/svg"
   xmlns:sodipodi="http://sodipodi.sourceforge.net/DTD/sodipodi-0.dtd"
   xmlns:inkscape="http://www.inkscape.org/namespaces/inkscape"
   width="471"
   height="456.71429"
   id="svg2"
   version="1.1"
   inkscape:version="0.48.5 r10040"
   sodipodi:docname="nahe.svg">
  <defs
     id="defs4" />
  <sodipodi:namedview
     id="base"
     pagecolor="#ffffff"
     bordercolor="#666666"
     borderopacity="1.0"
     inkscape:pageopacity="0.0"
     inkscape:pageshadow="2"
     inkscape:zoom="0.7"
     inkscape:cx="202.85769"
     inkscape:cy="163.63592"
     inkscape:document-units="px"
     inkscape:current-layer="layer2"
     showgrid="false"
     inkscape:snap-grids="true"
     showborder="false"
     inkscape:showpageshadow="false"
     fit-margin-top="0"
     fit-margin-left="0"
     fit-margin-right="0"
     fit-margin-bottom="0"
     inkscape:window-width="1366"
     inkscape:window-height="713"
     inkscape:window-x="0"
     inkscape:window-y="33"
     inkscape:window-maximized="1" />
  <metadata
     id="metadata7">
    <rdf:RDF>
      <cc:Work
         rdf:about="">
        <dc:format>image/svg+xml</dc:format>
        <dc:type
           rdf:resource="http://purl.org/dc/dcmitype/StillImage" />
        <dc:title />
      </cc:Work>
    </rdf:RDF>
  </metadata>
  <g
     inkscape:groupmode="layer"
     id="layer2"
     inkscape:label="bg"
     transform="translate(16.214286,26.255563)">
    <path
       style="fill:#ffffff;stroke:#ffffff;stroke-width:1.04158294"
       d="m -15.693495,-25.734772 469.958405,0 0,455.672702 -469.958405,0 z"
       id="rect2995" />
  </g>
  <g
     inkscape:label="Layer 1"
     inkscape:groupmode="layer"
     id="layer1"
     transform="translate(-172.14231,-102.36221)">
    <path
       style="fill:#ff8080;stroke:#0000ff;stroke-width:3.5;stroke-miterlimit:4"
       d="m 602.85715,350.93362 c 0,108.09002 -90.82224,195.71428 -202.85715,195.71428 -112.03491,0 -202.85715,-87.62426 -202.85715,-195.71428 0,-108.09001 90.82224,-195.71427 202.85715,-195.71427 111.25295,0 201.74801,86.45016 202.84724,193.78051"
       id="path2985" />
    <path
       style="fill:#b3defd;stroke:#b3defd"
       d="m 568.57142,412.36218 c 0,48.91665 -42.21315,88.57143 -94.28571,88.57143 -52.07257,0 -94.28572,-39.65478 -94.28572,-88.57143 0,-48.91665 42.21315,-88.57142 94.28572,-88.57142 51.70911,0 93.77019,39.12343 94.28111,87.69629"
       id="path2987" />
    <g
       style="font-size:22px;font-style:normal;font-variant:normal;font-weight:normal;font-stretch:normal;text-align:start;line-height:125%;letter-spacing:0px;word-spacing:0px;writing-mode:lr-tb;text-anchor:start;fill:#0000ff;fill-opacity:1;stroke:none;font-family:Sans;-inkscape-font-specification:Sans"
       id="text2989">
      <path
         d="m 209.59293,138.06587 c -0.22918,-0.0286 -0.4297,-0.11458 -0.60157,-0.25781 -0.20053,-0.42969 -0.30079,-0.75195 -0.30078,-0.9668 -1e-5,-0.21484 -0.0143,-0.56575 -0.043,-1.05273 -0.25782,0.11458 -0.50131,0.1862 -0.73047,0.21484 -0.22917,-0.0286 -0.42969,-0.11458 -0.60156,-0.25781 -0.25782,-0.40104 -0.54428,-0.79492 -0.85937,-1.18164 -0.31511,-0.40104 -0.51564,-0.84505 -0.60157,-1.33203 l 0.21485,-0.42969 c 0.20051,-0.17187 0.45832,-0.24349 0.77344,-0.21484 l 0.42968,0.21484 1.2461,1.61133 -0.34375,-11.10742 c 0.0143,-0.52994 0.14322,-0.8164 0.38672,-0.85938 0.2578,-0.043 1.69009,-0.0358 4.29687,0.0215 0.14322,-0.48697 0.24348,-0.99543 0.30078,-1.52539 0.0573,-0.52994 0.17186,-1.02408 0.34375,-1.48243 0.22915,-0.2005 0.50129,-0.28644 0.81641,-0.25781 l 0.42969,0.21484 c 0.17185,0.22919 0.24347,0.50132 0.21484,0.81641 l -0.38672,2.32031 4.01758,0.043 c 0.64451,-0.0859 0.93097,0.40822 0.85937,1.48242 l 0,12.97657 c 0.0429,0.65885 -0.28647,0.97395 -0.98828,0.94531 -0.4297,-0.0859 -0.82358,-0.22917 -1.18164,-0.42969 -0.35809,-0.20052 -0.69468,-0.45833 -1.00976,-0.77344 -0.1719,-0.20052 -0.24351,-0.45833 -0.21485,-0.77343 l 0.21485,-0.42969 c 0.2005,-0.17187 0.45831,-0.24349 0.77343,-0.21484 l 0.6875,0.38671 0,-6.27343 c -0.31512,0.25782 -0.64455,0.35808 -0.98828,0.30078 l -0.42968,-0.21485 c -0.40106,-0.54426 -0.8594,-1.05988 -1.375,-1.54687 -0.50132,-0.48697 -0.99546,-0.95963 -1.48243,-1.41797 -0.25782,0.63022 -0.50847,1.26043 -0.75195,1.89063 -0.2435,0.63021 -0.58009,1.21745 -1.00977,1.76171 -0.20053,0.17189 -0.45834,0.2435 -0.77343,0.21485 l -0.42969,-0.21485 c -0.17189,-0.22916 -0.2435,-0.50129 -0.21484,-0.8164 0.48696,-0.83072 0.90949,-1.69726 1.26757,-2.59961 0.35806,-0.90233 0.66601,-1.81184 0.92383,-2.72852 l -2.57812,0 c 0.34374,8.40756 0.52993,12.82617 0.55859,13.25586 l -0.21484,0.42969 c -0.20054,0.14323 -0.41538,0.22916 -0.64453,0.25781 m -5.73633,0.17188 -0.42969,-0.21485 c -0.22917,-0.34375 -0.31511,-0.74479 -0.25781,-1.20312 l -0.0859,-6.25195 -2.44922,0.17187 c -0.22917,-0.0286 -0.42969,-0.13606 -0.60156,-0.32227 -0.17188,-0.18619 -0.24349,-0.43684 -0.21484,-0.75195 0.34374,-0.60155 0.7233,-1.19595 1.13867,-1.7832 0.41536,-0.58723 0.86653,-1.15299 1.35351,-1.69727 l -2.23437,-1.97656 c -0.14323,-0.21483 -0.14323,-0.48697 0,-0.81641 0.14323,-0.32941 0.94531,-1.31053 2.40625,-2.94336 0.48697,-0.5729 1.08137,-0.90232 1.7832,-0.98828 l 0.42969,0.21485 c 0.17187,0.22918 0.24348,0.50132 0.21484,0.8164 l -0.21484,0.42969 -2.77149,2.81445 c 0.57292,0.60158 1.16016,1.04559 1.76172,1.33204 0.5013,-0.37239 0.92382,-0.80208 1.26758,-1.28907 0.22916,-0.17186 0.5013,-0.24347 0.81641,-0.21484 l 0.42968,0.21484 c 0.17187,0.20054 0.24349,0.45835 0.21485,0.77344 l -0.21485,0.42969 -3.88867,3.95312 3.07227,-0.0859 c -0.17188,-0.28645 -0.27214,-0.57291 -0.30078,-0.85938 0.0286,-0.22916 0.11457,-0.42968 0.25781,-0.60156 0.20051,-0.17187 0.45833,-0.24348 0.77344,-0.21485 l 0.42968,0.21485 c 0.28645,0.60157 0.61588,1.18881 0.98829,1.76172 0.37238,0.57292 0.64452,1.1888 0.8164,1.84765 l -0.21484,0.42969 c -0.20053,0.17188 -0.45834,0.24349 -0.77344,0.21484 l -0.42969,-0.21484 -0.60156,-0.94531 -1.54687,0.043 0.1289,6.42382 c 0.0286,0.40105 -0.0573,0.75912 -0.25781,1.07422 -0.20053,0.17188 -0.4655,0.24349 -0.79492,0.21485 m -3.09375,-1.46094 c -0.22917,-0.0286 -0.42969,-0.11458 -0.60156,-0.25781 -0.14324,-0.22917 -0.22917,-0.47266 -0.25782,-0.73047 0.11458,-0.48698 0.21485,-0.98112 0.30078,-1.48242 0.0859,-0.51563 0.21485,-1.0026 0.38672,-1.46094 0.20052,-0.17187 0.45833,-0.24349 0.77344,-0.21484 l 0.42969,0.21484 c 0.22916,0.34375 0.30078,0.74479 0.21484,1.20312 -0.22917,1.2461 -0.41537,2.06967 -0.55859,2.47071 -0.20053,0.14323 -0.42969,0.22916 -0.6875,0.25781 m 17.01562,-12.48242 -3.58789,-0.0859 -0.1289,0.55859 3.67382,3.82422 0.043,-4.29687"
         style=""
         id="path3244" />
      <path
         d="m 237.5441,138.62447 c -0.41538,-0.0573 -0.78778,-0.21485 -1.11719,-0.47266 -0.32944,-0.25781 -0.65171,-0.52995 -0.9668,-0.81641 -0.17189,-0.20052 -0.2435,-0.45833 -0.21484,-0.77343 l 0.21484,-0.42969 c 0.20051,-0.17188 0.45832,-0.24349 0.77344,-0.21485 l 0.51563,0.25782 -0.043,-2.59961 -5.11328,0.1289 c -0.22918,-0.0286 -0.4297,-0.11458 -0.60157,-0.25781 -0.17188,-0.20052 -0.2435,-0.45833 -0.21484,-0.77344 l 0.21484,-0.42968 c 0.42968,-0.22917 0.90234,-0.32943 1.41797,-0.30078 l 4.25391,-0.043 0,-1.33203 c -1.51825,-0.0573 -2.68556,-0.0573 -3.50195,0 -0.81642,0.0573 -1.63999,0.10026 -2.47071,0.1289 -0.22917,-0.0286 -0.42969,-0.11458 -0.60156,-0.25781 -0.17188,-0.20052 -0.2435,-0.45833 -0.21484,-0.77344 l 0.21484,-0.42969 c 0.88801,-0.17186 1.79751,-0.27929 2.72852,-0.32226 0.93097,-0.043 2.21287,-0.0645 3.8457,-0.0645 1.64712,0 2.69269,-0.007 3.13672,-0.0215 0.44399,-0.0143 0.85219,0.0788 1.22461,0.2793 0.17185,0.20053 0.24347,0.45834 0.21484,0.77344 l -0.21484,0.42968 c -0.22919,0.14324 -0.47268,0.22918 -0.73047,0.25782 l -1.9336,0 0,1.28906 1.76172,0 0.42969,0.21484 c 0.2005,0.22917 0.28644,0.50131 0.25781,0.81641 l -0.21484,0.42969 -0.42969,0.21484 -1.76172,0 0.12891,4.4043 c -0.15757,0.5013 -0.487,0.73046 -0.98828,0.6875 m -10.5918,-0.17188 c -0.22917,-0.0286 -0.42969,-0.11458 -0.60156,-0.25781 -0.32943,-1.48958 -0.63738,-4.57617 -0.92383,-9.25977 l -1.71875,2.49219 c -0.20052,0.22917 -0.45834,0.32943 -0.77344,0.30078 l -0.42968,-0.21484 c -0.17188,-0.22916 -0.2435,-0.5013 -0.21485,-0.81641 0.88802,-1.48957 1.85482,-2.92903 2.90039,-4.31836 1.05989,-1.38931 2.03385,-2.83592 2.92188,-4.33984 0.22916,-0.20051 0.50129,-0.28644 0.8164,-0.25781 l 0.42969,0.21484 c 0.17187,0.22918 0.24348,0.50132 0.21484,0.81641 l -2.44921,3.8457 0.6875,11.10742 -0.21485,0.42969 c -0.20053,0.14323 -0.41537,0.22916 -0.64453,0.25781 m 6.01563,-1.84766 c -0.34377,-0.11458 -0.67319,-0.25781 -0.98829,-0.42968 -0.31511,-0.17188 -0.64454,-0.31511 -0.98828,-0.42969 -0.17188,-0.20052 -0.2435,-0.45833 -0.21484,-0.77344 l 0.21484,-0.42969 c 0.28645,-0.21484 0.61588,-0.28645 0.98828,-0.21484 0.57291,0.20052 1.11718,0.47266 1.63282,0.81641 0.17186,0.20052 0.24347,0.45833 0.21484,0.77343 l -0.21484,0.42969 c -0.20054,0.14323 -0.41538,0.22917 -0.64453,0.25781 m -0.30079,-8.52929 c -0.51563,0.0143 -0.8379,-0.22916 -0.96679,-0.73047 -0.12892,-0.51562 -0.22202,-2.81444 -0.2793,-6.89649 0.11457,-0.5729 0.47265,-0.84503 1.07422,-0.8164 4.45441,0.0287 6.86782,0.0788 7.24023,0.15039 0.3867,0.0573 0.48696,0.59442 0.30079,1.61133 -0.0287,3.91016 -0.0788,6.00131 -0.1504,6.27343 -0.0716,0.25783 -0.3366,0.36525 -0.79492,0.32227 l -6.42383,0.0859 m 5.60743,-1.76172 0.0859,-1.71875 -5.17773,0 0.0859,1.71875 5.00586,0 m -14.86719,-0.42969 -0.42969,-0.21484 c -0.20052,-0.22916 -0.27214,-0.51562 -0.21484,-0.85938 0.48697,-0.80207 0.95963,-1.60415 1.41797,-2.40625 0.45833,-0.81639 0.91666,-1.63996 1.375,-2.4707 0.22916,-0.17186 0.50845,-0.24347 0.83789,-0.21484 l 0.42968,0.21484 c 0.17187,0.20054 0.24349,0.45835 0.21485,0.77344 -0.4297,0.83074 -0.88803,1.66863 -1.375,2.51367 -0.47266,0.83074 -0.9668,1.64715 -1.48242,2.44922 -0.20053,0.17188 -0.45834,0.2435 -0.77344,0.21484 m 14.95312,-2.98633 0,-1.5039 -5.26367,-0.043 0,1.54687 5.26367,0"
         style=""
         id="path3246" />
      <path
         d="m 256.47183,137.2065 c -0.77345,-0.0573 -1.49675,-0.26498 -2.16992,-0.62305 -0.67319,-0.35807 -1.31772,-0.86654 -1.93359,-1.52539 -0.6159,-0.67318 -1.11004,-1.45377 -1.48243,-2.3418 -0.3724,-0.88801 -0.50847,-1.819 -0.4082,-2.79297 0.10025,-0.97395 0.41536,-1.81184 0.94531,-2.51367 0.52994,-0.70181 1.04557,-1.30337 1.54688,-1.80469 0.50129,-0.50129 0.9453,-0.888 1.33203,-1.16015 0.38671,-0.27212 0.78059,-0.51561 1.18164,-0.73047 -1.71876,0.0287 -3.38022,0.0931 -4.98437,0.19336 -1.58985,0.086 -3.17253,0.21486 -4.74805,0.38672 l -0.42969,-0.21485 c -0.17188,-0.21483 -0.24349,-0.4798 -0.21484,-0.79492 l 0.21484,-0.42969 c 2.10547,-0.37238 4.23958,-0.6087 6.40235,-0.70898 2.16274,-0.10025 5.02732,-0.20767 8.59375,-0.32227 l 0.42968,0.21485 c 0.17186,0.20053 0.24347,0.45835 0.21485,0.77344 l -0.21485,0.42968 c -1.13152,0.37241 -2.24155,0.83075 -3.33008,1.375 -1.08855,0.52996 -2.0267,1.13869 -2.81445,1.82618 -0.78777,0.6875 -1.41798,1.38933 -1.89062,2.10546 -0.47267,0.71616 -0.66603,1.44663 -0.58008,2.19141 0.0859,0.7448 0.38671,1.47527 0.90234,2.19141 0.51562,0.71615 1.04556,1.31055 1.58985,1.7832 0.54425,0.45833 1.08852,0.70899 1.63281,0.75195 0.54426,0.043 1.0742,0.13607 1.58984,0.2793 0.17186,0.20052 0.24348,0.45833 0.21485,0.77344 l -0.21485,0.42968 c -0.40105,0.22917 -0.85939,0.31511 -1.375,0.25782 m 2.83594,-6.76758 c -0.22918,-0.0286 -0.4297,-0.11458 -0.60156,-0.25781 -0.25783,-0.57291 -0.45835,-1.17447 -0.60157,-1.80469 -0.14324,-0.6302 -0.30079,-1.24609 -0.47265,-1.84766 l 0.21484,-0.42968 c 0.20051,-0.17187 0.45832,-0.24348 0.77344,-0.21485 l 0.42969,0.21485 c 0.32941,0.54428 0.56574,1.13152 0.70898,1.76171 0.14321,0.63022 0.28644,1.26043 0.42969,1.89063 l -0.21484,0.42969 c -0.20054,0.14323 -0.42255,0.22917 -0.66602,0.25781 m 2.90039,-0.85938 -0.42969,-0.21484 c -0.20054,-0.51562 -0.38673,-1.03124 -0.55859,-1.54687 -0.17189,-0.51562 -0.3008,-1.04557 -0.38672,-1.58985 l 0.21484,-0.42969 c 0.20051,-0.17186 0.45832,-0.24347 0.77344,-0.21484 l 0.42969,0.21484 c 0.25779,0.48699 0.46547,0.9883 0.62305,1.50391 0.15753,0.51563 0.26495,1.0599 0.32226,1.63281 l -0.21484,0.42969 c -0.20054,0.17188 -0.45836,0.2435 -0.77344,0.21484"
         style=""
         id="path3248" />
      <path
         d="m 275.33511,137.50728 c -1.14584,-0.0573 -2.23438,-0.33659 -3.26562,-0.83789 -1.03126,-0.5013 -1.86199,-1.11003 -2.49219,-1.82617 -0.61589,-0.73047 -0.98112,-1.41081 -1.0957,-2.04102 0.0286,-0.22916 0.11458,-0.42968 0.25781,-0.60156 0.20052,-0.17187 0.45833,-0.24349 0.77344,-0.21485 l 0.42969,0.21485 c 0.14322,0.42969 0.37239,0.82357 0.6875,1.18164 0.32942,0.35807 0.77343,0.77344 1.33203,1.24609 0.55858,0.45834 1.27473,0.78776 2.14843,0.98828 0.87369,0.20053 1.61848,0.25782 2.23438,0.17188 0.61587,-0.0859 1.08137,-0.12891 1.39648,-0.12891 l 0.42969,0.21485 c 0.17186,0.22916 0.24348,0.5013 0.21484,0.8164 l -0.21484,0.42969 c -0.40105,0.22917 -0.84506,0.35091 -1.33203,0.36523 -0.48699,0.0143 -0.98829,0.0215 -1.50391,0.0215 m 3.73828,-4.91992 -0.42968,-0.21485 c -0.40106,-0.60155 -0.77345,-1.21744 -1.11719,-1.84765 -0.34376,-0.63021 -0.65887,-1.26041 -0.94531,-1.89063 -1.46095,0.0287 -2.6784,0.0716 -3.65235,0.12891 -0.97396,0.0573 -1.94076,0.14323 -2.90039,0.25781 l -0.42968,-0.21484 c -0.17188,-0.22916 -0.2435,-0.5013 -0.21485,-0.81641 l 0.21485,-0.42969 c 0.98827,-0.2578 2.0052,-0.40819 3.05078,-0.45117 1.04556,-0.043 2.08397,-0.0788 3.11523,-0.10742 -0.17188,-0.51562 -0.3366,-1.00259 -0.49414,-1.46094 -0.15756,-0.45832 -0.29363,-0.93098 -0.4082,-1.41797 -1.23178,0.0287 -2.24155,0.0788 -3.0293,0.15039 -0.78777,0.0716 -1.57553,0.15041 -2.36328,0.23633 l -0.42969,-0.21484 c -0.17188,-0.20051 -0.24349,-0.45832 -0.21484,-0.77344 l 0.21484,-0.45117 c 0.83073,-0.2578 1.6901,-0.42251 2.57813,-0.49414 0.90233,-0.0716 1.79751,-0.12173 2.68554,-0.15039 -0.20053,-0.51561 -0.31511,-1.03124 -0.34375,-1.54688 l 0.21485,-0.42969 c 0.20051,-0.17185 0.45832,-0.24347 0.77343,-0.21484 l 0.42969,0.21484 c 0.28645,0.60158 0.51562,1.24611 0.6875,1.9336 l 5.56446,-0.21485 0.42968,0.21485 c 0.17186,0.20053 0.24347,0.45835 0.21485,0.77344 l -0.21485,0.45117 c -0.55861,0.22918 -2.38478,0.37241 -5.47851,0.42969 0.14321,0.57292 0.30077,1.08855 0.47265,1.54687 0.17187,0.45834 0.35806,0.91668 0.5586,1.375 l 4.74804,-0.043 0.42969,0.21485 c 0.17186,0.22917 0.24347,0.50131 0.21485,0.8164 l -0.21485,0.42969 -0.42969,0.21484 -3.88867,0 c 0.2578,0.63022 0.55858,1.19597 0.90235,1.69727 0.34373,0.50131 0.5729,1.05274 0.6875,1.6543 l -0.21485,0.42968 c -0.20053,0.17188 -0.45835,0.2435 -0.77344,0.21485"
         style=""
         id="path3250" />
      <path
         d="m 297.27066,137.87251 c -0.37241,-0.0573 -0.73764,-0.17187 -1.0957,-0.34375 -0.34376,-0.15755 -0.70183,-0.4082 -1.07422,-0.75195 -0.35808,-0.34375 -0.59441,-0.70182 -0.70899,-1.07422 -0.11459,-0.38672 -0.16472,-0.77343 -0.15039,-1.16016 0.0286,-0.40103 0.12174,-0.75911 0.2793,-1.07421 0.17187,-0.3151 0.42968,-0.62305 0.77344,-0.92383 0.35806,-0.3151 0.77343,-0.55143 1.24609,-0.70899 0.48697,-0.15754 0.99543,-0.17903 1.52539,-0.0644 0.52994,0.11459 1.00976,0.2793 1.43946,0.49414 0.44399,0.20053 0.87368,0.52279 1.28906,0.9668 0.42967,0.44401 0.76626,0.88086 1.00976,1.31054 0.32942,-0.48697 0.46548,-1.00976 0.40821,-1.56835 -0.0573,-0.57292 -0.16473,-1.10286 -0.32227,-1.58985 -0.14324,-0.48697 -0.40822,-0.93098 -0.79492,-1.33203 -0.38673,-0.40103 -0.90236,-0.70182 -1.54688,-0.90234 -0.64454,-0.20052 -1.39649,-0.27213 -2.25586,-0.21485 -0.84506,0.0573 -1.48243,0.17905 -1.9121,0.36524 -0.4297,0.1862 -1.03126,0.57292 -1.80469,1.16015 -0.18621,0.15756 -0.44402,0.22201 -0.77344,0.19336 l -0.4082,-0.19336 c -0.15756,-0.22916 -0.22917,-0.49413 -0.21485,-0.79492 l 0.25782,-0.47265 c 0.51561,-0.41536 1.27473,-1.11002 2.27734,-2.08399 1.01692,-0.97395 1.78319,-1.74738 2.29883,-2.32031 0.52993,-0.58723 1.21743,-1.34634 2.0625,-2.27735 l -5.69336,0 -0.45117,-0.21484 c -0.17188,-0.20051 -0.2435,-0.45832 -0.21485,-0.77344 l 0.21485,-0.4082 c 0.51561,-0.22915 1.07421,-0.34373 1.67578,-0.34375 2.47785,0.0859 4.1035,0.12892 4.87695,0.12891 0.77342,1e-5 1.41079,0.0859 1.91211,0.25781 0.50129,0.17189 0.65884,0.50132 0.47266,0.98828 l -4.98438,5.0918 c 0.95963,-0.0286 1.86197,0.0358 2.70703,0.19336 0.84504,0.15756 1.68293,0.65886 2.51367,1.5039 0.83072,0.84506 1.33918,1.64714 1.5254,2.40625 0.18618,0.75912 0.25779,1.46811 0.21484,2.12696 -0.043,0.65885 -0.16473,1.19596 -0.36524,1.61132 -0.20053,0.40105 -0.6517,0.90951 -1.35351,1.52539 -0.68752,0.61589 -1.45379,0.98112 -2.29883,1.09571 -0.84506,0.11458 -1.69728,0.17187 -2.55664,0.17187 m 3.28711,-1.99804 c -0.22918,-0.65886 -0.53712,-1.153 -0.92383,-1.48243 -0.37241,-0.32942 -0.7448,-0.59439 -1.11719,-0.79492 -0.35808,-0.21484 -0.73048,-0.30078 -1.11718,-0.25781 -0.38673,0.043 -0.75197,0.20769 -1.09571,0.49414 -0.34376,0.28646 -0.4655,0.65886 -0.36523,1.11719 0.10025,0.44401 0.35806,0.78776 0.77344,1.03125 0.42967,0.24349 0.87368,0.34375 1.33203,0.30078 0.45832,-0.043 0.89517,-0.0931 1.31054,-0.15039 0.41536,-0.0573 0.8164,-0.14323 1.20313,-0.25781"
         style=""
         id="path3252" />
      <path
         d="m 316.92886,137.67915 -0.42968,-0.21484 c -0.17189,-0.22917 -0.2435,-0.5013 -0.21485,-0.81641 0.60156,-0.65885 1.25325,-1.36783 1.95508,-2.12695 0.70181,-0.77343 1.2246,-1.45377 1.56836,-2.04102 0.34374,-0.58723 0.67316,-1.18163 0.98828,-1.7832 -0.48699,-0.34374 -0.96681,-0.65168 -1.43945,-0.92383 -0.47267,-0.27212 -1.03842,-0.666 -1.69727,-1.18164 -0.17188,-0.20051 -0.2435,-0.45832 -0.21484,-0.77343 l 0.21484,-0.42969 c 0.22916,-0.20051 0.51562,-0.27213 0.85938,-0.21485 0.71613,0.54428 1.26756,0.92384 1.65429,1.13868 0.38671,0.21485 0.83788,0.43685 1.35352,0.66601 0.37238,-0.91666 0.71613,-1.84048 1.03125,-2.77148 0.31509,-0.93098 0.61587,-1.86913 0.90234,-2.81446 -0.91668,-0.0859 -1.83334,-0.1647 -2.75,-0.23632 -0.91667,-0.0859 -1.83334,-0.21483 -2.75,-0.38672 -0.31511,0.75912 -0.6517,1.51108 -1.00976,2.25586 -0.35808,0.7448 -0.96681,1.67579 -1.82617,2.79297 -0.20053,0.17188 -0.45834,0.24349 -0.77344,0.21484 l -0.45117,-0.21484 c -0.17188,-0.22916 -0.2435,-0.5013 -0.21485,-0.81641 0.67317,-0.85937 1.25325,-1.76887 1.74024,-2.72852 0.48697,-0.97394 0.95962,-1.9479 1.41797,-2.92187 0.15754,-0.37238 0.55858,-0.47264 1.20312,-0.30078 1.17447,0.25783 2.37043,0.41538 3.58789,0.47265 1.21744,0.0573 2.40624,0.21486 3.56641,0.47266 0.37238,0.15757 0.44399,0.48699 0.21484,0.98828 -0.38673,1.18882 -0.77345,2.36329 -1.16015,3.52344 -0.38674,1.16016 -0.80926,2.32748 -1.26758,3.50195 0.51561,0.28647 0.97394,0.64454 1.375,1.07422 l 0.043,0.51563 -0.21485,0.42968 c -0.22918,0.17188 -0.50131,0.2435 -0.8164,0.21485 l -1.16016,-0.6875 c -0.22918,0.42969 -0.45119,0.86654 -0.66602,1.31054 -0.21485,0.44402 -0.58725,0.98113 -1.11718,1.61133 -0.52996,0.61589 -1.5254,1.66862 -2.98633,3.1582 l -0.51563,0.043"
         style=""
         id="path3254" />
      <path
         d="m 336.30777,136.45454 c -0.22917,-0.0286 -0.42969,-0.10742 -0.60156,-0.23632 -0.18621,-0.1862 -0.27214,-0.43685 -0.25782,-0.75196 l 0.19336,-0.45117 c 1.57552,-0.34375 3.14388,-0.80208 4.70508,-1.375 1.56119,-0.57291 2.7858,-1.29622 3.67383,-2.16992 0.90233,-0.87369 1.53254,-1.66861 1.89063,-2.38477 0.37238,-0.71613 0.63019,-1.3535 0.77343,-1.91211 0.15754,-0.5729 0.32225,-1.13866 0.49414,-1.69726 0.18618,-0.18619 0.444,-0.27213 0.77344,-0.25781 l 0.42969,0.19336 c 0.21482,0.2435 0.30076,0.53712 0.25781,0.88085 -0.15757,0.73048 -0.34377,1.46095 -0.55859,2.19141 -0.20054,0.73048 -0.56577,1.46811 -1.09571,2.21289 -0.51564,0.7448 -1.28907,1.55404 -2.32031,2.42774 -1.03126,0.85937 -2.28452,1.56836 -3.75976,2.12695 -1.47527,0.54427 -3.00782,0.94531 -4.59766,1.20312 m 2.96484,-9.96875 c -0.77344,-0.2578 -1.5612,-0.48696 -2.36328,-0.6875 -0.78776,-0.20051 -1.56836,-0.40103 -2.34179,-0.60156 -0.17188,-0.20051 -0.2435,-0.45832 -0.21485,-0.77344 l 0.21485,-0.42968 c 0.2578,-0.20051 0.57291,-0.27213 0.94531,-0.21485 0.78775,0.14324 1.54687,0.31512 2.27734,0.51563 0.73046,0.20053 1.45377,0.44402 2.16992,0.73047 0.17187,0.20053 0.24348,0.45834 0.21485,0.77343 l -0.21485,0.42969 c -0.20053,0.14324 -0.42969,0.22918 -0.6875,0.25781"
         style=""
         id="path3256" />
      <path
         d="m 356.6105,136.26118 -0.42968,-0.21484 c -0.20053,-0.22916 -0.27214,-0.51562 -0.21485,-0.85937 l 0.25782,-0.47266 c 0.48697,-0.32943 0.86653,-0.76627 1.13867,-1.31055 0.27213,-0.54426 0.46549,-1.1315 0.58008,-1.76172 0.1289,-0.6302 0.19335,-1.43944 0.19335,-2.42773 0.0143,-0.98827 0.0286,-2.39908 0.043,-4.23242 0.0286,-0.22916 0.11458,-0.42968 0.25782,-0.60156 0.22916,-0.17187 0.50129,-0.24348 0.8164,-0.21485 l 0.42969,0.21485 c 0.17187,0.22917 0.24348,0.50131 0.21484,0.8164 0.043,1.69012 0.0286,3.12241 -0.043,4.29688 -0.0573,1.17448 -0.20052,2.24154 -0.42968,3.20117 -0.22918,0.95964 -0.85222,2.03385 -1.86914,3.22265 -0.25782,0.25782 -0.57292,0.3724 -0.94532,0.34375 m 7.36914,-0.1289 c -0.38672,0.043 -0.63738,-0.12891 -0.75195,-0.51563 -0.10027,-0.40104 -0.30795,-4.01757 -0.62305,-10.84961 0.0286,-0.22915 0.11458,-0.42967 0.25782,-0.60156 0.20051,-0.17186 0.45832,-0.24348 0.77343,-0.21484 l 0.42969,0.21484 c 0.20051,0.22918 0.28645,0.50132 0.25781,0.81641 l 0.42969,9.23828 c 1.08853,-0.37239 2.1341,-0.77344 3.13672,-1.20313 1.01691,-0.42968 2.05532,-0.75911 3.11524,-0.98828 l 0.42968,0.21485 c 0.17186,0.20052 0.24347,0.45833 0.21485,0.77343 l -0.21485,0.42969 c -1.23179,0.45834 -2.47072,0.95248 -3.71679,1.48242 -1.23179,0.51563 -2.47788,0.91667 -3.73829,1.20313"
         style=""
         id="path3258" />
      <path
         d="m 380.00699,138.53853 -0.42969,-0.19336 c -0.14323,-0.17188 -0.22917,-0.36524 -0.25781,-0.58008 l -0.12891,-10.14062 c -0.35807,0.7448 -0.65886,1.49675 -0.90234,2.25586 -0.24349,0.74479 -0.5586,1.47526 -0.94531,2.1914 -0.1862,0.15756 -0.42969,0.22201 -0.73047,0.19336 l -0.42969,-0.19336 c -0.1862,-0.22916 -0.25065,-0.50846 -0.19336,-0.83789 0.45833,-1.14583 0.9095,-2.29166 1.35352,-3.4375 0.444,-1.16015 1.02408,-2.38475 1.74023,-3.67383 l -2.27734,0 c -0.21485,-0.0286 -0.40821,-0.10741 -0.58008,-0.23633 -0.15756,-0.2005 -0.22201,-0.45832 -0.19336,-0.77343 l 0.19336,-0.40821 0.4082,-0.19336 2.4707,0 0,-2.23437 c 0.0286,-0.21483 0.11458,-0.40819 0.25782,-0.58008 0.18619,-0.15753 0.43684,-0.22199 0.75195,-0.19336 l 0.42969,0.19336 c 0.1289,0.17189 0.20767,0.36525 0.23633,0.58008 l 0,2.19141 1.89062,-0.0859 0.4082,0.19336 c 0.17187,0.20053 0.24348,0.45118 0.21485,0.75195 l -0.21485,0.42969 c -0.30079,0.18621 -0.64453,0.27215 -1.03125,0.25781 -0.3724,-0.0143 -0.73763,0.007 -1.0957,0.0644 0.35807,0.50132 0.70182,0.98114 1.03125,1.43946 0.32942,0.44402 0.85937,1.00977 1.58984,1.69726 l 0.043,0.49414 -0.19336,0.40821 c -0.22917,0.15756 -0.49414,0.22201 -0.79492,0.19336 l -0.4082,-0.19336 -1.39649,-1.43946 0.12891,11.23633 -0.21484,0.42969 c -0.18621,0.15755 -0.4297,0.222 -0.73047,0.19336 m 5.80078,-0.0859 -0.4082,-0.19336 c -0.22918,-0.47266 -0.36525,-0.97396 -0.40821,-1.5039 -0.0286,-0.51563 -0.043,-1.04558 -0.043,-1.58985 -0.64454,0.0859 -1.22461,0.007 -1.74023,-0.23633 -0.11459,-0.14322 -0.15756,-0.32226 -0.12891,-0.53711 0.0859,-0.20051 0.222,-0.33658 0.40821,-0.4082 l 1.41797,0 -0.25782,-3.56641 c 0.043,-0.52994 0.29361,-0.80207 0.75196,-0.8164 l 3.33007,0 0,-1.31055 -4.03906,0 -0.4082,-0.21484 c -0.17189,-0.21484 -0.2435,-0.47265 -0.21484,-0.77344 l 0.21484,-0.42969 0.4082,-0.19336 1.89063,0 -0.0859,-1.39648 c -0.65887,0.086 -1.2461,1e-5 -1.76172,-0.25781 -0.17188,-0.18619 -0.2435,-0.42968 -0.21484,-0.73047 l 0.21484,-0.40821 c 0.48697,-0.22915 1.05272,-0.30076 1.69727,-0.21484 l 0,-0.66601 -1.82618,0.0215 c -0.21485,-0.0143 -0.40821,-0.0931 -0.58007,-0.23633 -0.15756,-0.18618 -0.22202,-0.42967 -0.19336,-0.73047 l 0.19336,-0.42968 c 0.32941,-0.15754 0.69465,-0.23632 1.0957,-0.23633 0.40103,10e-6 0.80923,10e-6 1.22461,0 l -0.043,-1.03125 0.19336,-0.40821 c 0.20051,-0.17185 0.45116,-0.24347 0.75195,-0.21484 l 0.40821,0.21484 c 0.21483,0.41538 0.30793,0.8952 0.27929,1.43946 l 2.47071,0 c -0.0716,-0.65884 0.0215,-1.23892 0.27929,-1.74024 0.18618,-0.15753 0.42967,-0.22199 0.73047,-0.19336 l 0.4082,0.19336 c 0.22915,0.50132 0.30077,1.06708 0.21485,1.69727 l 1.74023,0 c 0.37238,1e-5 0.70897,0.0931 1.00977,0.2793 0.2005,0.22918 0.28644,0.49415 0.25781,0.79492 l -0.21484,0.4082 c -0.21487,0.18621 -0.487,0.25066 -0.81641,0.19336 l -1.89062,-0.0644 0,0.70898 c 0.57289,-0.0859 1.08136,-0.0143 1.52539,0.21484 0.18618,0.21486 0.26495,0.47267 0.23632,0.77344 l -0.19335,0.40821 c -0.44403,0.22917 -0.93817,0.30079 -1.48243,0.21484 l 0.043,1.39648 1.67578,0 0.53711,0.23633 c 0.17186,0.20053 0.24347,0.45118 0.21485,0.75195 l -0.21485,0.40821 c -0.21486,0.14324 -0.44403,0.22201 -0.6875,0.23633 l -3.4375,-0.0215 0,1.39649 c 1.7617,-0.0286 2.78579,-0.0215 3.07227,0.0215 0.30076,0.043 0.50128,0.29363 0.60156,0.75195 l -0.043,3.33008 c 0.52993,-0.0859 0.9811,-0.007 1.35352,0.23633 0.11456,0.12891 0.15753,0.30078 0.1289,0.51562 -0.086,0.20053 -0.22202,0.34376 -0.4082,0.42969 l -1.07422,0.0645 c -0.0573,0.55859 -0.10028,1.11002 -0.1289,1.65429 -0.0287,0.54427 -0.13609,0.98828 -0.32227,1.33203 -0.18622,0.34375 -0.52997,0.4655 -1.03125,0.36524 -0.487,-0.0859 -0.96681,-0.26498 -1.43945,-0.53711 -0.15757,-0.20052 -0.22919,-0.45117 -0.21485,-0.75195 l 0.21485,-0.40821 c 0.21482,-0.17187 0.47264,-0.24349 0.77343,-0.21484 l 0.42969,0.1289 0.0645,-1.56835 -5.7793,0.1289 0.21484,2.68555 -0.21484,0.4082 c -0.18621,0.15755 -0.4297,0.222 -0.73047,0.19336 m 2.96484,-4.5332 0,-0.34375 -0.043,-0.32227 -2.29882,0 0.0645,0.73047 2.27734,-0.0644 m 3.58789,-0.0859 0,-0.62305 -2.01953,0.043 0.0215,0.62305 1.99804,-0.043 m -3.67382,-1.76172 -0.043,-0.88086 -2.3418,0 0.0859,0.88086 2.29883,0 m 3.71679,-0.043 0,-0.70898 -2.10547,-0.043 0,0.79492 2.10547,-0.043 m -1.76172,-5.34961 -0.0859,-1.39648 -2.44922,0.043 0.0859,1.35351 2.44921,0 m -0.1289,-3.00781 0,-0.66601 -2.49219,0 0,0.70898 2.49219,-0.043"
         style=""
         id="path3260" />
      <path
         d="m 398.65543,138.7104 -0.42969,-0.21484 c -0.14323,-0.20052 -0.22917,-0.42969 -0.25781,-0.6875 0.54426,-1.23177 0.96679,-2.69271 1.26757,-4.38281 0.31511,-1.70442 0.52279,-3.18685 0.62305,-4.44727 0.10026,-1.27473 0.12174,-2.92186 0.0645,-4.9414 0,-0.57291 0.1862,-0.89517 0.5586,-0.9668 0.37239,-0.0859 0.90234,-0.13606 1.58984,-0.15039 0.70182,-0.0143 3.11523,-0.0215 7.24024,-0.0215 -0.0573,-0.5729 -0.13608,-1.14581 -0.23633,-1.71875 -0.086,-0.58722 -0.15757,-1.08136 -0.21485,-1.48242 l 0.21485,-0.42969 c 0.22915,-0.17185 0.50129,-0.24347 0.8164,-0.21484 l 0.42969,0.21484 c 0.20051,0.45835 0.34374,1.05992 0.42969,1.80469 0.10025,0.73049 0.17902,1.35353 0.23633,1.86914 0.65884,0.0287 1.31769,0.0502 1.97656,0.0645 0.67316,0.0143 1.29621,0.15756 1.86914,0.42968 0.17186,0.20054 0.24347,0.45835 0.21484,0.77344 l -0.21484,0.42969 c -0.25783,0.20053 -0.55861,0.27214 -0.90234,0.21484 l -2.64258,-0.21484 c 0.2005,1.14584 0.42967,2.2129 0.6875,3.20117 0.2578,0.98829 0.52993,1.98373 0.8164,2.98633 0.38671,-0.51562 0.70897,-1.05273 0.9668,-1.61133 0.2578,-0.55859 0.52993,-1.11002 0.81641,-1.6543 0.22915,-0.20051 0.5156,-0.28645 0.85937,-0.25781 l 0.42969,0.21484 c 0.17186,0.20053 0.24347,0.45835 0.21484,0.77344 -0.37241,0.80209 -0.77345,1.58985 -1.20312,2.36328 -0.42971,0.77345 -0.88804,1.53256 -1.375,2.27735 0.83071,1.28906 1.52537,2.27734 2.08398,2.96484 0.17186,-0.3151 0.32941,-0.61588 0.47266,-0.90234 0.2005,-0.1862 0.45831,-0.25781 0.77344,-0.21485 l 0.42968,0.21485 c 0.2005,0.22916 0.27212,0.51562 0.21485,0.85937 -0.0573,0.3724 -0.18622,0.70899 -0.38672,1.00977 -0.20054,0.30078 -0.3939,0.60156 -0.58008,0.90234 -0.18622,0.30078 -0.47984,0.39388 -0.88086,0.2793 -0.77345,-0.60157 -1.84767,-1.76888 -3.22265,-3.50196 l -2.10547,2.40625 c -0.22918,0.20053 -0.51564,0.27214 -0.85938,0.21485 l -0.42969,-0.21485 c -0.17188,-0.20052 -0.2435,-0.45833 -0.21484,-0.77343 l 0.21484,-0.42969 c 0.85937,-0.83073 1.43228,-1.45377 1.71875,-1.86914 0.28645,-0.42969 0.55858,-0.85937 0.81641,-1.28906 -0.40106,-1.31771 -0.76629,-2.63541 -1.0957,-3.95313 -0.32944,-1.3177 -0.63739,-2.64973 -0.92383,-3.99609 l -7.88477,0.043 0,2.79297 5.52149,-0.0859 c 0.48697,0.0573 0.70181,0.40105 0.64453,1.03125 -0.22918,1.11719 -0.40105,2.2487 -0.51563,3.39453 -0.11459,1.14584 -0.3724,2.25586 -0.77343,3.33008 -0.12892,0.45833 -0.44402,0.55859 -0.94532,0.30078 -0.63021,-0.20052 -1.17448,-0.57292 -1.63281,-1.11719 -0.31511,-0.30078 -0.45834,-0.66601 -0.42969,-1.0957 l 0.21485,-0.42969 c 0.20051,-0.17187 0.45832,-0.24349 0.77344,-0.21484 l 0.42968,0.21484 0.42969,0.47266 c 0.17187,-0.6875 0.28645,-1.38932 0.34375,-2.10547 0.0573,-0.71614 0.14322,-1.41796 0.25781,-2.10547 l -4.36132,0.0859 c -0.17188,1.40365 -0.41537,2.99349 -0.73047,4.76953 -0.30079,1.76172 -0.78061,3.28711 -1.43946,4.57617 -0.20052,0.17187 -0.45833,0.24349 -0.77343,0.21484 m 14.8457,-16.58593 -1.48242,-1.03125 c -0.17189,-0.20051 -0.24351,-0.45832 -0.21485,-0.77344 l 0.21485,-0.42969 c 0.22915,-0.2005 0.51561,-0.28644 0.85937,-0.25781 0.32941,0.14324 0.78058,0.45835 1.35352,0.94531 0.22915,0.25783 0.31508,0.55861 0.25781,0.90234 l -0.21484,0.42969 c -0.20054,0.17189 -0.45835,0.24351 -0.77344,0.21485"
         style=""
         id="path3262" />
      <path
         d="m 423.68472,138.45259 c -0.28646,-0.0286 -0.52995,-0.12891 -0.73047,-0.30078 -0.17188,-0.20052 -0.24349,-0.45833 -0.21484,-0.77344 l 0.21484,-0.42969 c 0.81641,-0.14322 1.63281,-0.26497 2.44922,-0.36523 0.8164,-0.10026 1.597,-0.29362 2.3418,-0.58008 l -3.09375,-0.98828 c -0.32943,-0.20052 -0.40105,-0.47981 -0.21484,-0.83789 l 0.85937,-1.54687 -3.8457,-0.043 -0.42969,-0.21485 c -0.17188,-0.22916 -0.24349,-0.50129 -0.21484,-0.8164 l 0.21484,-0.42969 c 0.54427,-0.22916 1.16015,-0.3151 1.84766,-0.25781 l 3.41601,0.0859 c 0.25781,-0.31509 0.50846,-0.65168 0.75196,-1.00976 0.24348,-0.35807 0.5371,-0.66601 0.88085,-0.92383 l 0.51563,-0.043 0.42969,0.21485 c 0.17186,0.20052 0.24348,0.45834 0.21484,0.77343 l -0.51562,0.85938 4.33984,-0.043 c 0.0286,-0.34374 0.12889,-0.64453 0.30078,-0.90234 0.20051,-0.17187 0.45832,-0.24349 0.77344,-0.21485 l 0.42969,0.21485 c 0.2005,0.28646 0.27212,0.61589 0.21484,0.98828 l 3.41602,0 0.42968,0.21484 c 0.17186,0.20053 0.24347,0.45834 0.21485,0.77344 l -0.21485,0.42969 c -0.20054,0.14323 -0.41538,0.22917 -0.64453,0.25781 l -3.8457,0 c -0.17189,0.48698 -0.44403,0.95247 -0.81641,1.39648 -0.37241,0.42969 -0.78777,0.85938 -1.24609,1.28906 0.68748,0.14324 1.37498,0.2793 2.0625,0.40821 0.68748,0.1289 1.3535,0.33659 1.99805,0.62304 0.17185,0.20053 0.24347,0.45834 0.21484,0.77344 l -0.21484,0.42969 c -0.25783,0.20052 -0.56578,0.27213 -0.92383,0.21484 -0.8021,-0.25781 -1.62567,-0.45117 -2.47071,-0.58007 -0.84506,-0.12891 -1.68295,-0.29362 -2.51367,-0.49415 -0.91667,0.71615 -1.92644,1.17448 -3.02929,1.375 -1.10288,0.20052 -2.22006,0.35808 -3.35157,0.47266 m 6.25196,-3.73828 c 0.40103,-0.28646 0.78058,-0.60872 1.13867,-0.9668 0.35806,-0.37239 0.71613,-0.80924 1.07422,-1.31054 l -4.91993,0.10742 -0.51562,1.28906 3.22266,0.88086 m 5.9082,-5.95117 -13.0625,-0.0859 c -0.47266,-0.0573 -0.7448,-0.27213 -0.81641,-0.64453 -0.0573,-0.37239 -0.14323,-1.70442 -0.25781,-3.99609 -0.11459,-0.73046 0.17187,-1.08137 0.85938,-1.05274 l 3.1582,-0.043 -0.0859,-1.33203 -3.45898,0.043 c -0.40105,0.0287 -0.75912,-0.0573 -1.07422,-0.25781 -0.17188,-0.22915 -0.24349,-0.50129 -0.21485,-0.81641 l 0.21485,-0.42969 c 0.28645,-0.2005 0.6302,-0.27212 1.03125,-0.21484 7.94921,0.0859 12.38214,0.13608 13.29883,0.15039 0.93097,0.0143 1.81183,0.12176 2.64257,0.32227 0.17186,0.20053 0.24347,0.45835 0.21485,0.77343 l -0.21485,0.42969 -0.42968,0.21484 -4.91993,-0.1289 0,1.24609 c 2.22004,0.0287 3.55923,0.0931 4.01758,0.19336 0.47264,0.0859 0.63019,0.60158 0.47266,1.54688 -0.1146,1.94792 -0.18622,3.14389 -0.21484,3.58789 -0.0287,0.42969 -0.41539,0.59441 -1.16016,0.49414 m -0.51563,-1.76172 0.17188,-2.27734 -2.94336,-0.0859 -0.0645,2.38476 2.83593,-0.0215 m -4.57617,-0.043 0.12891,-2.36328 -3.3086,-0.043 0.19336,2.4707 2.98633,-0.0645 m -4.70508,0.0645 -0.15039,-2.38476 -2.4707,0.043 0.17188,2.27734 2.44921,0.0645 m 5.00586,-4.125 0,-1.24609 -3.73828,-0.043 0.0859,1.24609 3.65234,0.043"
         style=""
         id="path3264" />
      <path
         d="m 451.67886,138.7104 -0.42968,-0.21484 c -0.25783,-0.40104 -0.34376,-0.8737 -0.25782,-1.41797 l 0.043,-3.41601 c -2.52084,0.0286 -3.98178,0.0573 -4.38281,0.0859 -0.38672,0.0286 -0.75196,1e-5 -1.0957,-0.0859 -0.34376,-0.10026 -0.40105,-0.47982 -0.17188,-1.13868 1.64713,-1.18879 2.75716,-1.92642 3.33008,-2.21289 l -1.16016,-1.16015 c -0.21485,-0.34375 -0.14323,-0.70182 0.21485,-1.07422 l 0.98828,-0.90235 -4.79102,0.12891 c -0.22917,-0.0286 -0.42969,-0.11457 -0.60156,-0.25781 -0.17188,-0.20051 -0.24349,-0.45833 -0.21484,-0.77344 l 0.21484,-0.42969 c 0.22916,-0.20051 0.51562,-0.28644 0.85938,-0.25781 l 6.55273,-0.12891 -0.043,-0.90234 -3.22266,0.0859 -0.42968,-0.21485 c -0.17188,-0.2005 -0.2435,-0.46548 -0.21485,-0.79492 l 0.21485,-0.42969 c 0.54426,-0.2005 1.1315,-0.30792 1.76172,-0.32226 0.6302,-0.0143 1.2604,-0.0215 1.89062,-0.0215 l 0,-0.98828 -5.30664,0.17188 -0.51562,-0.25781 c -0.17188,-0.22916 -0.2435,-0.50129 -0.21485,-0.81641 l 0.21485,-0.42969 c 0.57291,-0.22915 1.19595,-0.32941 1.86914,-0.30078 l 3.95312,-0.043 c -0.0573,-0.40102 0.0143,-0.74477 0.21484,-1.03125 0.22916,-0.17186 0.5013,-0.24347 0.81641,-0.21484 l 0.42969,0.21484 c 0.20051,0.28648 0.27212,0.6159 0.21484,0.98828 l 4.70508,-0.043 c 0.48696,2e-5 0.9453,0.10028 1.375,0.30079 0.17186,0.20053 0.24347,0.45835 0.21484,0.77343 l -0.21484,0.42969 c -0.34377,0.22918 -0.75913,0.31512 -1.24609,0.25781 l -4.83399,-0.043 0,1.11719 c 0.54426,0.0573 1.11002,0.0788 1.69727,0.0645 0.58722,-0.0143 1.12433,0.0645 1.61133,0.23632 0.17186,0.22918 0.24347,0.50848 0.21484,0.83789 l -0.21484,0.42969 c -0.40106,0.22918 -0.87372,0.30079 -1.41797,0.21485 l -1.89063,-0.0859 0.043,0.90234 6.5957,0 c 0.40103,0.0287 0.77342,0.14324 1.11719,0.34375 0.17186,0.20053 0.24347,0.45835 0.21485,0.77344 l -0.21485,0.42969 c -0.22918,0.14324 -0.47267,0.22917 -0.73047,0.25781 l -7.71289,-0.17188 -2.14844,1.54688 1.07422,0.85937 c 0.57291,-0.31509 1.13866,-0.63736 1.69727,-0.96679 0.55858,-0.32942 1.1673,-0.52278 1.82617,-0.58008 l 0.42969,0.21484 c 0.17186,0.20053 0.24347,0.45834 0.21484,0.77344 l -0.21484,0.42969 c -0.91668,0.40105 -1.79754,0.84506 -2.64258,1.33203 -0.84506,0.48698 -1.74024,0.88802 -2.68555,1.20312 l 5.75782,-0.043 c -0.25783,-0.34375 -0.37241,-0.70182 -0.34375,-1.07422 l 0.21484,-0.42969 c 0.20051,-0.17187 0.45832,-0.24348 0.77344,-0.21484 l 0.42968,0.21484 c 0.67317,0.83073 1.11001,1.43946 1.31055,1.82617 0.20051,0.38672 0.44399,0.73763 0.73047,1.05274 0.17186,0.22917 0.24347,0.5013 0.21484,0.8164 l -0.21484,0.45117 c -0.20054,0.17188 -0.45835,0.24349 -0.77344,0.21485 l -0.53711,-0.30078 -0.55859,-0.88086 -3.56641,0 0,3.58789 c 0.0286,0.48698 -0.0573,0.91666 -0.25781,1.28906 -0.20053,0.17187 -0.45834,0.24349 -0.77344,0.21484 m -4.08203,-0.90234 c -0.22917,-0.0286 -0.42969,-0.11458 -0.60156,-0.25781 -0.17188,-0.20052 -0.2435,-0.45834 -0.21484,-0.77344 0.20051,-0.42969 0.444,-0.83789 0.73046,-1.22461 0.28646,-0.38672 0.54427,-0.7806 0.77344,-1.18164 0.25781,-0.21484 0.55859,-0.29362 0.90235,-0.23633 l 0.42968,0.23633 c 0.17187,0.20052 0.24348,0.45833 0.21485,0.77344 l -1.58985,2.40625 c -0.20052,0.14323 -0.41537,0.22916 -0.64453,0.25781 m 9.45313,0 c -0.487,-0.20052 -0.93817,-0.5013 -1.35352,-0.90234 -0.41538,-0.40105 -0.86655,-0.71615 -1.35351,-0.94532 -0.17189,-0.20052 -0.24351,-0.45833 -0.21485,-0.77343 l 0.21485,-0.42969 c 0.22915,-0.20052 0.51561,-0.27213 0.85937,-0.21485 0.34374,0.14324 0.67316,0.35092 0.98828,0.62305 0.31509,0.27214 0.82355,0.66602 1.52539,1.18164 0.17186,0.20052 0.24348,0.45834 0.21485,0.77344 l -0.21485,0.42969 c -0.20053,0.14323 -0.42254,0.22916 -0.66601,0.25781"
         style=""
         id="path3266" />
      <path
         d="m 475.99918,136.6479 c -0.22918,-0.0286 -0.4297,-0.11458 -0.60157,-0.25781 -0.20053,-0.22917 -0.28647,-0.5013 -0.25781,-0.81641 l 0.21484,-0.42968 c 0.51562,-0.11458 1.00976,-0.26497 1.48243,-0.45117 0.47264,-0.20052 0.91665,-0.47982 1.33203,-0.8379 0.41535,-0.35807 0.70897,-0.77343 0.88086,-1.24609 0.17186,-0.47265 0.32941,-0.94531 0.47265,-1.41797 0.14322,-0.47265 0.20767,-1.0026 0.19336,-1.58984 -0.0143,-0.58723 -0.20053,-1.1315 -0.55859,-1.63281 -0.35809,-0.5013 -0.75197,-0.92382 -1.18164,-1.26758 -0.4297,-0.34374 -0.85223,-0.60872 -1.26758,-0.79492 -0.41538,-0.18619 -0.85223,-0.32226 -1.31055,-0.40821 -0.51563,1.8047 -1.1172,3.58074 -1.80468,5.32813 -0.68751,1.7474 -1.46095,3.47331 -2.32032,5.17773 -0.31511,0.20052 -0.67318,0.28646 -1.07422,0.25781 -0.42969,-0.0859 -0.83789,-0.26497 -1.2246,-0.5371 -0.37241,-0.27214 -0.80925,-0.68034 -1.31055,-1.22461 -0.50131,-0.5586 -0.931,-1.29622 -1.28906,-2.21289 -0.35808,-0.91667 -0.48699,-1.81901 -0.38672,-2.70704 0.10025,-0.88801 0.30794,-1.64712 0.62304,-2.27734 0.3151,-0.6302 0.76628,-1.21744 1.35352,-1.76172 0.58723,-0.54426 1.28906,-0.95962 2.10547,-1.24609 0.83072,-0.28645 1.65429,-0.45832 2.4707,-0.51563 0.8164,-0.0573 1.62564,-0.0573 2.42774,0 0.80207,0.0573 1.51105,0.2077 2.12695,0.45117 0.61587,0.24351 1.38214,0.72332 2.29883,1.43946 0.93097,0.71615 1.51105,1.53256 1.74023,2.44922 0.22915,0.91667 0.27928,1.78321 0.15039,2.59961 -0.12892,0.81641 -0.30796,1.56836 -0.53711,2.25586 -0.22918,0.6875 -0.65887,1.32487 -1.28906,1.9121 -0.6159,0.57292 -1.18882,0.99545 -1.71875,1.26758 -0.52996,0.27214 -1.11004,0.43685 -1.74023,0.49414 m -2.36329,-11.27929 c -1.34636,0.11459 -2.3418,0.28647 -2.98632,0.51562 -0.64454,0.22918 -1.19597,0.58725 -1.6543,1.07422 -0.44402,0.48699 -0.80209,1.00977 -1.07422,1.56836 -0.27214,0.5586 -0.3724,1.16732 -0.30078,1.82617 0.0716,0.65886 0.25065,1.2461 0.53711,1.76172 0.28645,0.51563 0.59439,0.98829 0.92383,1.41797 0.34374,0.42969 0.71614,0.74479 1.11718,0.94531 1.51822,-3.48046 2.66406,-6.51692 3.4375,-9.10937"
         style=""
         id="path3268" />
      <path
         d="m 500.83511,138.23775 c -1.57553,-0.15756 -3.15105,-0.31511 -4.72656,-0.47266 -1.57553,-0.14323 -3.1224,-0.30794 -4.64062,-0.49414 -1.51824,-0.17188 -2.59962,-0.17904 -3.24414,-0.0215 -0.64454,0.17187 -1.16016,0.28645 -1.54688,0.34375 l -0.45117,-0.21485 c -0.1862,-0.21484 -0.26498,-0.48698 -0.23633,-0.8164 l 0.23633,-0.47266 c 0.38672,-0.20052 0.77343,-0.37956 1.16015,-0.53711 0.40104,-0.15755 0.76628,-0.37239 1.09571,-0.64453 0.34374,-0.28646 0.52278,-0.64453 0.53711,-1.07422 0.0143,-0.44401 -0.14324,-0.93815 -0.47266,-1.48242 -0.31511,-0.54427 -0.43685,-0.99544 -0.36523,-1.35352 0.0859,-0.37239 0.22916,-0.75194 0.42968,-1.13867 0.20052,-0.40103 0.42253,-0.80207 0.66602,-1.20312 l -2.83594,0 c -0.24349,-0.0286 -0.45117,-0.11458 -0.62304,-0.25782 -0.1862,-0.21483 -0.26498,-0.48697 -0.23633,-0.8164 l 0.23633,-0.45117 0.45117,-0.23633 5.47851,0.043 c 0.61588,0.14323 0.84505,0.49415 0.6875,1.05273 -1.33203,1.17449 -2.09831,1.94076 -2.29883,2.29883 -0.20052,0.34375 -0.22201,0.73763 -0.0645,1.18164 0.15755,0.42969 0.34375,0.88086 0.5586,1.35351 0.21483,0.47266 0.27212,0.95248 0.17187,1.43946 -0.0859,0.47266 -0.29363,0.91667 -0.62305,1.33203 2.16276,0.0573 4.36848,0.28646 6.61719,0.6875 2.26301,0.38672 4.76952,0.34375 7.51953,-0.12891 l 0.45117,0.21485 c 0.18618,0.21484 0.26496,0.48698 0.23633,0.8164 l -0.23633,0.45117 c -0.57293,0.27214 -1.19598,0.44401 -1.86914,0.51563 -0.65887,0.0859 -1.34637,0.11458 -2.0625,0.0859 m 1.52539,-2.27735 -1.93359,-1.89062 c -0.18621,-0.21484 -0.25783,-0.48698 -0.21484,-0.81641 l 0.21484,-0.45117 c 0.24347,-0.18619 0.52993,-0.26497 0.85938,-0.23633 l 0.47265,0.23633 1.61133,1.89063 0.043,0.58007 -0.23633,0.47266 c -0.21486,0.17188 -0.487,0.24349 -0.81641,0.21484 m -6.83203,-0.1289 c -0.2435,-0.0286 -0.45834,-0.12175 -0.64453,-0.2793 -0.18621,-0.21484 -0.26498,-0.48698 -0.23633,-0.81641 l 0.23633,-0.47265 c 0.75911,-0.88802 1.28905,-1.43229 1.58985,-1.63281 l 0.60156,-0.0645 0.45117,0.23633 c 0.17186,0.21485 0.24348,0.48698 0.21484,0.81641 l -0.21484,0.45117 -1.33203,1.48242 c -0.20053,0.15755 -0.42254,0.25065 -0.66602,0.2793 m -1.65429,-3.48047 -0.58008,-0.32227 c -0.12892,-0.15754 -0.17189,-0.3509 -0.12891,-0.58008 0.0859,-0.21483 0.23632,-0.37239 0.45117,-0.47265 l 2.94336,0 -0.043,-1.58985 c -0.54428,0.10027 -1.03126,0.0287 -1.46093,-0.21484 -0.1146,-0.15754 -0.15757,-0.35806 -0.12891,-0.60156 0.1289,-0.24348 0.30793,-0.4082 0.53711,-0.49414 l 1.00977,-0.043 c 0.0286,-0.24348 0.12173,-0.45833 0.27929,-0.64453 0.21483,-0.17187 0.48697,-0.24348 0.81641,-0.21485 l 0.45117,0.21485 c 0.18618,0.21485 0.26496,0.45834 0.23633,0.73047 l 1.71875,0 c 0.0286,-0.21484 0.1074,-0.39387 0.23633,-0.53711 0.2005,-0.18619 0.47264,-0.26497 0.8164,-0.23633 l 0.45117,0.23633 0.21485,0.45117 c 0.41535,-0.0286 0.77342,0.0645 1.07422,0.2793 0.12889,0.14323 0.17902,0.33659 0.15039,0.58007 -0.10028,0.21486 -0.25783,0.36525 -0.47266,0.45118 l -0.79492,0.043 -0.0859,1.58985 2.70703,-0.0859 c 0.21483,0.10027 0.36522,0.25066 0.45118,0.45117 l 0,0.40821 c -0.086,0.21484 -0.23635,0.3724 -0.45118,0.47265 l -10.39843,0.12891 m 5.92968,-1.31055 0,-0.36523 0.0859,-1.2461 -1.58984,0 0.043,1.61133 1.46093,0 m 2.23438,-3.97461 c -0.42971,-0.0286 -0.83791,-0.10025 -1.22461,-0.21484 -0.37241,-0.1289 -0.73765,-0.41536 -1.0957,-0.85938 -0.34377,-0.45832 -0.49416,-0.99543 -0.45118,-1.61132 0.043,-0.6302 0.0788,-1.06705 0.10743,-1.31055 0.0429,-0.2578 0.24347,-0.38671 0.60156,-0.38672 l 3.75976,0.043 0,-1.71875 -3.58789,0.0859 -0.49414,-0.21485 c -0.14324,-0.18618 -0.20053,-0.41535 -0.17187,-0.6875 0.0859,-0.21482 0.25063,-0.37954 0.49414,-0.49414 l 4.33984,0 c 0.52993,-0.0143 0.77342,0.25783 0.73047,0.81641 l -0.043,2.70703 c 0.0429,0.60157 -0.21486,0.90236 -0.77344,0.90234 l -3.5664,-0.0859 c 0.0143,0.70183 0.14321,1.153 0.38672,1.35351 0.25779,0.18621 0.58722,0.29363 0.98828,0.32227 0.40102,0.0286 0.80206,0.007 1.20312,-0.0645 0.41535,-0.0859 0.8522,-0.14321 1.31055,-0.17187 0.21482,0.10027 0.36521,0.25782 0.45117,0.47265 l 0,0.40821 c -0.086,0.20053 -0.23635,0.35092 -0.45117,0.45117 -0.37242,0.14324 -0.77346,0.23634 -1.20312,0.2793 -0.41539,0.0286 -0.85224,0.0215 -1.31055,-0.0215 m -6.91797,-0.21484 c -0.58725,-0.0286 -1.07423,-0.23632 -1.46094,-0.62305 -0.3724,-0.40103 -0.5586,-0.8522 -0.55859,-1.35351 -10e-6,-0.50129 -10e-6,-1.00976 0,-1.52539 0.043,-0.58723 0.2578,-0.88085 0.64453,-0.88086 l 3.82422,0 0.0859,-1.58985 -4.14649,-0.0645 c -0.20053,-0.0859 -0.35092,-0.23631 -0.45117,-0.45117 l 0,-0.40821 c 0.10025,-0.21482 0.25064,-0.36521 0.45117,-0.45117 3.12239,-0.0286 4.85546,-0.007 5.19922,0.0645 0.35806,0.0716 0.48696,0.35808 0.38672,0.85937 -0.10028,0.487 -0.15757,1.0241 -0.17188,1.61133 -10e-6,0.58725 -0.0501,1.05275 -0.15039,1.39648 -0.10027,0.32944 -0.36524,0.46551 -0.79492,0.40821 l -3.54492,-0.043 c -0.043,0.47267 0.0286,0.90951 0.21484,1.31054 0.20051,0.38673 0.63736,0.52996 1.31055,0.42969 0.67317,-0.10025 1.34634,-0.22199 2.01953,-0.36523 0.21483,0.0859 0.36522,0.23634 0.45117,0.45117 l 0,0.45117 c -0.0859,0.21486 -0.23634,0.36525 -0.45117,0.45117 -0.45834,0.0859 -0.931,0.16473 -1.41797,0.23633 -0.48699,0.0573 -0.9668,0.0859 -1.43945,0.0859 m -4.87695,-1.54688 c -0.61589,-0.21483 -1.23894,-0.40819 -1.86914,-0.58007 -0.61589,-0.18619 -1.2461,-0.37239 -1.89063,-0.5586 -0.17188,-0.24348 -0.24349,-0.52993 -0.21484,-0.85937 l 0.21484,-0.47266 c 0.27213,-0.21483 0.60872,-0.29361 1.00977,-0.23633 0.57291,0.15757 1.14583,0.32228 1.71875,0.49414 0.58723,0.17189 1.16015,0.3939 1.71875,0.66602 0.18619,0.21485 0.2578,0.48699 0.21484,0.8164 l -0.21484,0.45118 c -0.21485,0.15756 -0.44402,0.25066 -0.6875,0.27929"
         style=""
         id="path3270" />
      <path
         d="m 513.38199,138.19478 c -0.51563,-0.17188 -0.99545,-0.4655 -1.43945,-0.88086 -0.4297,-0.41537 -0.85938,-0.82357 -1.28907,-1.22461 -0.20052,-0.22917 -0.28646,-0.5013 -0.25781,-0.81641 l 0.21484,-0.42968 c 0.20052,-0.17188 0.45833,-0.24349 0.77344,-0.21485 0.40104,0.25782 0.79492,0.5586 1.18164,0.90235 l -0.1289,-4.53321 c -0.61589,0.14324 -1.18881,0.30079 -1.71875,0.47266 -0.52996,0.17188 -1.08139,0.28646 -1.6543,0.34375 l -0.42969,-0.21484 c -0.17188,-0.20052 -0.24349,-0.45833 -0.21484,-0.77344 l 0.21484,-0.42969 c 0.60156,-0.22916 1.21745,-0.42968 1.84766,-0.60156 0.6302,-0.17187 1.26757,-0.35807 1.91211,-0.5586 l -0.0859,-5.11328 -2.81445,-0.043 c -0.22917,-0.0286 -0.42969,-0.11457 -0.60157,-0.25781 -0.17187,-0.21483 -0.24349,-0.4798 -0.21484,-0.79492 l 0.21484,-0.42969 0.42969,-0.21484 2.83594,0.043 c -10e-6,-0.48697 -10e-6,-0.96678 0,-1.43946 -10e-6,-0.47264 0.10742,-0.90948 0.32226,-1.31054 0.20052,-0.17186 0.45833,-0.24348 0.77344,-0.21485 l 0.42969,0.21485 c 0.20051,0.22918 0.28645,0.50132 0.25781,0.8164 l -0.0859,1.97657 1.84766,0 0.42969,0.21484 c 0.17186,0.20053 0.24348,0.45835 0.21484,0.77344 l -0.21484,0.45117 c -0.28647,0.20053 -0.62306,0.29363 -1.00977,0.2793 -0.38672,-0.0143 -0.76628,-0.0215 -1.13867,-0.0215 l 0.0859,4.42578 c 0.48697,-0.11457 0.91666,-0.18619 1.28906,-0.21484 l 0.47266,0.25781 c 0.17186,0.20053 0.24348,0.45834 0.21484,0.77344 l -0.21484,0.42969 c -0.57293,0.20052 -1.14584,0.38672 -1.71875,0.55859 l 0.17187,7.11133 c 0.0716,0.51562 -0.22917,0.74479 -0.90234,0.6875 m 2.44922,-0.043 -0.42969,-0.21484 c -0.20053,-0.25782 -0.27214,-0.5586 -0.21484,-0.90235 0.71613,-1.96224 1.23176,-3.96028 1.54687,-5.99414 0.31509,-2.03384 0.46549,-3.75259 0.45117,-5.15625 -10e-6,-1.40363 -0.0215,-2.82876 -0.0644,-4.27539 0.043,-0.67316 0.19335,-1.02407 0.45117,-1.05273 0.27213,-0.043 2.87889,-0.0931 7.82031,-0.15039 0.61587,-0.043 0.97394,0.20053 1.07422,0.73046 -0.1146,3.39455 -0.18621,5.29949 -0.21484,5.71485 -0.0287,0.40105 -0.50132,0.56576 -1.41797,0.49414 l -2.72852,0 c 0.45832,1.08855 0.95246,2.32032 1.48243,3.69531 0.54425,1.37501 1.05271,2.49219 1.52539,3.35156 0.47263,0.84506 0.82355,1.45378 1.05273,1.82618 0.22915,0.37239 0.37238,0.78776 0.42969,1.24609 l -0.21484,0.42969 c -0.20055,0.17187 -0.45836,0.24349 -0.77344,0.21484 l -0.42969,-0.21484 c -1.1172,-1.71875 -2.06252,-3.52344 -2.83594,-5.41407 -0.75913,-1.90494 -1.41082,-3.63085 -1.95508,-5.17773 l -1.5039,0 c -0.1146,1.51824 -0.35092,3.22266 -0.70899,5.11328 -0.35808,1.87631 -0.88087,3.7168 -1.56836,5.52149 -0.20053,0.17187 -0.45834,0.24348 -0.77343,0.21484 m 8.95898,-15.94141 -5.9082,-0.043 0.043,3.45899 5.65039,0.043 0.21484,-3.45899"
         style=""
         id="path3272" />
      <path
         d="m 540.0441,138.5815 c -0.21486,-0.0286 -0.40822,-0.11459 -0.58008,-0.25782 -0.17189,-0.18619 -0.2435,-0.43685 -0.21484,-0.75195 l 0.21484,-0.4082 c 1.23176,-0.93099 2.28449,-1.90495 3.1582,-2.92188 -0.38673,-0.67317 -0.8379,-1.26757 -1.35351,-1.7832 -0.50132,-0.51562 -0.86655,-1.10286 -1.09571,-1.76172 l 0.21485,-0.4082 c 0.22915,-0.17187 0.50129,-0.24348 0.8164,-0.21485 l 0.42969,0.21485 c 1.17447,1.48959 1.89061,2.33464 2.14844,2.53515 0.44399,-0.75911 0.87368,-1.51822 1.28906,-2.27734 0.41535,-0.75911 0.74478,-1.56119 0.98828,-2.40625 l -5.6289,-0.12891 c -0.22918,-0.0286 -0.42254,-0.10741 -0.58008,-0.23632 -0.17189,-0.21484 -0.2435,-0.47265 -0.21485,-0.77344 l 0.21485,-0.42969 0.4082,-0.21484 3.09375,0.0859 -0.1289,-2.79297 -3.50196,0 c -0.28647,-0.0143 -0.55144,-0.10741 -0.79492,-0.2793 -0.17188,-0.21483 -0.2435,-0.47264 -0.21484,-0.77344 l 0.21484,-0.42969 c 0.24348,-0.18618 0.5371,-0.25779 0.88086,-0.21484 l 3.33008,0.043 0.043,-1.35352 c 0.0286,-0.22915 0.11457,-0.42251 0.25781,-0.58007 0.2005,-0.17186 0.45832,-0.24348 0.77344,-0.21485 l 0.4082,0.21485 c 0.27212,0.55861 0.36522,1.18881 0.2793,1.89062 l 2.36328,-0.0215 c 0.58722,1e-5 1.10284,0.12176 1.54687,0.36523 0.18618,0.20054 0.25779,0.45119 0.21485,0.75195 l -0.21485,0.45118 c -0.21486,0.18621 -0.49416,0.25066 -0.83789,0.19336 l -3.07226,-0.0645 0.0859,2.85742 c 1.51822,-0.0429 2.44204,-0.0286 2.77149,0.043 0.32941,0.0573 0.41534,0.45835 0.25781,1.20313 -0.3008,1.08855 -0.71616,2.14844 -1.24609,3.17969 -0.51565,1.01693 -1.12437,2.07682 -1.82617,3.17968 1.48956,1.44662 2.65688,2.37761 3.50195,2.79297 0.18618,0.24349 0.26495,0.51563 0.23633,0.81641 l -0.19336,0.42969 c -0.20054,0.15755 -0.45119,0.222 -0.75196,0.19335 -0.73048,-0.27213 -1.41798,-0.69466 -2.0625,-1.26757 -0.64454,-0.5586 -1.27475,-1.11719 -1.89062,-1.67578 l -2.75,2.85742 c -0.28647,0.22916 -0.6159,0.34375 -0.98828,0.34375 m -3.41602,-0.30078 c -0.41537,-0.10027 -0.77344,-0.32227 -1.07422,-0.66602 -0.44401,-0.38672 -0.6875,-0.85221 -0.73047,-1.39648 l 0.19336,-0.42969 c 0.20052,-0.15755 0.45833,-0.22201 0.77344,-0.19336 l 0.30078,0.0644 -0.043,-5.45703 -2.92187,0.0859 c -0.0573,1.31771 -0.20053,2.61393 -0.42969,3.88867 -0.21485,1.27474 -0.60156,2.50651 -1.16015,3.69531 -0.18621,0.17188 -0.43686,0.24349 -0.75196,0.21485 l -0.4082,-0.21485 c -0.17188,-0.22916 -0.24349,-0.49414 -0.21484,-0.79492 0.67317,-1.83333 1.0957,-3.73112 1.26757,-5.69336 0.1862,-1.96223 0.32943,-3.55207 0.42969,-4.76953 0.11458,-1.23176 0.14323,-2.2272 0.0859,-2.98633 -0.043,-0.77342 -0.0645,-1.36782 -0.0644,-1.7832 -10e-6,-0.41535 -0.0143,-0.83071 -0.043,-1.24609 -0.0143,-0.41535 0.0931,-0.65168 0.32226,-0.70899 0.22917,-0.0573 0.60156,-0.043 1.11719,0.043 2.6927,0.0859 4.15364,0.14325 4.38281,0.17187 0.24348,0.0287 0.3509,0.35809 0.32227,0.98829 l -0.25781,16.07031 c -0.0287,0.32942 -0.10744,0.60872 -0.23633,0.83789 -0.12892,0.24349 -0.41538,0.33659 -0.85938,0.2793 m -0.49414,-9.71094 0,-1.91211 -2.64258,0 -0.0859,1.99805 2.72851,-0.0859 m 0.12891,-3.50195 -0.043,-3.39454 -2.68555,-0.043 0.043,3.39453 2.68555,0.043"
         style=""
         id="path3274" />
      <path
         d="m 563.99918,136.6479 c -0.22918,-0.0286 -0.4297,-0.11458 -0.60157,-0.25781 -0.20053,-0.22917 -0.28647,-0.5013 -0.25781,-0.81641 l 0.21484,-0.42968 c 0.51562,-0.11458 1.00976,-0.26497 1.48243,-0.45117 0.47264,-0.20052 0.91665,-0.47982 1.33203,-0.8379 0.41535,-0.35807 0.70897,-0.77343 0.88086,-1.24609 0.17186,-0.47265 0.32941,-0.94531 0.47265,-1.41797 0.14322,-0.47265 0.20767,-1.0026 0.19336,-1.58984 -0.0143,-0.58723 -0.20053,-1.1315 -0.55859,-1.63281 -0.35809,-0.5013 -0.75197,-0.92382 -1.18164,-1.26758 -0.4297,-0.34374 -0.85223,-0.60872 -1.26758,-0.79492 -0.41538,-0.18619 -0.85223,-0.32226 -1.31055,-0.40821 -0.51563,1.8047 -1.1172,3.58074 -1.80468,5.32813 -0.68751,1.7474 -1.46095,3.47331 -2.32032,5.17773 -0.31511,0.20052 -0.67318,0.28646 -1.07422,0.25781 -0.42969,-0.0859 -0.83789,-0.26497 -1.2246,-0.5371 -0.37241,-0.27214 -0.80925,-0.68034 -1.31055,-1.22461 -0.50131,-0.5586 -0.931,-1.29622 -1.28906,-2.21289 -0.35808,-0.91667 -0.48699,-1.81901 -0.38672,-2.70704 0.10025,-0.88801 0.30794,-1.64712 0.62304,-2.27734 0.3151,-0.6302 0.76628,-1.21744 1.35352,-1.76172 0.58723,-0.54426 1.28906,-0.95962 2.10547,-1.24609 0.83072,-0.28645 1.65429,-0.45832 2.4707,-0.51563 0.8164,-0.0573 1.62564,-0.0573 2.42774,0 0.80207,0.0573 1.51105,0.2077 2.12695,0.45117 0.61587,0.24351 1.38214,0.72332 2.29883,1.43946 0.93097,0.71615 1.51105,1.53256 1.74023,2.44922 0.22915,0.91667 0.27928,1.78321 0.15039,2.59961 -0.12892,0.81641 -0.30796,1.56836 -0.53711,2.25586 -0.22918,0.6875 -0.65887,1.32487 -1.28906,1.9121 -0.6159,0.57292 -1.18882,0.99545 -1.71875,1.26758 -0.52996,0.27214 -1.11004,0.43685 -1.74023,0.49414 m -2.36329,-11.27929 c -1.34636,0.11459 -2.3418,0.28647 -2.98632,0.51562 -0.64454,0.22918 -1.19597,0.58725 -1.6543,1.07422 -0.44402,0.48699 -0.80209,1.00977 -1.07422,1.56836 -0.27214,0.5586 -0.3724,1.16732 -0.30078,1.82617 0.0716,0.65886 0.25065,1.2461 0.53711,1.76172 0.28645,0.51563 0.59439,0.98829 0.92383,1.41797 0.34374,0.42969 0.71614,0.74479 1.11718,0.94531 1.51822,-3.48046 2.66406,-6.51692 3.4375,-9.10937"
         style=""
         id="path3276" />
      <path
         d="m 584.19449,138.88228 -0.42969,-0.21485 c -0.22918,-0.34375 -0.32944,-0.73047 -0.30078,-1.16015 l 0,-2.32031 c -0.97397,0.65885 -1.96225,1.26757 -2.96484,1.82617 -1.00262,0.55859 -2.05535,0.98112 -3.15821,1.26758 l -0.42968,-0.21485 c -0.17188,-0.20052 -0.2435,-0.45833 -0.21485,-0.77344 l 0.21485,-0.42968 c 0.77343,-0.3724 1.54686,-0.74479 2.32031,-1.11719 0.78775,-0.37239 1.55403,-0.85937 2.29883,-1.46094 l -5.04883,0.043 c -0.57292,-0.0286 -1.10287,-0.16471 -1.58985,-0.4082 -0.17187,-0.20052 -0.24349,-0.45833 -0.21484,-0.77344 l 0.21484,-0.42969 c 0.28646,-0.20051 0.64453,-0.27213 1.07422,-0.21484 l 7.32617,0.0859 -0.043,-1.41797 c -3.73829,0.0573 -5.75782,0.043 -6.0586,-0.043 -0.30078,-0.0859 -0.47982,-0.42968 -0.53711,-1.03125 l -0.0859,-6.10156 c -0.20053,0.31511 -0.42253,0.62306 -0.66602,0.92382 -0.24349,0.3008 -0.45117,0.62306 -0.62305,0.9668 -0.20052,0.17189 -0.45833,0.2435 -0.77343,0.21485 l -0.42969,-0.21485 c -0.17188,-0.22915 -0.24349,-0.50129 -0.21485,-0.8164 0.71615,-1.03124 1.40365,-2.06249 2.0625,-3.09375 0.65885,-1.04556 1.33203,-2.0983 2.01954,-3.15821 0.28645,-0.28644 0.63736,-0.40102 1.05273,-0.34375 l 0.42969,0.21485 c 0.17187,0.20053 0.24348,0.45835 0.21484,0.77343 l -0.21484,0.42969 -1.13867,1.54688 4.83398,0.0859 c 0.20051,-0.45831 0.47265,-0.888 0.81641,-1.28906 0.34373,-0.40102 0.65884,-0.80207 0.94531,-1.20312 0.20051,-0.17186 0.45832,-0.24348 0.77344,-0.21485 l 0.42968,0.21485 c 0.20051,0.22918 0.27213,0.51564 0.21485,0.85937 l -1.16016,1.63281 c 4.31118,0.0287 6.65298,0.12892 7.02539,0.30078 0.17186,0.20054 0.24347,0.45835 0.21485,0.77344 l -0.21485,0.42969 c -0.31512,0.21486 -0.67319,0.30796 -1.07422,0.2793 l -6.25195,-0.0859 0.043,1.03125 c 2.66405,0.0573 4.21092,0.0931 4.64062,0.10742 0.444,0.0143 0.8522,0.10743 1.22461,0.2793 0.17186,0.20053 0.24347,0.45834 0.21485,0.77344 l -0.21485,0.42968 c -0.25783,0.17189 -0.54429,0.25783 -0.85937,0.25782 l -4.91992,-0.17188 0.043,0.81641 c 1.83332,0.0573 2.99348,0.10027 3.48047,0.1289 0.48697,0.0287 0.95246,0.12892 1.39649,0.30078 0.17186,0.20053 0.24347,0.45835 0.21484,0.77344 l -0.21484,0.42969 c -0.22919,0.17188 -0.49416,0.25782 -0.79492,0.25781 -0.68752,-0.11457 -2.0482,-0.18619 -4.08204,-0.21484 l 0,1.03125 4.61915,0.043 c 0.74477,0.0286 1.43227,0.17188 2.0625,0.42968 0.17185,0.20053 0.24347,0.45834 0.21484,0.77344 l -0.21484,0.42969 c -0.22919,0.17188 -0.487,0.25782 -0.77344,0.25781 l -5.99414,-0.25781 0.043,1.50391 c 3.1367,0.0573 5.06313,0.11458 5.77929,0.17187 0.71613,0.0573 1.38931,0.20052 2.01953,0.42969 0.17186,0.20052 0.24347,0.45833 0.21485,0.77344 l -0.21485,0.45117 c -0.22918,0.17187 -0.48699,0.25781 -0.77343,0.25781 -0.83075,-0.14323 -1.66864,-0.24349 -2.51368,-0.30078 -0.83074,-0.0573 -1.69011,-0.0859 -2.57812,-0.0859 0.80207,0.45834 1.62563,0.85938 2.4707,1.20313 0.85936,0.34375 1.70441,0.6875 2.53516,1.03125 0.17185,0.20052 0.24347,0.45833 0.21484,0.77343 l -0.21484,0.42969 c -0.22919,0.20052 -0.51564,0.27213 -0.85938,0.21484 -1.00262,-0.37239 -1.99806,-0.76627 -2.98632,-1.18164 -0.97398,-0.41536 -1.94793,-0.86653 -2.92188,-1.35351 l 0.043,2.79297 -0.21484,0.42968 c -0.20054,0.17188 -0.45835,0.24349 -0.77344,0.21485 m -0.90235,-9.43164 0.043,-0.98828 -4.96289,0.17187 0.0645,0.85938 4.85546,-0.043 m 0.043,-2.66406 -0.043,-0.81641 -4.91992,0.043 0,0.94531 4.96289,-0.17187 m -0.1289,-2.49219 -0.043,-1.07422 -4.83399,-0.10742 0,1.22461 4.87696,-0.043"
         style=""
         id="path3278" />
      <path
         d="m 610.40543,137.42134 -8.89454,0 c -0.35807,0.0143 -0.5944,-0.0788 -0.70898,-0.2793 -0.10027,-0.18619 -0.25782,-2.49934 -0.47266,-6.93945 0.043,-0.55859 0.32226,-0.9095 0.83789,-1.05273 6.58853,0.0286 10.00455,0.0645 10.24805,0.10742 0.2578,0.043 0.40103,0.25782 0.42969,0.64453 0.0286,0.38672 -0.0358,1.58985 -0.19336,3.60937 -0.15757,2.00521 -0.26499,3.15821 -0.32227,3.45899 -0.0573,0.3151 -0.36525,0.46549 -0.92382,0.45117 m -0.6875,-1.71875 0.34375,-4.79101 -8.03516,-0.0859 0.21484,4.87695 7.47657,0 m -12.86914,-5.99414 -0.42969,-0.21484 c -0.17188,-0.20052 -0.24349,-0.45833 -0.21485,-0.77344 1.00261,-1.40364 2.09115,-2.76431 3.26563,-4.08203 1.1888,-1.33202 2.75715,-3.11522 4.70508,-5.34961 0.47264,-0.50129 1.02408,-0.55858 1.65429,-0.17188 1.36067,1.1745 4.51171,4.04624 9.45313,8.61524 l 0.043,0.51562 -0.21485,0.42969 c -0.22918,0.17188 -0.50132,0.2435 -0.8164,0.21484 l -0.42969,-0.21484 c -4.56902,-4.25389 -7.51238,-6.86782 -8.83008,-7.8418 -1.60417,1.84767 -2.96485,3.38739 -4.08203,4.61914 -1.10287,1.23178 -2.14128,2.50652 -3.11523,3.82422 -0.25782,0.31511 -0.58725,0.45834 -0.98828,0.42969 m 5.65039,-2.32031 c -0.22918,-0.0286 -0.4297,-0.11458 -0.60157,-0.25781 -0.17188,-0.20052 -0.24349,-0.45833 -0.21484,-0.77344 l 0.21484,-0.42969 0.47266,-0.25781 6.01562,-0.043 0.5586,0.25781 c 0.17186,0.20053 0.24347,0.45835 0.21484,0.77344 l -0.21484,0.42969 -0.42969,0.21484 -6.01562,0.0859"
         style=""
         id="path3280" />
    </g>
    <g
       style="font-size:36px;font-style:normal;font-variant:normal;font-weight:normal;font-stretch:normal;text-align:start;line-height:125%;letter-spacing:0px;word-spacing:0px;writing-mode:lr-tb;text-anchor:start;fill:#000000;fill-opacity:1;stroke:none;font-family:Sans;-inkscape-font-specification:Sans"
       id="text2993">
      <path
         d="m 295.11719,283.79077 0,-12.42773 c -2e-5,-1.52343 -0.31056,-2.666 -0.93164,-3.42774 -0.60939,-0.7617 -1.57033,-1.14256 -2.88282,-1.14258 -0.94922,2e-5 -1.7461,0.15237 -2.39062,0.45704 -0.64454,0.3047 -1.16602,0.75587 -1.56445,1.35351 -0.38673,0.59767 -0.66798,1.33009 -0.84375,2.19727 -0.16407,0.8672 -0.2461,1.86329 -0.2461,2.98828 l 0,10.00195 -3.19922,0 0,-19.30078 2.60157,0 0.45703,2.60156 0.17578,0 c 0.29296,-0.50389 0.63866,-0.93748 1.03711,-1.30078 0.41015,-0.37498 0.85546,-0.68553 1.33594,-0.93164 0.48046,-0.24607 0.99022,-0.42771 1.52929,-0.54492 0.53905,-0.11717 1.08983,-0.17576 1.65235,-0.17578 2.14451,2e-5 3.75584,0.56252 4.83398,1.6875 1.08983,1.1133 1.63475,2.9004 1.63477,5.36133 l 0,12.60351 -3.19922,0"
         style=""
         id="path3283" />
      <path
         d="m 315.17383,283.79077 -0.65039,-2.67187 -0.14063,0 c -0.38673,0.52734 -0.77345,0.98437 -1.16015,1.37109 -0.38673,0.375 -0.80861,0.68555 -1.26563,0.93164 -0.45704,0.24609 -0.96681,0.42774 -1.5293,0.54492 -0.5625,0.11719 -1.21289,0.17578 -1.95117,0.17578 -0.8086,0 -1.55274,-0.11718 -2.23242,-0.35156 -0.67969,-0.22265 -1.27149,-0.56836 -1.77539,-1.03711 -0.49219,-0.48047 -0.87891,-1.07812 -1.16016,-1.79297 -0.28125,-0.72656 -0.42187,-1.58202 -0.42187,-2.5664 0,-1.92187 0.67382,-3.39843 2.02148,-4.42969 1.35937,-1.03124 3.42187,-1.59374 6.1875,-1.6875 l 3.23438,-0.12305 0,-1.21289 c -1e-5,-0.78514 -0.0879,-1.44139 -0.26367,-1.96875 -0.16408,-0.52733 -0.41017,-0.9492 -0.73829,-1.26562 -0.31641,-0.32811 -0.71485,-0.56249 -1.19531,-0.70313 -0.46876,-0.14061 -1.00782,-0.21092 -1.61719,-0.21094 -0.97266,2e-5 -1.88086,0.14065 -2.7246,0.42188 -0.83204,0.28127 -1.63477,0.62111 -2.40821,1.01953 l -1.125,-2.4082 c 0.86719,-0.46873 1.83398,-0.86717 2.90039,-1.19531 1.0664,-0.32811 2.18554,-0.49217 3.35742,-0.49219 1.19531,2e-5 2.22656,0.12306 3.09375,0.36914 0.8789,0.23439 1.5996,0.61525 2.16211,1.14258 0.57421,0.51564 1.00194,1.17775 1.28321,1.98632 0.28123,0.80861 0.42186,1.78713 0.42187,2.93555 l 0,13.21875 -2.30273,0 m -5.8711,-2.23242 c 0.71484,0 1.37695,-0.11133 1.98633,-0.33398 0.60937,-0.22266 1.13671,-0.55664 1.58203,-1.00196 0.4453,-0.45703 0.79101,-1.02538 1.03711,-1.70508 0.2578,-0.6914 0.38671,-1.49999 0.38672,-2.42578 l 0,-1.74023 -2.51367,0.12305 c -1.0547,0.0469 -1.93946,0.16407 -2.6543,0.35156 -0.71485,0.18751 -1.28907,0.45118 -1.72265,0.79101 -0.42188,0.32814 -0.72657,0.73243 -0.91407,1.21289 -0.1875,0.46876 -0.28125,1.00196 -0.28125,1.59961 0,1.07813 0.28125,1.86915 0.84375,2.37305 0.57422,0.50391 1.32422,0.75586 2.25,0.75586"
         style=""
         id="path3285" />
      <path
         d="m 325.45703,258.09155 -0.7207,9.28125 -2.02149,0 -0.7207,-9.28125 3.46289,0"
         style=""
         id="path3287" />
      <path
         d="m 337.44531,284.14233 c -1.28907,0 -2.4668,-0.21679 -3.5332,-0.65039 -1.06641,-0.43359 -1.98633,-1.0664 -2.75977,-1.89843 -0.76172,-0.83203 -1.35351,-1.86328 -1.77539,-3.09375 -0.42187,-1.23047 -0.63281,-2.63671 -0.63281,-4.21875 0,-1.59374 0.19336,-3.01757 0.58008,-4.27149 0.38671,-1.25389 0.93164,-2.31444 1.63476,-3.18164 0.70312,-0.87889 1.54101,-1.54686 2.51368,-2.00391 0.98436,-0.45701 2.06835,-0.68552 3.25195,-0.68554 1.16014,2e-5 2.20311,0.21095 3.12891,0.63281 0.92576,0.41018 1.71092,0.99611 2.35546,1.75781 0.64452,0.75002 1.13671,1.65822 1.47657,2.72461 0.35154,1.0547 0.52732,2.22658 0.52734,3.51563 l 0,1.98633 -12.16406,0 c 0.0586,2.26172 0.5332,3.92578 1.42383,4.99218 0.90233,1.06641 2.23827,1.59961 4.00781,1.59961 0.59764,0 1.14842,-0.0293 1.65234,-0.0879 0.51561,-0.0586 1.0078,-0.14062 1.47656,-0.24609 0.48046,-0.11719 0.94335,-0.25781 1.38868,-0.42188 0.44529,-0.17578 0.89647,-0.36913 1.35351,-0.58008 l 0,2.84766 c -0.46876,0.22266 -0.93165,0.41602 -1.38867,0.58008 -0.44533,0.16406 -0.90822,0.29883 -1.38867,0.4043 -0.46876,0.10546 -0.96095,0.18164 -1.47656,0.22851 -0.50392,0.0469 -1.0547,0.0703 -1.65235,0.0703 m -0.79101,-17.34961 c -1.33595,2e-5 -2.39649,0.45705 -3.18164,1.3711 -0.77345,0.91408 -1.22462,2.24415 -1.35352,3.99023 l 8.64844,0 c -2e-5,-0.79686 -0.082,-1.52342 -0.2461,-2.17968 -0.15235,-0.66796 -0.39845,-1.23632 -0.73828,-1.70508 -0.32813,-0.46874 -0.75001,-0.83202 -1.26562,-1.08985 -0.51564,-0.25779 -1.13673,-0.3867 -1.86328,-0.38672"
         style=""
         id="path3289" />
      <path
         d="m 367.15234,264.13843 c 1.10155,2e-5 2.10351,0.21095 3.00586,0.63281 0.90233,0.42189 1.66991,1.05471 2.30274,1.89844 0.64451,0.83205 1.14256,1.86915 1.49414,3.11133 0.35154,1.2422 0.52732,2.6836 0.52734,4.32421 -2e-5,1.65236 -0.1758,3.10548 -0.52734,4.35938 -0.35158,1.24219 -0.84963,2.28516 -1.49414,3.12891 -0.63283,0.84375 -1.40041,1.48242 -2.30274,1.91601 -0.90235,0.42188 -1.90431,0.63281 -3.00586,0.63281 -0.69141,0 -1.31837,-0.0762 -1.88086,-0.22851 -0.5625,-0.15235 -1.07227,-0.35156 -1.52929,-0.59766 -0.44532,-0.25781 -0.84376,-0.55664 -1.19532,-0.89648 -0.33985,-0.33984 -0.64453,-0.69727 -0.91406,-1.07227 l -0.21094,0 -0.65039,2.44336 -2.33789,0 0,-27.35156 3.19922,0 0,6.60937 c 0,0.41018 -0.006,0.84963 -0.0176,1.31836 -0.0117,0.45705 -0.0293,0.88479 -0.0527,1.28321 -0.0234,0.46876 -0.0469,0.92579 -0.0703,1.37109 l 0.14062,0 c 0.26953,-0.41014 0.57421,-0.791 0.91406,-1.14258 0.33984,-0.35154 0.73242,-0.65623 1.17774,-0.91406 0.45702,-0.25779 0.96679,-0.45701 1.5293,-0.59766 0.56249,-0.15232 1.1953,-0.22849 1.89843,-0.22851 m -0.61523,2.65429 c -0.93751,2e-5 -1.72267,0.15237 -2.35547,0.45704 -0.6211,0.29298 -1.12501,0.74415 -1.51172,1.35351 -0.37501,0.60939 -0.64454,1.37111 -0.80859,2.28516 -0.15235,0.91407 -0.22852,1.98634 -0.22852,3.21679 0,1.18361 0.0762,2.23829 0.22852,3.16407 0.16405,0.91407 0.43358,1.6875 0.80859,2.32031 0.38671,0.6211 0.89648,1.09571 1.5293,1.42383 0.6328,0.31641 1.42382,0.47461 2.37305,0.47461 1.58201,0 2.74217,-0.63867 3.48046,-1.91602 0.74999,-1.27734 1.12499,-3.11132 1.125,-5.50195 -10e-6,-2.43749 -0.37501,-4.25975 -1.125,-5.4668 -0.73829,-1.20701 -1.91016,-1.81053 -3.51562,-1.81055"
         style=""
         id="path3291" />
      <path
         d="m 387.87695,264.13843 c 0.33984,2e-5 0.72069,0.0176 1.14258,0.0527 0.42186,0.0235 0.78514,0.0645 1.08984,0.12305 l -0.42187,2.95312 c -0.32814,-0.0586 -0.66798,-0.10545 -1.01953,-0.14062 -0.33986,-0.0469 -0.66212,-0.0703 -0.9668,-0.0703 -0.73829,1e-5 -1.41212,0.15236 -2.02148,0.45703 -0.60939,0.29298 -1.13673,0.72072 -1.58203,1.2832 -0.4336,0.5508 -0.77345,1.21876 -1.01954,2.00391 -0.23438,0.77345 -0.35156,1.63477 -0.35156,2.58398 l 0,10.40625 -3.19922,0 0,-19.30078 2.60157,0 0.38671,3.5332 0.14063,0 c 0.29296,-0.50389 0.60351,-0.99021 0.93164,-1.45898 0.33984,-0.46873 0.71484,-0.87889 1.125,-1.23047 0.42187,-0.36326 0.89062,-0.65037 1.40625,-0.86133 0.51562,-0.22263 1.10155,-0.33396 1.75781,-0.33398"
         style=""
         id="path3293" />
      <path
         d="m 409.60352,274.10522 c -2e-5,1.60548 -0.19924,3.03517 -0.59766,4.28907 -0.38674,1.24219 -0.94924,2.29102 -1.6875,3.14648 -0.72658,0.84375 -1.61134,1.48828 -2.6543,1.9336 -1.04298,0.44531 -2.21485,0.66796 -3.51562,0.66796 -1.20704,0 -2.32032,-0.22265 -3.33985,-0.66796 -1.01953,-0.44532 -1.9043,-1.08985 -2.65429,-1.9336 -0.73829,-0.85546 -1.31837,-1.90429 -1.74024,-3.14648 -0.41016,-1.2539 -0.61523,-2.68359 -0.61523,-4.28907 0,-1.59373 0.19336,-3.00584 0.58008,-4.23632 0.39843,-1.24218 0.96093,-2.28514 1.6875,-3.12891 0.72655,-0.85545 1.61132,-1.49998 2.65429,-1.93359 1.05468,-0.4453 2.23242,-0.66795 3.53321,-0.66797 1.20702,2e-5 2.3203,0.22267 3.33984,0.66797 1.01952,0.43361 1.89842,1.07814 2.63672,1.93359 0.74998,0.84377 1.33006,1.88673 1.74023,3.12891 0.42186,1.23048 0.6328,2.64259 0.63282,4.23632 m -13.5,0 c -10e-6,2.44923 0.39843,4.29493 1.19531,5.53711 0.80858,1.23048 2.11522,1.84571 3.91992,1.84571 1.80468,0 3.0996,-0.61523 3.88477,-1.84571 0.79686,-1.24218 1.19529,-3.08788 1.19531,-5.53711 -2e-5,-2.4492 -0.40431,-4.27733 -1.21289,-5.48437 -0.79689,-1.21873 -2.09767,-1.82811 -3.90235,-1.82813 -1.80469,2e-5 -3.10547,0.6094 -3.90234,1.82813 -0.78516,1.20704 -1.17774,3.03517 -1.17773,5.48437"
         style=""
         id="path3295" />
      <path
         d="m 426.60156,281.20679 -0.14062,0 c -0.25783,0.39844 -0.56252,0.7793 -0.91407,1.14258 -0.33985,0.35156 -0.73829,0.66211 -1.19531,0.93164 -0.44532,0.26953 -0.94923,0.48046 -1.51172,0.63281 -0.56251,0.15234 -1.19532,0.22851 -1.89843,0.22851 -1.08986,0 -2.08595,-0.21093 -2.98829,-0.63281 -0.90234,-0.42187 -1.67578,-1.04883 -2.32031,-1.88086 -0.64453,-0.84374 -1.14258,-1.88671 -1.49414,-3.1289 -0.35156,-1.24219 -0.52734,-2.68359 -0.52734,-4.32422 0,-1.65234 0.17578,-3.0996 0.52734,-4.3418 0.35156,-1.25389 0.84961,-2.30272 1.49414,-3.14648 0.64453,-0.84374 1.41797,-1.47655 2.32031,-1.89844 0.90234,-0.43358 1.89843,-0.65037 2.98829,-0.65039 0.69139,2e-5 1.31834,0.0762 1.88086,0.22851 0.56248,0.15237 1.06639,0.35744 1.51171,0.61524 0.45702,0.25783 0.86132,0.55666 1.21289,0.89648 0.35155,0.33986 0.65624,0.69728 0.91407,1.07227 l 0.21093,0 c -0.0352,-0.39842 -0.0703,-0.77928 -0.10546,-1.14258 -0.0235,-0.30467 -0.0469,-0.61522 -0.0703,-0.93164 -0.0234,-0.32811 -0.0352,-0.58592 -0.0351,-0.77344 l 0,-7.66406 3.19922,0 0,27.35156 -2.58399,0 -0.47461,-2.58398 m -5.04492,0.28125 c 0.89061,0 1.64061,-0.13477 2.25,-0.4043 0.62108,-0.26953 1.11913,-0.67968 1.49414,-1.23047 0.38671,-0.55078 0.66796,-1.23632 0.84375,-2.05664 0.18749,-0.83202 0.29296,-1.79882 0.31641,-2.90039 l 0,-0.7207 c -2e-5,-1.18359 -0.082,-2.23241 -0.2461,-3.14649 -0.15235,-0.92576 -0.42189,-1.6992 -0.80859,-2.32031 -0.37501,-0.6328 -0.87892,-1.10741 -1.51172,-1.42383 -0.63282,-0.32811 -1.42384,-0.49217 -2.37305,-0.49219 -1.58204,2e-5 -2.74805,0.63869 -3.49804,1.91602 -0.73829,1.27736 -1.10743,3.11134 -1.10742,5.50195 -10e-6,2.44923 0.36913,4.27735 1.10742,5.48438 0.74999,1.19531 1.92772,1.79297 3.5332,1.79297"
         style=""
         id="path3297" />
      <path
         d="m 446.6582,283.79077 -0.65039,-2.67187 -0.14062,0 c -0.38673,0.52734 -0.77345,0.98437 -1.16016,1.37109 -0.38673,0.375 -0.8086,0.68555 -1.26562,0.93164 -0.45705,0.24609 -0.96681,0.42774 -1.5293,0.54492 -0.56251,0.11719 -1.2129,0.17578 -1.95117,0.17578 -0.8086,0 -1.55274,-0.11718 -2.23242,-0.35156 -0.6797,-0.22265 -1.27149,-0.56836 -1.7754,-1.03711 -0.49219,-0.48047 -0.8789,-1.07812 -1.16015,-1.79297 -0.28125,-0.72656 -0.42188,-1.58202 -0.42188,-2.5664 0,-1.92187 0.67383,-3.39843 2.02149,-4.42969 1.35937,-1.03124 3.42187,-1.59374 6.1875,-1.6875 l 3.23437,-0.12305 0,-1.21289 c -1e-5,-0.78514 -0.0879,-1.44139 -0.26367,-1.96875 -0.16407,-0.52733 -0.41017,-0.9492 -0.73828,-1.26562 -0.31642,-0.32811 -0.71486,-0.56249 -1.19531,-0.70313 -0.46876,-0.14061 -1.00782,-0.21092 -1.61719,-0.21094 -0.97266,2e-5 -1.88087,0.14065 -2.72461,0.42188 -0.83204,0.28127 -1.63477,0.62111 -2.4082,1.01953 l -1.125,-2.4082 c 0.86718,-0.46873 1.83398,-0.86717 2.90039,-1.19531 1.0664,-0.32811 2.18554,-0.49217 3.35742,-0.49219 1.1953,2e-5 2.22655,0.12306 3.09375,0.36914 0.87889,0.23439 1.5996,0.61525 2.16211,1.14258 0.5742,0.51564 1.00194,1.17775 1.2832,1.98632 0.28124,0.80861 0.42186,1.78713 0.42188,2.93555 l 0,13.21875 -2.30274,0 m -5.87109,-2.23242 c 0.71483,0 1.37694,-0.11133 1.98633,-0.33398 0.60936,-0.22266 1.13671,-0.55664 1.58203,-1.00196 0.4453,-0.45703 0.791,-1.02538 1.03711,-1.70508 0.2578,-0.6914 0.3867,-1.49999 0.38672,-2.42578 l 0,-1.74023 -2.51368,0.12305 c -1.05469,0.0469 -1.93946,0.16407 -2.65429,0.35156 -0.71485,0.18751 -1.28907,0.45118 -1.72266,0.79101 -0.42188,0.32814 -0.72657,0.73243 -0.91406,1.21289 -0.18751,0.46876 -0.28126,1.00196 -0.28125,1.59961 -10e-6,1.07813 0.28124,1.86915 0.84375,2.37305 0.57421,0.50391 1.32421,0.75586 2.25,0.75586"
         style=""
         id="path3299" />
    </g>
    <g
       style="font-size:36px;font-style:normal;font-variant:normal;font-weight:normal;font-stretch:normal;text-align:start;line-height:125%;letter-spacing:0px;word-spacing:0px;writing-mode:lr-tb;text-anchor:start;fill:#000000;fill-opacity:1;stroke:none;font-family:Sans;-inkscape-font-specification:Sans"
       id="text2997">
      <path
         d="m 438.9202,398.42413 c 1.10155,2e-5 2.1035,0.21096 3.00586,0.63282 0.90232,0.42189 1.6699,1.0547 2.30273,1.89843 0.64451,0.83205 1.14256,1.86916 1.49414,3.11133 0.35154,1.2422 0.52733,2.68361 0.52734,4.32422 -10e-6,1.65235 -0.1758,3.10548 -0.52734,4.35938 -0.35158,1.24219 -0.84963,2.28515 -1.49414,3.1289 -0.63283,0.84375 -1.40041,1.48242 -2.30273,1.91602 -0.90236,0.42187 -1.90431,0.63281 -3.00586,0.63281 -0.69142,0 -1.31837,-0.0762 -1.88086,-0.22852 -0.56251,-0.15234 -1.07228,-0.35156 -1.5293,-0.59765 -0.44532,-0.25781 -0.84376,-0.55664 -1.19531,-0.89649 -0.33985,-0.33984 -0.64454,-0.69726 -0.91406,-1.07226 l -0.21094,0 -0.65039,2.44336 -2.33789,0 0,-27.35157 3.19922,0 0,6.60938 c -10e-6,0.41018 -0.006,0.84963 -0.0176,1.31836 -0.0117,0.45705 -0.0293,0.88478 -0.0527,1.2832 -0.0234,0.46877 -0.0469,0.9258 -0.0703,1.3711 l 0.14063,0 c 0.26952,-0.41014 0.57421,-0.791 0.91406,-1.14258 0.33983,-0.35155 0.73241,-0.65623 1.17773,-0.91406 0.45702,-0.2578 0.96679,-0.45702 1.5293,-0.59766 0.56249,-0.15233 1.1953,-0.2285 1.89844,-0.22852 m -0.61524,2.6543 c -0.93751,2e-5 -1.72266,0.15236 -2.35547,0.45703 -0.6211,0.29299 -1.125,0.74416 -1.51172,1.35352 -0.375,0.60939 -0.64453,1.3711 -0.80859,2.28515 -0.15235,0.91408 -0.22852,1.98634 -0.22851,3.2168 -10e-6,1.1836 0.0762,2.23829 0.22851,3.16406 0.16406,0.91407 0.43359,1.68751 0.80859,2.32032 0.38672,0.62109 0.89648,1.0957 1.5293,1.42382 0.6328,0.31641 1.42382,0.47461 2.37305,0.47461 1.58202,0 2.74217,-0.63867 3.48047,-1.91601 0.74998,-1.27734 1.12498,-3.11132 1.125,-5.50196 -2e-5,-2.43748 -0.37502,-4.25975 -1.125,-5.46679 -0.7383,-1.20702 -1.91017,-1.81053 -3.51563,-1.81055"
         style=""
         id="path3302" />
      <path
         d="m 459.64481,398.42413 c 0.33983,2e-5 0.72069,0.0176 1.14257,0.0527 0.42187,0.0234 0.78515,0.0645 1.08985,0.12304 l -0.42188,2.95313 c -0.32814,-0.0586 -0.66798,-0.10545 -1.01953,-0.14063 -0.33985,-0.0469 -0.66212,-0.0703 -0.9668,-0.0703 -0.73829,2e-5 -1.41211,0.15236 -2.02148,0.45703 -0.60938,0.29299 -1.13673,0.72072 -1.58203,1.28321 -0.4336,0.55079 -0.77345,1.21876 -1.01953,2.0039 -0.23438,0.77345 -0.35157,1.63478 -0.35156,2.58399 l 0,10.40625 -3.19922,0 0,-19.30078 2.60156,0 0.38672,3.5332 0.14062,0 c 0.29297,-0.50389 0.60351,-0.99022 0.93164,-1.45899 0.33984,-0.46873 0.71484,-0.87888 1.125,-1.23046 0.42187,-0.36327 0.89062,-0.65038 1.40625,-0.86133 0.51562,-0.22264 1.10156,-0.33397 1.75782,-0.33399"
         style=""
         id="path3304" />
      <path
         d="m 481.37137,408.39093 c -2e-5,1.60548 -0.19924,3.03516 -0.59766,4.28906 -0.38673,1.24219 -0.94923,2.29102 -1.6875,3.14649 -0.72658,0.84375 -1.61134,1.48828 -2.65429,1.93359 -1.04299,0.44531 -2.21486,0.66797 -3.51563,0.66797 -1.20704,0 -2.32032,-0.22266 -3.33984,-0.66797 -1.01954,-0.44531 -1.90431,-1.08984 -2.6543,-1.93359 -0.73829,-0.85547 -1.31836,-1.9043 -1.74023,-3.14649 -0.41016,-1.2539 -0.61524,-2.68358 -0.61524,-4.28906 0,-1.59374 0.19336,-3.00585 0.58008,-4.23633 0.39843,-1.24217 0.96093,-2.28514 1.6875,-3.1289 0.72656,-0.85546 1.61132,-1.49999 2.6543,-1.9336 1.05468,-0.44529 2.23241,-0.66795 3.5332,-0.66797 1.20702,2e-5 2.3203,0.22268 3.33984,0.66797 1.01952,0.43361 1.89842,1.07814 2.63672,1.9336 0.74998,0.84376 1.33006,1.88673 1.74024,3.1289 0.42185,1.23048 0.63279,2.64259 0.63281,4.23633 m -13.5,0 c -1e-5,2.44923 0.39843,4.29493 1.19531,5.53711 0.80859,1.23047 2.11523,1.8457 3.91992,1.8457 1.80468,0 3.0996,-0.61523 3.88477,-1.8457 0.79686,-1.24218 1.1953,-3.08788 1.19531,-5.53711 -1e-5,-2.44921 -0.40431,-4.27733 -1.21289,-5.48437 -0.79689,-1.21874 -2.09767,-1.82811 -3.90234,-1.82813 -1.8047,2e-5 -3.10548,0.60939 -3.90235,1.82813 -0.78516,1.20704 -1.17774,3.03516 -1.17773,5.48437"
         style=""
         id="path3306" />
      <path
         d="m 498.36942,415.49249 -0.14063,0 c -0.25783,0.39844 -0.56251,0.7793 -0.91406,1.14258 -0.33986,0.35156 -0.7383,0.66211 -1.19531,0.93164 -0.44533,0.26953 -0.94924,0.48047 -1.51172,0.63281 -0.56251,0.15235 -1.19533,0.22852 -1.89844,0.22852 -1.08985,0 -2.08595,-0.21094 -2.98828,-0.63281 -0.90235,-0.42188 -1.67579,-1.04883 -2.32031,-1.88086 -0.64454,-0.84375 -1.14259,-1.88672 -1.49415,-3.12891 -0.35156,-1.24218 -0.52734,-2.68358 -0.52734,-4.32422 0,-1.65233 0.17578,-3.09959 0.52734,-4.34179 0.35156,-1.2539 0.84961,-2.30272 1.49415,-3.14649 0.64452,-0.84373 1.41796,-1.47654 2.32031,-1.89844 0.90233,-0.43357 1.89843,-0.65037 2.98828,-0.65039 0.6914,2e-5 1.31835,0.0762 1.88086,0.22852 0.56249,0.15236 1.06639,0.35744 1.51172,0.61523 0.45702,0.25783 0.86131,0.55666 1.21289,0.89649 0.35155,0.33986 0.65623,0.69728 0.91406,1.07226 l 0.21094,0 c -0.0352,-0.39842 -0.0703,-0.77928 -0.10547,-1.14257 -0.0234,-0.30467 -0.0469,-0.61522 -0.0703,-0.93165 -0.0235,-0.3281 -0.0352,-0.58591 -0.0352,-0.77343 l 0,-7.66407 3.19922,0 0,27.35157 -2.58399,0 -0.4746,-2.58399 m -5.04493,0.28125 c 0.89062,0 1.64062,-0.13476 2.25,-0.40429 0.62108,-0.26953 1.11913,-0.67969 1.49414,-1.23047 0.38671,-0.55078 0.66796,-1.23633 0.84375,-2.05664 0.18749,-0.83203 0.29296,-1.79882 0.31641,-2.90039 l 0,-0.72071 c -1e-5,-1.18358 -0.082,-2.23241 -0.24609,-3.14648 -0.15236,-0.92577 -0.42189,-1.69921 -0.8086,-2.32031 -0.37501,-0.6328 -0.87892,-1.10741 -1.51172,-1.42383 -0.63282,-0.32811 -1.42383,-0.49217 -2.37304,-0.49219 -1.58204,2e-5 -2.74806,0.63869 -3.49805,1.91602 -0.73829,1.27735 -1.10743,3.11134 -1.10742,5.50195 -1e-5,2.44922 0.36913,4.27735 1.10742,5.48437 0.74999,1.19532 1.92773,1.79297 3.5332,1.79297"
         style=""
         id="path3308" />
      <path
         d="m 518.42606,418.07648 -0.65039,-2.67188 -0.14063,0 c -0.38673,0.52735 -0.77345,0.98438 -1.16016,1.3711 -0.38673,0.375 -0.8086,0.68554 -1.26562,0.93164 -0.45704,0.24609 -0.96681,0.42773 -1.5293,0.54492 -0.56251,0.11719 -1.2129,0.17578 -1.95117,0.17578 -0.8086,0 -1.55274,-0.11719 -2.23242,-0.35156 -0.67969,-0.22266 -1.27149,-0.56836 -1.77539,-1.03711 -0.49219,-0.48047 -0.87891,-1.07813 -1.16016,-1.79297 -0.28125,-0.72656 -0.42188,-1.58203 -0.42187,-2.56641 -1e-5,-1.92187 0.67382,-3.39843 2.02148,-4.42968 1.35937,-1.03124 3.42187,-1.59374 6.1875,-1.6875 l 3.23438,-0.12305 0,-1.21289 c -2e-5,-0.78514 -0.0879,-1.44139 -0.26368,-1.96875 -0.16407,-0.52733 -0.41016,-0.94921 -0.73828,-1.26563 -0.31642,-0.32811 -0.71485,-0.56248 -1.19531,-0.70312 -0.46876,-0.14061 -1.00782,-0.21092 -1.61719,-0.21094 -0.97266,2e-5 -1.88086,0.14064 -2.72461,0.42188 -0.83203,0.28126 -1.63477,0.6211 -2.4082,1.01953 l -1.125,-2.40821 c 0.86718,-0.46873 1.83398,-0.86717 2.90039,-1.19531 1.0664,-0.3281 2.18554,-0.49217 3.35742,-0.49219 1.1953,2e-5 2.22655,0.12307 3.09375,0.36914 0.8789,0.2344 1.5996,0.61526 2.16211,1.14258 0.57421,0.51564 1.00194,1.17775 1.28321,1.98633 0.28123,0.80861 0.42185,1.78712 0.42187,2.93555 l 0,13.21875 -2.30273,0 m -5.8711,-2.23242 c 0.71484,0 1.37695,-0.11133 1.98633,-0.33399 0.60936,-0.22265 1.13671,-0.55664 1.58203,-1.00195 0.4453,-0.45703 0.791,-1.02539 1.03711,-1.70508 0.2578,-0.6914 0.38671,-1.49999 0.38672,-2.42578 l 0,-1.74024 -2.51367,0.12305 c -1.0547,0.0469 -1.93946,0.16407 -2.6543,0.35156 -0.71485,0.18751 -1.28907,0.45118 -1.72266,0.79102 -0.42188,0.32813 -0.72656,0.73243 -0.91406,1.21289 -0.1875,0.46876 -0.28125,1.00196 -0.28125,1.59961 0,1.07813 0.28125,1.86914 0.84375,2.37305 0.57421,0.5039 1.32421,0.75586 2.25,0.75586"
         style=""
         id="path3310" />
    </g>
    <path
       style="fill:none;stroke:#0000ff;stroke-width:3.5;stroke-linecap:butt;stroke-linejoin:miter;stroke-miterlimit:4;stroke-opacity:1;stroke-dasharray:none"
       d="M 57.142857,33.857134 C 44.285714,73.857134 80,96.714277 80,96.714277"
       id="path3764"
       inkscape:connector-curvature="0"
       transform="translate(172.14231,113.79078)" />
    <path
       style="fill:none;stroke:#0000ff;stroke-width:3.5;stroke-linecap:butt;stroke-linejoin:miter;stroke-miterlimit:4;stroke-opacity:1;stroke-dasharray:none"
       d="m 228.75672,202.39631 c 41.90501,24.01404 15.23818,-16.70541 15.23818,-16.70541 l 0,1.04409"
       id="path3766"
       inkscape:connector-curvature="0" />
  </g>
</svg>
