<?xml version="1.0" standalone="no"?>
<!DOCTYPE svg PUBLIC "-//W3C//DTD SVG 20010904//EN"
 "http://www.w3.org/TR/2001/REC-SVG-20010904/DTD/svg10.dtd">
<svg version="1.0" xmlns="http://www.w3.org/2000/svg"
 width="89.000000pt" height="157.000000pt" viewBox="0 0 89.000000 157.000000"
 preserveAspectRatio="xMidYMid meet">

<g transform="translate(0.000000,157.000000) scale(0.100000,-0.100000)"
fill="#000000" stroke="none">
<path d="M479 1554 l-46 -14 -7 -76 c-3 -43 -6 -96 -6 -119 0 -40 -2 -43 -40
-58 -22 -8 -40 -20 -40 -27 0 -11 40 -30 51 -24 3 2 4 -39 1 -90 -3 -72 -1
-100 12 -124 14 -27 14 -38 3 -88 -12 -54 -15 -57 -56 -71 -42 -14 -141 -80
-141 -94 0 -4 -9 -9 -21 -12 -12 -3 -18 -10 -14 -16 3 -6 2 -11 -3 -11 -33 0
-160 -360 -169 -479 -7 -94 -1 -102 100 -132 40 -11 92 -30 117 -42 68 -30
188 -59 248 -58 29 1 51 -2 49 -7 -8 -11 110 -14 132 -3 43 24 85 132 45 117
-19 -7 -13 2 34 52 27 31 28 44 2 67 -18 17 -21 17 -46 1 -15 -11 -23 -23 -20
-32 9 -23 -13 -59 -45 -71 -21 -8 -27 -16 -23 -28 5 -13 17 -16 54 -13 41 3
46 1 42 -14 -2 -10 -8 -18 -13 -18 -5 0 -9 -7 -9 -15 0 -21 -32 -35 -79 -35
-56 0 -90 15 -86 37 2 10 4 25 4 34 1 20 39 46 75 53 14 2 33 9 43 15 16 9 16
10 -6 11 -13 0 -41 -5 -63 -12 -25 -7 -42 -8 -46 -2 -11 15 -152 81 -197 93
-22 5 -61 15 -86 21 -47 12 -89 7 -89 -11 0 -5 11 -7 24 -3 14 3 51 -2 83 -11
32 -9 69 -19 83 -22 42 -7 150 -61 150 -75 0 -7 -7 -22 -15 -32 -8 -11 -15
-29 -15 -41 0 -35 -17 -44 -63 -33 -59 13 -248 78 -273 95 -11 7 -24 10 -27 7
-4 -4 -13 -1 -22 6 -8 7 -15 9 -15 5 0 -5 -9 0 -19 9 -15 14 -18 27 -15 64 12
123 58 271 132 420 37 76 124 168 145 155 6 -3 7 -1 3 5 -15 25 18 10 50 -22
18 -18 35 -32 37 -30 1 2 8 -6 15 -16 10 -17 9 -20 -12 -26 -28 -7 -25 -25 7
-59 43 -46 70 -130 97 -305 18 -118 30 -158 24 -80 -13 157 -49 306 -91 368
-20 29 -34 54 -32 55 2 2 15 8 29 13 25 11 25 11 -35 68 -48 46 -57 59 -45 66
8 5 24 10 35 10 29 0 106 -43 101 -57 -3 -7 1 -25 9 -40 15 -32 20 -82 40
-428 4 -55 9 -108 12 -119 10 -36 20 4 22 87 4 238 11 416 17 445 4 20 3 32
-4 32 -15 0 -27 -154 -25 -340 1 -91 0 -160 -2 -155 -2 6 -9 96 -15 200 -6
105 -13 216 -17 248 l-6 57 62 0 c58 0 61 -1 57 -22 -12 -58 -15 -102 -17
-221 -1 -70 -8 -169 -15 -220 -13 -92 -17 -152 -8 -130 3 7 12 9 20 6 8 -3 14
-1 14 4 0 5 7 56 15 114 8 57 15 125 16 152 2 32 6 44 13 37 12 -12 56 -13 73
-2 9 5 9 18 0 49 l-11 42 -20 -36 c-12 -20 -25 -36 -31 -37 -22 -2 -14 43 20
108 30 59 34 72 22 84 -12 11 -10 21 11 62 21 40 28 47 42 40 31 -16 46 -53
70 -170 19 -96 24 -154 28 -357 2 -135 8 -243 13 -243 5 0 7 91 4 218 -5 235
-9 283 -30 382 -8 36 -17 81 -20 100 -3 21 -20 52 -44 79 -33 37 -44 43 -77
43 l-39 -1 1 67 c1 68 3 76 35 149 20 44 24 73 11 73 -4 0 -5 21 -2 48 4 41 8
47 27 46 13 0 21 2 18 4 -3 3 0 11 6 18 21 25 -38 42 -126 37 -102 -7 -111 -7
-168 -3 l-47 4 5 59 c3 33 9 65 12 70 4 6 6 28 4 48 l-2 38 33 -10 c38 -11
151 -13 204 -3 l37 7 -6 -31 c-4 -17 -9 -62 -12 -99 -7 -86 9 -55 20 37 4 36
11 75 16 87 11 30 -5 40 -81 52 -84 14 -125 13 -181 -5z m206 -13 c31 -6 36
-10 22 -16 -25 -11 -187 -12 -222 -1 l-30 9 30 7 c41 10 151 11 200 1z m-208
-257 c-3 -3 -12 -4 -19 -1 -8 3 -5 6 6 6 11 1 17 -2 13 -5z m40 0 c-3 -3 -12
-4 -19 -1 -8 3 -5 6 6 6 11 1 17 -2 13 -5z m131 -1 c-10 -2 -28 -2 -40 0 -13
2 -5 4 17 4 22 1 32 -1 23 -4z m101 -2 c33 -21 -42 -33 -219 -33 -83 0 -154 3
-158 6 -12 13 21 24 52 19 51 -9 257 -3 275 7 20 12 32 12 50 1z m-47 -82 c0
-19 -3 -49 -7 -68 -4 -21 -4 -31 3 -27 11 7 -6 -45 -31 -91 -9 -18 -16 -36
-15 -40 5 -18 -33 -73 -45 -66 -16 10 -87 11 -87 2 0 -12 40 -21 66 -15 29 8
31 -9 5 -41 -28 -34 -46 -28 -83 25 -17 26 -38 53 -45 60 -12 12 -17 34 -14
55 0 4 -4 7 -9 7 -6 0 -10 33 -10 80 0 74 11 104 24 63 3 -12 5 -9 4 7 -1 60
-4 58 80 55 42 -1 82 1 87 5 12 9 69 28 73 25 1 -1 3 -17 4 -36z m-258 9 c-3
-13 -13 -31 -22 -40 -11 -14 -13 -31 -8 -75 4 -45 3 -54 -5 -39 -13 21 -7 107
9 149 14 33 36 37 26 5z m49 15 c-7 -2 -19 -2 -25 0 -7 3 -2 5 12 5 14 0 19
-2 13 -5z m77 3 c0 -9 -40 -13 -46 -5 -3 5 6 9 20 9 14 0 26 -2 26 -4z m35 -6
c3 -6 -1 -7 -9 -4 -18 7 -21 14 -7 14 6 0 13 -4 16 -10z m-122 -332 c20 -25
37 -49 37 -52 0 -4 -16 -5 -35 -3 -48 6 -73 30 -68 65 7 43 13 56 21 46 5 -5
25 -30 45 -56z m179 18 c-3 -23 -12 -38 -28 -47 -26 -14 -33 -49 -9 -49 8 0
15 -5 15 -11 0 -6 -7 -8 -16 -5 -9 3 -18 6 -20 6 -9 0 -3 49 6 55 6 4 19 24
30 46 11 21 22 39 23 39 2 0 1 -15 -1 -34z m65 -62 l21 -4 -25 -47 c-14 -27
-30 -54 -36 -62 -9 -10 -7 -16 7 -26 16 -12 16 -15 2 -37 -31 -48 -54 -136
-61 -228 -3 -52 -12 -126 -20 -165 -12 -61 -13 -63 -10 -20 2 28 8 131 14 230
12 199 25 301 42 337 11 25 27 30 66 22z m-197 -34 c9 -6 10 -10 3 -10 -6 0
-18 -3 -27 -6 -11 -4 -16 -1 -16 10 0 18 17 21 40 6z m50 0 c0 -5 -8 -10 -17
-10 -15 0 -16 2 -3 10 19 12 20 12 20 0z m150 -290 c0 -5 -7 -10 -16 -10 -8 0
-12 5 -9 10 3 6 10 10 16 10 5 0 9 -4 9 -10z m-220 -389 c0 -6 -4 -12 -9 -15
-5 -4 -12 -25 -16 -47 -5 -29 -10 -38 -18 -30 -7 7 -5 24 7 56 16 40 36 61 36
36z"/>
<path d="M658 1193 c-30 -8 -20 -20 12 -15 16 2 27 8 24 13 -5 9 -8 10 -36 2z"/>
<path d="M490 1175 c0 -17 11 -20 26 -6 5 5 20 11 34 14 16 3 10 5 -17 6 -32
1 -43 -3 -43 -14z"/>
<path d="M520 1144 c0 -17 22 -14 28 4 2 7 -3 12 -12 12 -9 0 -16 -7 -16 -16z"/>
<path d="M645 1151 c-7 -12 12 -24 25 -16 11 7 4 25 -10 25 -5 0 -11 -4 -15
-9z"/>
<path d="M602 1110 c2 -22 0 -40 -4 -40 -5 0 -8 -4 -8 -10 0 -5 7 -10 15 -10
11 0 15 12 15 50 0 30 -4 50 -11 50 -7 0 -10 -15 -7 -40z"/>
<path d="M582 1003 c-28 -4 -30 -6 -18 -19 8 -8 21 -14 28 -14 10 0 9 3 -2 10
-12 8 -9 10 13 10 15 0 27 5 27 10 0 6 -3 9 -7 8 -5 0 -23 -3 -41 -5z"/>
<path d="M770 610 c-5 -53 -4 -87 3 -83 10 6 8 -153 -3 -267 -5 -52 -13 -125
-16 -162 -4 -41 -3 -68 3 -68 24 0 45 523 23 575 -6 14 -9 15 -10 5z"/>
<path d="M270 472 c0 -10 -6 -26 -13 -37 -15 -23 -32 -75 -42 -125 -10 -47 6
-30 26 28 9 26 26 71 37 100 18 43 19 52 7 52 -8 0 -15 -8 -15 -18z"/>
<path d="M762 385 c0 -16 2 -22 5 -12 2 9 2 23 0 30 -3 6 -5 -1 -5 -18z"/>
</g>
</svg>
