<?xml version="1.0" standalone="no"?>
<!DOCTYPE svg PUBLIC "-//W3C//DTD SVG 20010904//EN"
 "http://www.w3.org/TR/2001/REC-SVG-20010904/DTD/svg10.dtd">
<svg version="1.0" xmlns="http://www.w3.org/2000/svg"
 width="100.000000pt" height="87.000000pt" viewBox="0 0 100.000000 87.000000"
 preserveAspectRatio="xMidYMid meet">

<g transform="translate(0.000000,87.000000) scale(0.100000,-0.100000)"
fill="#000000" stroke="none">
<path d="M927 864 c-2 -3 -89 -5 -192 -4 -183 0 -207 -4 -239 -35 -14 -14 -18
-14 -47 7 -30 22 -35 23 -227 20 -108 -2 -201 -6 -206 -9 -5 -4 -6 -90 -2
-207 3 -111 2 -285 -2 -388 -5 -102 -7 -200 -4 -217 l4 -30 62 5 c33 3 104 11
156 17 52 6 135 10 184 9 59 -2 104 2 135 12 40 14 201 24 409 26 l43 0 -5 68
c-7 90 -27 543 -25 562 1 8 1 47 1 86 -2 62 -5 72 -21 77 -11 3 -22 3 -24 1z
m-489 -40 l33 -13 -1 -226 c-1 -170 -4 -224 -13 -218 -23 14 -33 10 -33 -12 0
-22 10 -26 33 -12 8 5 11 -19 11 -92 0 -77 -3 -101 -14 -105 -12 -4 -12 -2 -4
14 7 14 7 20 0 20 -5 0 -10 -5 -10 -11 0 -6 -9 -9 -19 -6 -12 3 -22 -1 -25 -9
-6 -15 -1 -18 47 -28 23 -5 27 -11 25 -35 l-2 -28 -48 15 c-56 18 -57 28 -2
13 21 -6 40 -8 42 -6 3 2 -16 10 -41 17 -41 11 -44 14 -36 35 7 20 5 23 -14
23 -12 -1 -41 -5 -64 -9 -24 -5 -43 -5 -43 0 0 16 -30 -3 -31 -20 0 -10 -2
-11 -6 -3 -2 6 -11 12 -19 12 -9 0 -13 -5 -9 -12 4 -7 0 -6 -7 4 -18 21 -48 6
-48 -24 0 -15 3 -18 12 -10 15 12 148 24 148 14 0 -10 -145 -42 -187 -42 l-33
0 -2 78 c-1 42 -2 122 -2 177 1 83 0 93 -8 60 -5 -22 -8 -79 -5 -127 3 -53 1
-85 -5 -82 -14 9 -8 215 7 240 10 15 13 68 12 207 l-2 187 50 1 c28 0 86 9
130 19 83 19 126 18 183 -6z m367 13 l90 -12 12 -270 c7 -148 12 -308 10 -355
l-2 -85 -185 0 c-147 0 -191 -3 -215 -15 l-30 -16 5 362 c3 199 7 365 10 368
38 37 136 45 305 23z m146 11 c0 -3 9 -203 25 -584 5 -130 4 -173 -5 -178 -7
-5 -14 -6 -15 -5 -2 2 -8 164 -14 359 -6 195 -14 365 -18 377 -4 15 -16 23
-38 26 -22 3 -18 4 17 5 26 1 47 1 48 0z m-816 -25 c-27 -2 -61 -6 -74 -9
l-23 -5 3 -384 4 -384 27 2 c27 2 40 -15 16 -21 -9 -2 -8 0 2 7 13 9 13 11 -2
11 -10 0 -18 -4 -18 -10 0 -5 -11 -10 -24 -10 l-23 0 1 405 1 405 80 -2 c54
-1 64 -3 30 -5z m-67 -126 c0 -95 -11 -75 -14 26 -2 50 1 74 6 62 4 -12 8 -51
8 -88z m849 66 c-3 -10 -5 -4 -5 12 0 17 2 24 5 18 2 -7 2 -21 0 -30z m10
-140 c-3 -10 -5 -2 -5 17 0 19 2 27 5 18 2 -10 2 -26 0 -35z m-860 -85 c-2
-13 -4 -5 -4 17 -1 22 1 32 4 23 2 -10 2 -28 0 -40z m860 -75 c-2 -16 -4 -3
-4 27 0 30 2 43 4 28 2 -16 2 -40 0 -55z m-870 10 c-3 -10 -5 -4 -5 12 0 17 2
24 5 18 2 -7 2 -21 0 -30z m880 -220 c-3 -10 -5 -4 -5 12 0 17 2 24 5 18 2 -7
2 -21 0 -30z m0 -130 c-3 -10 -5 -4 -5 12 0 17 2 24 5 18 2 -7 2 -21 0 -30z
m-575 10 c-6 -2 -10 -9 -6 -14 3 -5 -6 -9 -20 -9 -48 0 -24 27 24 28 10 0 11
-1 2 -5z m278 -33 c-54 -12 -134 -21 -127 -14 6 7 99 21 137 22 18 0 15 -2
-10 -8z m-297 -7 c-7 -2 -19 -2 -25 0 -7 3 -2 5 12 5 14 0 19 -2 13 -5z m440
-4 c-6 -6 -60 -13 -119 -16 -60 -3 -115 -10 -121 -15 -9 -7 -13 -7 -13 1 0 14
25 19 150 30 58 4 107 9 110 10 2 0 -1 -4 -7 -10z m-487 -8 c-6 -9 -44 -16
-136 -25 -55 -5 -55 -5 -10 4 25 5 68 13 95 18 28 6 51 10 53 11 2 0 1 -3 -2
-8z m641 3 c-3 -3 -12 -4 -19 -1 -8 3 -5 6 6 6 11 1 17 -2 13 -5z m-547 -23
c0 -8 -202 -32 -251 -30 -40 2 122 29 219 36 17 2 32 -1 32 -6z m55 -11 c3 -5
1 -10 -4 -10 -6 0 -11 5 -11 10 0 6 2 10 4 10 3 0 8 -4 11 -10z m75 0 c0 -5
-10 -10 -22 -9 -22 0 -22 1 -3 9 11 5 21 9 23 9 1 1 2 -3 2 -9z"/>
<path d="M310 795 c-7 -8 -19 -15 -26 -15 -7 0 -11 -6 -8 -14 3 -8 1 -17 -5
-21 -6 -3 -11 -12 -11 -18 0 -7 11 0 24 16 24 27 49 39 26 12 -6 -8 -9 -19 -5
-25 11 -18 31 -11 43 15 13 29 5 33 -13 8 -11 -15 -12 -14 -12 11 0 19 4 26
13 22 8 -3 14 1 14 9 0 19 -24 19 -40 0z"/>
<path d="M393 804 c3 -4 -5 -21 -18 -39 -23 -30 -24 -45 -3 -45 5 0 7 4 4 9
-3 5 3 20 14 34 22 28 26 47 8 47 -6 0 -9 -3 -5 -6z"/>
<path d="M426 775 c-9 -14 -13 -25 -9 -25 12 1 46 50 35 50 -6 0 -17 -11 -26
-25z"/>
<path d="M186 771 c-4 -5 -3 -17 1 -26 4 -13 2 -16 -8 -13 -8 3 -13 13 -13 22
2 22 -4 20 -27 -6 l-20 -23 11 23 c6 12 7 22 3 22 -12 0 -34 -40 -28 -50 9
-14 45 -7 45 9 0 11 3 11 18 -2 22 -20 32 -13 32 21 0 14 3 22 7 18 4 -4 8
-15 8 -24 0 -9 9 -18 20 -20 15 -2 16 -1 7 6 -11 7 -9 11 8 15 25 6 18 27 -8
27 -15 0 -15 -2 -2 -10 10 -7 11 -10 2 -10 -7 0 -15 7 -18 15 -7 17 -30 20
-38 6z"/>
<path d="M400 729 c0 -5 5 -7 10 -4 6 3 10 8 10 11 0 2 -4 4 -10 4 -5 0 -10
-5 -10 -11z"/>
<path d="M175 675 c-26 -25 -32 -45 -15 -45 6 0 10 4 10 8 0 5 7 17 15 28 14
18 15 17 6 -8 -6 -15 -22 -50 -36 -78 -14 -28 -25 -61 -23 -73 4 -30 35 -33
69 -8 23 17 29 18 29 7 0 -40 53 -29 76 16 16 31 10 53 -7 28 -14 -21 -3 20
26 93 l23 57 -27 0 c-25 0 -30 -7 -50 -65 -13 -35 -36 -79 -52 -97 -38 -44
-38 -21 1 71 17 40 28 76 25 81 -11 18 -45 10 -70 -15z"/>
<path d="M350 590 l-35 -110 25 0 c23 0 28 8 61 110 l36 110 -26 0 c-24 0 -28
-7 -61 -110z"/>
<path d="M253 425 c0 -27 2 -38 4 -22 2 15 2 37 0 50 -2 12 -4 0 -4 -28z"/>
<path d="M311 413 c-6 -10 -11 -12 -11 -5 0 6 -5 12 -10 12 -7 0 -7 -6 0 -19
5 -11 7 -27 4 -35 -3 -9 -2 -16 2 -16 9 0 35 72 29 78 -2 2 -8 -5 -14 -15z"/>
<path d="M180 385 l1 -30 16 30 17 30 7 -25 7 -25 1 27 c1 24 -3 27 -24 26
-21 -2 -25 -7 -25 -33z"/>
<path d="M127 393 c-4 -3 -7 -15 -7 -25 0 -28 34 -19 38 10 3 21 -16 31 -31
15z m23 -18 c0 -8 -4 -15 -10 -15 -5 0 -10 7 -10 15 0 8 5 15 10 15 6 0 10 -7
10 -15z"/>
<path d="M139 337 c-1 -1 -2 -17 -4 -35 -3 -37 7 -48 25 -27 10 11 10 18 1 29
-9 11 -9 15 1 18 8 3 6 7 -5 11 -9 3 -17 5 -18 4z"/>
<path d="M312 328 c-16 -16 -15 -37 3 -44 8 -4 15 -15 15 -25 0 -10 5 -19 10
-19 6 0 10 23 10 50 0 51 -12 64 -38 38z m22 -23 c-4 -8 -8 -15 -10 -15 -2 0
-4 7 -4 15 0 8 4 15 10 15 5 0 7 -7 4 -15z"/>
<path d="M372 328 c-16 -16 -15 -37 3 -44 8 -4 15 -15 15 -25 0 -10 5 -19 10
-19 6 0 10 23 10 50 0 51 -12 64 -38 38z m22 -23 c-4 -8 -8 -15 -10 -15 -2 0
-4 7 -4 15 0 8 4 15 10 15 5 0 7 -7 4 -15z"/>
<path d="M202 318 c-16 -16 -15 -37 3 -44 8 -4 15 -17 15 -30 0 -13 5 -24 10
-24 6 0 10 25 10 55 0 56 -12 69 -38 43z m22 -23 c-4 -8 -8 -15 -10 -15 -2 0
-4 7 -4 15 0 8 4 15 10 15 5 0 7 -7 4 -15z"/>
<path d="M265 249 c-4 -6 -5 -13 -2 -16 7 -7 27 6 27 18 0 12 -17 12 -25 -2z"/>
<path d="M122 170 c0 -14 2 -19 5 -12 2 6 2 18 0 25 -3 6 -5 1 -5 -13z"/>
<path d="M96 122 c-2 -4 0 -14 5 -22 8 -13 10 -13 19 0 5 8 10 18 10 23 0 10
-28 9 -34 -1z"/>
<path d="M639 799 c-16 -30 -21 -69 -8 -69 5 0 9 9 9 19 0 11 7 27 16 36 12
11 14 19 6 27 -7 7 -14 3 -23 -13z"/>
<path d="M751 779 c-14 -39 -14 -57 -2 -43 10 10 25 74 18 74 -3 0 -10 -14
-16 -31z"/>
<path d="M547 794 c-13 -13 -7 -23 9 -17 15 5 15 3 0 -25 -20 -39 -20 -39 7
-38 17 1 21 -4 19 -21 -2 -13 2 -23 7 -23 6 0 11 -4 11 -10 0 -5 -12 -10 -27
-10 -23 -1 -25 -2 -11 -10 9 -6 23 -7 31 -4 22 8 29 34 12 40 -8 4 -13 10 -10
15 3 4 13 5 22 2 11 -4 14 -3 9 5 -4 7 -11 12 -17 12 -5 0 -18 9 -29 20 -11
11 -15 20 -9 20 13 0 8 42 -7 47 -5 2 -13 0 -17 -3z"/>
<path d="M657 773 c-4 -3 -7 -15 -7 -25 0 -26 24 -17 28 10 3 21 -8 29 -21 15z"/>
<path d="M690 756 c0 -31 6 -34 13 -6 3 11 1 23 -4 26 -5 3 -9 -6 -9 -20z"/>
<path d="M814 715 c0 -15 6 -21 21 -21 15 0 21 6 21 21 0 15 -6 21 -21 21 -15
0 -21 -6 -21 -21z"/>
<path d="M755 693 c-18 -42 -16 -47 16 -34 21 9 22 10 4 11 -20 1 -20 1 -1 15
14 11 16 15 5 15 -10 1 -9 5 5 15 17 13 18 15 3 15 -10 0 -23 -15 -32 -37z"/>
<path d="M641 684 c-13 -19 -21 -37 -18 -41 4 -3 9 2 13 11 8 21 31 21 37 -1
3 -10 5 -1 6 19 1 50 -10 53 -38 12z m29 6 c0 -5 -5 -10 -11 -10 -5 0 -7 5 -4
10 3 6 8 10 11 10 2 0 4 -4 4 -10z"/>
<path d="M700 708 c0 -7 -3 -22 -6 -33 -4 -16 0 -21 15 -21 12 0 21 4 21 8 0
4 -5 8 -11 8 -7 0 -9 10 -5 25 4 14 2 25 -4 25 -5 0 -10 -6 -10 -12z"/>
<path d="M572 464 c2 -75 7 -109 16 -112 8 -2 12 8 12 35 0 32 5 41 30 55 62
35 47 120 -23 126 l-38 3 3 -107z m66 50 c2 -11 -6 -28 -18 -39 -20 -18 -20
-18 -20 24 0 35 3 42 18 39 9 -2 18 -12 20 -24z"/>
<path d="M737 518 c-29 -101 -40 -169 -28 -181 7 -7 13 -2 21 17 5 15 10 34
10 42 0 8 10 14 24 14 19 0 26 -7 31 -30 4 -17 13 -30 21 -30 16 0 15 12 -9
150 -10 55 -16 65 -34 68 -18 3 -24 -5 -36 -50z m43 -54 c0 -15 -6 -24 -16
-24 -11 0 -14 5 -10 16 3 9 6 22 6 30 0 9 5 12 10 9 6 -3 10 -17 10 -31z"/>
<path d="M648 258 c-2 -18 -9 -23 -30 -22 -16 1 -28 -2 -28 -6 0 -4 -7 -7 -16
-6 -11 1 -17 -8 -19 -26 -4 -34 3 -35 34 -3 18 19 27 23 37 14 7 -6 17 -8 22
-5 12 7 21 65 11 72 -4 2 -9 -6 -11 -18z"/>
<path d="M694 257 c-13 -8 -19 -18 -15 -27 8 -19 39 -24 57 -9 11 9 14 8 14
-5 0 -11 4 -14 13 -9 6 4 21 8 32 10 11 1 14 -1 8 -3 -18 -8 -16 -24 2 -24 8
0 15 7 15 15 0 8 4 15 9 15 5 0 17 3 27 7 11 4 15 3 10 -5 -3 -6 -2 -13 4 -17
5 -3 10 -2 10 4 0 6 7 8 15 5 11 -5 14 0 13 19 -2 22 -6 25 -35 22 -20 -2 -33
2 -33 8 0 7 -4 6 -9 -2 -13 -20 -109 -24 -113 -5 -2 10 -7 10 -24 1z"/>
<path d="M526 233 c-9 -9 -7 -33 3 -33 12 0 22 28 12 34 -5 3 -11 3 -15 -1z"/>
</g>
</svg>
