<?xml version="1.0" standalone="no"?>
<!DOCTYPE svg PUBLIC "-//W3C//DTD SVG 20010904//EN"
 "http://www.w3.org/TR/2001/REC-SVG-20010904/DTD/svg10.dtd">
<svg version="1.0" xmlns="http://www.w3.org/2000/svg"
 width="130.000000pt" height="244.000000pt" viewBox="0 0 130.000000 244.000000"
 preserveAspectRatio="xMidYMid meet">

<g transform="translate(0.000000,244.000000) scale(0.100000,-0.100000)"
fill="#000000" stroke="none">
<path d="M874 2430 c-41 -9 -54 -18 -54 -38 0 -13 4 -11 16 7 15 21 22 23 67
18 59 -8 91 -27 113 -68 21 -41 12 -95 -18 -105 -15 -4 -17 -8 -8 -14 9 -6 2
-27 -27 -83 -35 -66 -38 -78 -26 -90 13 -13 12 -17 -9 -37 -18 -17 -31 -21
-62 -17 -37 5 -67 28 -46 35 6 2 10 10 10 17 0 8 7 11 18 9 9 -3 28 0 42 5
l25 11 -25 -2 c-14 -1 -32 0 -40 0 -19 2 -47 55 -56 105 -3 20 -11 37 -18 37
-7 0 -7 3 -1 8 6 4 11 20 12 35 0 16 8 36 17 46 23 25 20 44 -10 71 -19 19
-27 22 -33 11 -5 -8 -17 -11 -28 -7 -25 8 -39 -8 -51 -59 -12 -51 -29 -84
-133 -257 -101 -168 -125 -223 -108 -245 7 -7 18 -12 24 -9 7 2 27 -4 44 -15
32 -19 32 -19 111 7 44 15 80 30 80 34 0 16 -14 18 -25 3 -6 -8 -26 -16 -42
-17 -17 0 -29 -4 -27 -7 2 -4 -6 -9 -18 -13 -14 -3 -26 0 -31 9 -5 10 -25 15
-59 15 -50 0 -50 0 -45 28 6 28 112 223 175 322 38 61 69 128 76 167 3 14 8
28 12 32 4 3 4 -2 1 -11 -8 -22 -3 -22 29 -1 24 15 26 15 46 -4 17 -17 18 -24
8 -39 -9 -16 -11 -16 -6 -2 3 10 1 20 -5 24 -13 8 -60 -24 -57 -39 3 -16 -34
-97 -44 -97 -4 0 -8 -4 -8 -10 0 -21 16 -9 43 32 15 23 27 49 27 58 0 9 6 24
13 34 12 17 14 16 14 -13 0 -19 -3 -27 -8 -19 -4 6 -8 -14 -8 -45 0 -32 4 -55
10 -52 5 3 6 0 3 -8 -3 -8 -1 -18 5 -22 6 -3 11 -14 11 -24 0 -10 7 -24 15
-31 19 -16 19 -50 0 -50 -13 0 -83 -32 -167 -75 -32 -16 -33 -14 -14 28 27 60
46 110 43 114 -8 7 -89 -198 -92 -233 -1 -22 -6 -48 -10 -59 -6 -19 -6 -19 8
-2 14 16 32 89 28 113 -1 11 166 92 172 83 1 -2 7 -13 13 -24 6 -11 30 -25 53
-32 35 -10 50 -10 84 2 23 8 43 19 45 25 2 5 11 19 20 30 16 19 18 20 40 5 39
-28 132 -244 132 -307 0 -21 -52 -48 -93 -48 -25 0 -29 9 -74 140 -4 12 -6 12
-10 2 -3 -8 0 -24 6 -35 32 -64 36 -100 21 -178 l-15 -77 -70 -11 c-38 -6 -97
-11 -131 -10 l-61 1 -8 167 c-4 91 -8 178 -9 194 0 15 -5 27 -10 27 -4 0 -6
-19 -2 -42 8 -59 8 -325 0 -365 -5 -24 -3 -33 7 -34 23 -1 132 3 159 6 14 1
44 3 68 4 23 0 42 5 42 11 0 5 -12 8 -27 5 -16 -2 -76 -7 -135 -10 -93 -5
-108 -3 -108 10 0 12 18 15 105 17 150 2 149 2 155 10 3 4 11 3 18 -1 10 -6 7
-21 -12 -63 -21 -48 -32 -59 -77 -82 -29 -14 -63 -26 -76 -26 -15 0 -23 -6
-23 -17 0 -9 -3 -14 -6 -11 -9 9 -77 -12 -98 -30 -18 -16 -18 -16 -13 3 4 11
11 43 17 70 6 28 13 59 16 70 4 13 3 17 -4 10 -5 -5 -18 -45 -27 -89 -15 -66
-24 -85 -56 -118 -64 -66 -82 -116 -77 -211 3 -66 10 -92 33 -134 15 -29 39
-60 52 -68 13 -9 21 -20 18 -26 -4 -5 -8 -37 -10 -70 -2 -34 -7 -64 -10 -68
-4 -3 -84 -7 -178 -8 -104 -2 -173 -7 -175 -13 -2 -5 -14 -10 -26 -10 -40 0
-148 -62 -205 -117 -51 -49 -54 -54 -39 -69 13 -13 14 -23 6 -53 -12 -43 -3
-172 14 -203 45 -80 112 -139 180 -159 145 -42 295 29 366 174 18 35 32 70 32
76 0 14 106 15 115 1 4 -6 -12 -10 -39 -10 -75 0 -59 -28 33 -58 35 -12 78
-32 95 -46 29 -22 35 -23 62 -11 43 18 78 63 63 81 -6 8 -20 14 -30 14 -10 0
-28 4 -41 9 -13 5 -32 12 -43 16 -20 7 -20 7 1 15 18 7 136 20 315 35 l56 4
-11 -34 c-6 -20 -19 -38 -29 -41 -21 -6 -39 6 -20 13 18 6 -3 43 -23 43 -20 0
-44 -24 -44 -44 0 -58 116 -100 159 -57 11 11 21 33 21 47 0 14 12 55 26 90
14 35 24 72 22 81 -2 10 -17 27 -35 38 -20 13 -31 27 -30 40 3 30 -37 32 -50
2 -8 -17 -7 -31 3 -55 18 -44 3 -33 -48 36 -63 83 -68 96 -68 157 0 59 22 95
58 95 22 0 47 42 56 93 6 31 10 37 26 32 10 -3 22 0 26 6 10 16 -40 58 -77 66
-21 4 -28 10 -25 22 17 56 17 76 -3 139 -11 38 -33 86 -48 108 -23 33 -28 52
-31 120 l-4 81 58 114 c77 152 83 193 41 314 -47 141 -104 234 -144 235 -6 0
-23 4 -36 9 l-24 9 49 97 c26 53 48 110 48 127 0 76 -89 145 -166 128z m100
-404 c-13 -35 -123 -63 -148 -38 -4 4 -12 7 -18 7 -6 0 -13 11 -15 24 l-3 24
21 -26 c30 -39 87 -37 131 2 36 32 42 33 32 7z m152 -444 c-18 -37 -47 -93
-64 -124 -45 -82 -48 -88 -68 -136 -17 -41 -64 -92 -85 -92 -6 0 -8 3 -6 8 3
4 -7 8 -21 9 l-27 1 24 -12 c20 -11 21 -14 7 -19 -12 -5 -15 -3 -10 5 5 8 2 9
-10 5 -11 -5 -15 -3 -10 5 5 8 2 9 -9 5 -44 -18 -49 -18 -21 1 35 22 85 82 78
93 -2 4 -19 3 -36 -2 -17 -5 -33 -7 -35 -5 -3 2 29 15 70 27 41 13 73 27 71
30 -5 9 39 130 70 192 15 29 26 62 24 72 -2 14 5 20 30 26 18 4 36 10 40 13 3
4 10 -3 14 -14 6 -15 -2 -40 -26 -88z m-90 3 c-23 -49 -35 -44 -17 7 6 17 11
43 11 57 l1 26 12 -23 c11 -20 10 -30 -7 -67z m-1 -265 c0 -62 -1 -65 -22 -52
-12 8 -12 12 13 100 7 24 9 11 9 -48z m-241 -99 c4 -5 24 -12 47 -16 32 -6 39
-10 34 -23 -4 -10 -11 -38 -17 -64 -6 -27 -15 -48 -18 -48 -4 0 -21 36 -38 80
-16 44 -26 80 -22 80 5 0 11 -4 14 -9z m-3 -80 c16 -41 26 -78 23 -82 -2 -4
-36 6 -74 23 -49 22 -70 36 -70 49 0 20 68 91 83 86 6 -2 23 -36 38 -76z m149
65 c0 -8 8 -17 18 -20 10 -4 31 -20 47 -36 28 -29 28 -31 10 -44 -33 -24 -138
-57 -148 -47 -11 11 17 126 35 149 14 16 38 15 38 -2z m-142 -179 c3 -14 -132
-72 -147 -62 -11 6 -16 127 -5 138 9 8 149 -61 152 -76z m256 18 c4 -17 1 -47
-6 -67 l-13 -37 -74 37 c-41 20 -74 41 -75 47 -1 5 33 24 74 42 80 34 82 34
94 -22z m-222 -7 c-8 -8 -8 -17 -1 -32 10 -20 9 -20 -5 -3 -15 20 -11 47 7 47
8 0 7 -4 -1 -12z m37 -28 c0 -10 -3 -8 -9 5 -12 27 -12 43 0 25 5 -8 9 -22 9
-30z m-54 -19 c5 -9 -29 -148 -39 -159 -17 -16 -112 77 -105 103 2 9 114 64
131 65 4 0 9 -4 13 -9z m148 -30 c61 -27 67 -33 57 -50 -10 -20 -79 -81 -91
-81 -12 0 -59 139 -53 155 3 8 9 13 13 11 3 -2 37 -17 74 -35z m-82 -61 c29
-75 28 -89 -11 -90 -12 0 -16 15 -18 66 -1 37 -7 75 -13 86 -8 15 -8 19 1 16
7 -2 26 -37 41 -78z m-51 -19 c0 -65 -1 -69 -21 -64 -14 4 -18 11 -14 22 4 9
11 37 17 64 6 26 13 47 15 47 2 0 3 -31 3 -69z m311 9 c5 -3 0 -28 -11 -55
-10 -28 -19 -42 -20 -32 0 10 -6 20 -14 23 -12 5 -11 13 7 48 12 23 24 37 26
32 2 -6 8 -13 12 -16z m45 9 c47 -28 43 -34 -6 -9 -22 11 -40 23 -40 25 0 9
13 5 46 -16z m-6 -31 c-1 -29 -28 -103 -42 -111 -19 -13 -91 0 -82 14 3 6 22
9 40 7 19 -2 34 1 34 6 0 20 33 96 41 96 5 0 9 -6 9 -12z m-90 -58 c0 -5 -11
-12 -25 -16 -18 -4 -25 -13 -25 -30 0 -19 5 -24 25 -24 14 0 25 -5 25 -11 0
-6 -17 -9 -42 -7 -40 3 -43 5 -46 34 -2 19 3 38 13 48 18 17 75 22 75 6z
m-387 -40 c19 -12 57 -23 84 -27 47 -5 50 -7 47 -32 -2 -14 -4 -41 -6 -59 l-2
-34 -50 7 c-52 6 -68 18 -59 43 7 17 -14 32 -34 25 -7 -3 -13 -11 -13 -18 0
-8 -5 -17 -12 -21 -8 -5 -9 -2 -3 12 4 10 7 43 6 72 0 28 1 52 3 52 3 0 20 -9
39 -20z m248 -26 c-8 -19 -17 -31 -19 -26 -4 14 16 62 27 62 4 0 1 -16 -8 -36z
m45 -27 c19 -11 18 -62 -2 -82 -19 -18 -113 -19 -116 -1 0 6 -2 16 -2 21 -1 6
-4 15 -7 20 -4 6 -9 22 -13 38 -5 22 -3 27 13 27 11 0 27 3 35 6 12 4 15 2 11
-9 -4 -8 -14 -14 -23 -13 -28 2 -28 -40 0 -48 61 -16 105 6 78 39 -6 7 -7 21
-3 31 7 18 8 18 11 -1 2 -11 10 -24 18 -28z m-96 -17 c0 -5 -5 -10 -11 -10 -5
0 -7 5 -4 10 3 6 8 10 11 10 2 0 4 -4 4 -10z m60 0 c0 -5 -5 -10 -11 -10 -5 0
-7 5 -4 10 3 6 8 10 11 10 2 0 4 -4 4 -10z m100 -66 c0 -58 -3 -69 -27 -94
-16 -16 -45 -46 -66 -68 -20 -22 -66 -62 -102 -88 -35 -27 -65 -52 -65 -56 0
-9 95 0 134 13 16 5 68 9 117 9 53 0 89 4 91 11 2 6 11 2 21 -9 18 -19 16 -20
-80 -26 -54 -4 -133 -12 -176 -18 -58 -8 -85 -8 -103 1 -33 15 -64 14 -83 -3
-19 -16 -347 -31 -370 -17 -9 6 -11 18 -8 33 6 24 9 24 84 21 43 -2 102 -8
132 -14 30 -5 81 -9 113 -9 75 0 75 0 -74 153 l-114 116 -35 -10 c-40 -13 -65
-57 -94 -164 -9 -33 -21 -75 -27 -94 -20 -63 -29 -8 -26 154 l3 157 178 -4
c162 -3 179 -1 188 15 14 24 24 21 37 -8 11 -24 16 -25 99 -26 49 0 114 -4
146 -8 31 -4 57 -5 58 -2 0 4 3 15 5 26 3 11 6 31 6 45 1 18 7 26 20 27 16 2
18 -6 18 -63z m-353 40 c-3 -3 -12 -4 -19 -1 -8 3 -5 6 6 6 11 1 17 -2 13 -5z
m153 -46 c0 -5 -4 -8 -10 -8 -5 0 -10 10 -10 23 0 18 2 19 10 7 5 -8 10 -18
10 -22z m-569 -45 c8 -21 5 -23 -22 -23 -43 0 -144 -56 -183 -102 -23 -26 -38
-36 -50 -32 -24 9 -20 27 17 61 53 50 103 83 154 103 58 23 73 22 84 -7z m294
-120 c121 -128 124 -133 88 -129 -16 2 -38 4 -49 5 -22 1 -42 43 -24 49 6 2
10 10 10 17 0 19 -88 113 -122 131 -25 13 -31 34 -10 34 4 0 52 -48 107 -107z
m-117 68 c39 -20 122 -102 122 -121 0 -5 -9 -10 -20 -10 -11 0 -20 4 -20 9 0
12 -110 121 -121 121 -5 0 -9 5 -9 10 0 14 5 13 48 -9z m706 -130 c4 -6 1 -11
-7 -11 -8 0 -40 30 -70 68 -44 53 -52 68 -40 73 12 4 30 -13 63 -56 26 -34 50
-67 54 -74z m-90 50 c68 -87 65 -94 -39 -86 -52 5 -90 4 -98 -2 -6 -6 -34 -13
-62 -16 l-50 -7 24 20 c13 11 29 20 37 20 8 0 14 6 14 13 0 6 7 3 16 -8 10
-14 17 -16 22 -8 10 17 91 20 101 4 6 -8 11 -9 15 -3 3 6 -1 18 -10 27 -14 14
-32 105 -21 105 2 0 25 -27 51 -59z m-796 -26 c1 -41 -2 -75 -6 -75 -9 0 -96
110 -91 114 13 12 67 35 80 36 12 0 16 -14 17 -75z m732 55 c0 -14 -7 -20 -22
-20 -20 0 -21 1 -3 20 10 11 20 20 22 20 1 0 3 -9 3 -20z m-587 -10 c14 -11
39 -43 56 -71 l31 -50 -77 7 c-43 4 -80 8 -82 10 -2 2 2 10 8 18 7 8 10 20 6
26 -8 12 13 80 24 80 5 0 20 -9 34 -20z m805 -20 c46 -23 52 -42 27 -95 -11
-25 -14 -26 -15 -10 -3 25 -3 25 6 60 6 27 6 29 -8 17 -14 -11 -20 -9 -37 9
-18 20 -27 39 -18 39 2 0 22 -9 45 -20z m-1014 -55 c61 -75 55 -85 -46 -85
l-81 0 6 36 c6 36 50 104 67 104 5 0 29 -25 54 -55z m802 30 c2 -20 -3 -22
-47 -22 -27 1 -49 3 -49 6 0 2 8 13 17 23 24 27 78 22 79 -7z m214 -30 c0 -12
-19 -12 -23 0 -4 9 -1 12 9 8 7 -3 14 -7 14 -8z m-22 -26 c21 -34 -2 -49 -31
-21 -19 19 -20 24 -7 32 21 13 23 13 38 -11z m18 -104 c-14 -56 -44 -79 -86
-69 -30 7 -60 32 -60 51 0 19 13 16 33 -7 9 -11 24 -20 33 -20 18 0 53 38 54
58 0 7 5 23 11 34 19 35 28 5 15 -47z m-916 10 l23 -12 -26 0 c-32 0 -50 18
-40 43 6 17 7 17 13 0 3 -10 17 -24 30 -31z m-66 8 c6 -16 -14 -51 -68 -118
-20 -25 -26 -27 -39 -17 -27 23 -54 89 -49 121 l4 31 73 0 c59 0 74 -3 79 -17z
m536 -3 c0 -14 -7 -20 -23 -20 -16 0 -23 6 -24 20 -1 15 4 20 23 20 17 0 24
-5 24 -20z m330 0 c0 -5 -4 -10 -10 -10 -5 0 -10 5 -10 10 0 6 5 10 10 10 6 0
10 -4 10 -10z m-624 -78 c-14 -22 -31 -44 -37 -48 -13 -8 -98 81 -99 103 0 8
25 13 78 15 91 4 99 -6 58 -70z m-189 -18 c2 -78 -3 -86 -55 -78 -75 12 -78
21 -26 87 59 76 78 74 81 -9z m81 12 c23 -29 42 -58 42 -64 0 -12 -53 -32 -86
-32 -23 0 -24 3 -24 68 0 100 7 103 68 28z m480 38 c23 -3 45 -11 48 -15 5 -9
-66 -5 -141 7 -128 20 -130 21 -40 19 50 -2 109 -7 133 -11z m-14 -31 c69 -6
69 -6 47 -25 -29 -22 -54 -23 -86 -2 -14 9 -42 23 -63 31 l-37 14 35 -6 c19
-3 66 -9 104 -12z"/>
<path d="M549 589 c-9 -5 -1 -20 28 -52 22 -24 49 -57 59 -73 43 -67 98 -124
120 -124 15 0 40 20 76 61 54 61 71 88 48 74 -9 -6 -11 -4 -5 6 5 7 8 30 6 51
-3 40 3 43 46 32 23 -6 23 -6 -7 -42 -16 -20 -27 -38 -25 -40 3 -3 15 8 27 24
13 16 30 36 40 45 15 16 15 18 -5 23 -12 4 -76 9 -142 12 -66 2 -150 6 -187 8
-37 2 -72 -1 -79 -5z m72 -19 c16 0 19 -7 19 -42 l-1 -43 -25 30 c-14 17 -30
39 -36 49 -9 16 -8 18 7 13 9 -4 25 -7 36 -7z m207 -58 l3 -60 -65 -4 c-35 -1
-62 0 -59 5 2 4 -10 7 -27 7 l-31 0 3 60 3 59 85 -4 85 -4 3 -59z m32 -2 c0
-52 -3 -62 -24 -76 -19 -12 -29 -13 -43 -4 -16 10 -16 10 3 5 38 -10 57 21 51
82 -3 30 -2 53 4 53 5 0 9 -27 9 -60z m-180 -70 c0 -5 -2 -10 -4 -10 -3 0 -8
5 -11 10 -3 6 -1 10 4 10 6 0 11 -4 11 -10z m120 -35 c16 -19 -4 -28 -56 -23
-27 2 -40 8 -42 21 -3 14 4 17 41 17 27 0 49 -6 57 -15z"/>
<path d="M398 445 c-26 -35 -22 -44 7 -13 14 15 25 30 25 33 0 12 -16 3 -32
-20z"/>
<path d="M962 431 c-9 -5 -4 -8 16 -7 17 1 28 4 25 9 -6 9 -25 9 -41 -2z"/>
<path d="M840 2348 c0 -22 31 -39 50 -28 8 5 22 2 37 -7 35 -23 27 -9 -12 21
-22 17 -32 21 -29 11 8 -21 -16 -19 -32 3 -12 16 -13 16 -14 0z"/>
<path d="M936 2347 c7 -19 42 -42 52 -33 3 3 0 6 -6 6 -6 0 -21 10 -32 23 -16
17 -20 18 -14 4z"/>
<path d="M822 2280 c-18 -29 -15 -36 8 -15 20 18 26 35 12 35 -4 0 -13 -9 -20
-20z"/>
<path d="M924 2275 c11 -8 22 -12 25 -9 6 6 -19 24 -34 24 -5 -1 -1 -7 9 -15z"/>
<path d="M830 2250 c0 -5 5 -10 10 -10 6 0 10 5 10 10 0 6 -4 10 -10 10 -5 0
-10 -4 -10 -10z"/>
<path d="M912 2251 c2 -7 7 -12 11 -12 12 1 9 15 -3 20 -7 2 -11 -2 -8 -8z"/>
<path d="M860 2192 c0 -4 9 -8 20 -9 11 -1 18 2 15 8 -7 11 -35 12 -35 1z"/>
<path d="M676 2165 c-9 -26 -7 -32 5 -12 6 10 9 21 6 23 -2 3 -7 -2 -11 -11z"/>
<path d="M863 2133 c-7 -2 -13 -9 -13 -14 0 -6 8 -6 19 1 11 5 27 7 37 3 12
-4 15 -3 10 5 -7 12 -31 14 -53 5z"/>
<path d="M870 2040 l-25 -8 27 -1 c15 -1 30 4 33 9 7 11 0 11 -35 0z"/>
</g>
</svg>
