<?xml version="1.0" standalone="no"?>
<!DOCTYPE svg PUBLIC "-//W3C//DTD SVG 20010904//EN"
 "http://www.w3.org/TR/2001/REC-SVG-20010904/DTD/svg10.dtd">
<svg version="1.0" xmlns="http://www.w3.org/2000/svg"
 width="274.000000pt" height="270.000000pt" viewBox="0 0 274.000000 270.000000"
 preserveAspectRatio="xMidYMid meet">

<g transform="translate(0.000000,270.000000) scale(0.100000,-0.100000)"
fill="#000000" stroke="none">
<path d="M896 2656 c-10 -25 -26 -47 -40 -54 -22 -10 -75 -72 -62 -72 4 0 -18
-21 -48 -47 -62 -55 -71 -70 -55 -89 15 -18 30 -18 55 1 18 14 17 14 -13 9
-18 -4 -33 -2 -33 3 0 13 90 98 120 114 29 15 95 30 128 30 33 -1 97 -36 121
-67 42 -54 22 -58 -40 -9 -24 19 -51 35 -59 35 -10 -1 -9 -4 5 -12 11 -6 34
-23 50 -39 17 -15 42 -31 58 -34 41 -11 36 25 -11 74 -21 23 -44 52 -50 66 -7
15 -30 34 -53 44 -22 10 -36 22 -31 25 12 7 -4 66 -18 66 -4 0 -15 -20 -24
-44z m20 -34 c-12 -11 -18 7 -10 30 l8 23 4 -23 c2 -13 1 -26 -2 -30z m72 -33
c12 -5 22 -15 22 -24 0 -12 -5 -13 -26 -4 -29 10 -118 -2 -155 -21 -19 -11
-20 -10 -9 10 6 11 26 30 43 40 32 20 69 20 125 -1z"/>
<path d="M929 2485 c-3 -2 -28 -5 -57 -6 -42 -2 -56 -7 -79 -31 -15 -15 -29
-38 -32 -51 -10 -46 -3 -205 10 -213 5 -3 9 -15 9 -27 0 -29 10 -43 38 -51 21
-7 22 -4 22 38 0 32 5 48 17 54 11 7 16 21 15 45 -2 41 5 48 35 41 21 -6 36
-41 51 -119 11 -55 38 -60 48 -8 4 21 8 52 8 70 1 24 4 29 14 21 21 -18 26 0
14 53 -7 28 -12 70 -12 94 0 45 -28 94 -48 81 -6 -3 -13 -20 -17 -36 -4 -17
-11 -28 -16 -24 -5 3 -9 1 -9 -4 0 -6 -6 -10 -12 -9 -56 2 -80 -4 -74 -18 12
-32 -5 -13 -19 22 -8 20 -18 33 -21 30 -11 -10 27 -74 51 -87 21 -11 29 -11
50 0 13 7 22 17 19 22 -3 5 3 12 15 15 12 3 21 9 21 14 0 4 5 20 11 36 18 48
31 5 18 -58 -6 -28 -9 -72 -5 -97 7 -50 -3 -154 -14 -147 -4 2 -7 22 -8 45 -1
22 -8 55 -15 73 -8 17 -12 37 -10 43 5 14 -24 26 -32 14 -4 -6 -16 -10 -28
-10 -42 0 -62 -38 -61 -112 0 -38 -3 -68 -7 -68 -15 0 -31 42 -31 79 0 20 -6
54 -13 76 -7 22 -11 49 -10 60 7 63 34 115 59 115 6 0 22 -9 36 -20 31 -24 50
-25 50 -4 0 11 -6 15 -20 11 -12 -3 -20 0 -20 8 0 21 29 26 39 7 9 -16 11 -15
30 5 12 12 21 25 21 28 0 6 -25 7 -31 0z m-9 -99 c0 -3 -4 -8 -10 -11 -5 -3
-10 -1 -10 4 0 6 5 11 10 11 6 0 10 -2 10 -4z m110 -91 c0 -14 -2 -25 -4 -25
-2 0 -6 11 -8 25 -3 14 -1 25 3 25 5 0 9 -11 9 -25z m-174 -83 c-12 -11 -18 7
-10 30 l8 23 4 -23 c2 -13 1 -26 -2 -30z"/>
<path d="M1376 2446 c-38 -37 -43 -50 -25 -61 6 -4 10 -1 8 6 -4 31 2 44 11
24 8 -20 9 -20 9 1 1 23 30 54 51 54 7 0 1 -9 -14 -21 -14 -11 -26 -26 -26
-32 0 -7 10 -1 21 13 20 24 20 24 14 3 -4 -14 -2 -23 4 -23 6 0 11 9 11 21 0
11 5 17 10 14 6 -3 10 -15 10 -26 0 -10 4 -19 9 -19 6 0 6 12 1 30 -10 35 -4
38 21 8 23 -25 23 -26 3 -58 -8 -14 -13 -18 -11 -9 3 9 -1 16 -8 16 -20 0 -5
-34 18 -42 12 -4 24 -7 27 -7 3 0 4 -15 2 -34 -3 -21 0 -34 7 -34 6 0 11 -6
11 -13 0 -8 14 -27 30 -43 39 -37 60 -76 60 -111 0 -15 6 -48 14 -73 7 -25 11
-51 9 -57 -3 -7 2 -16 11 -19 8 -3 18 -20 21 -37 4 -18 17 -50 29 -73 22 -40
22 -41 4 -53 -10 -6 -47 -22 -82 -35 l-64 -23 -16 36 c-14 35 -22 59 -31 98
-2 10 -11 44 -20 77 -9 32 -15 59 -13 60 2 0 13 7 25 14 13 6 30 12 38 12 15
0 20 12 9 23 -8 8 -124 -59 -144 -83 -15 -19 -123 -69 -170 -80 -30 -7 -69
-19 -87 -26 -48 -21 -70 -18 -75 11 -3 14 -2 25 3 25 4 0 20 5 36 12 15 6 30
12 33 13 31 10 106 49 114 58 9 11 89 63 199 131 16 10 26 20 23 23 -8 8 35
38 53 38 8 0 16 6 18 13 3 8 -2 10 -14 6 -15 -5 -15 -4 -3 5 8 5 11 13 8 17
-4 3 -21 -4 -38 -16 l-31 -22 -6 21 c-3 11 -9 18 -14 16 -4 -3 -6 -11 -3 -18
3 -8 -15 -22 -43 -36 -27 -12 -79 -41 -116 -63 -90 -54 -169 -81 -180 -62 -5
8 -7 22 -6 32 4 27 -11 61 -32 72 -21 12 -31 -5 -45 -75 -6 -32 -10 -36 -30
-32 -31 6 -30 3 7 -44 23 -29 38 -39 60 -39 16 0 29 4 29 9 0 5 -9 7 -20 4
-22 -6 -45 9 -61 39 -10 18 -9 19 20 3 17 -8 31 -11 31 -6 0 5 -7 11 -15 15
-18 7 -18 28 1 81 l14 40 -5 -44 c-2 -30 -1 -40 6 -30 6 10 9 11 9 1 0 -7 4
-11 9 -8 11 7 21 -28 21 -77 0 -35 2 -38 23 -33 12 3 0 -5 -28 -19 -64 -32
-83 -32 -91 0 -3 14 -11 25 -16 25 -6 0 -7 -7 -4 -15 4 -10 -6 -7 -28 10 -18
14 -36 25 -39 25 -4 0 -6 -23 -5 -50 2 -42 8 -55 34 -81 30 -29 36 -31 78 -25
25 4 46 13 46 19 0 9 2 9 8 -1 6 -9 20 -6 60 13 28 13 70 28 94 31 48 8 99 32
173 81 l50 33 13 -47 c7 -27 32 -109 56 -183 l43 -135 -55 -80 c-30 -44 -70
-108 -89 -143 -39 -72 -39 -76 9 -212 18 -52 27 -96 24 -112 -3 -16 0 -33 8
-41 7 -7 16 -22 20 -33 5 -17 -2 -25 -39 -45 -82 -43 -72 -69 27 -69 63 0 77
4 120 31 26 17 58 43 71 58 12 15 31 30 41 34 14 6 17 13 12 35 -4 15 -7 36
-7 47 1 11 -9 68 -20 128 l-20 107 32 83 c17 45 36 90 41 100 5 10 6 22 4 26
-3 5 3 16 14 26 26 24 33 63 20 116 -6 24 -14 55 -17 69 -3 14 -12 28 -19 33
-7 4 -16 28 -20 54 -6 39 -46 166 -71 223 -8 19 -10 29 -12 59 0 12 -17 39
-36 58 -19 19 -35 39 -35 43 0 5 -9 15 -21 23 l-20 15 20 33 c26 43 26 69 1
120 -22 43 -41 53 -113 64 -43 7 -48 5 -81 -29z m178 -77 c-3 -5 2 -9 10 -9
18 0 21 -16 6 -25 -5 -3 -10 -1 -10 6 0 7 -3 9 -6 6 -4 -4 -1 -14 6 -22 10
-12 10 -19 2 -27 -12 -12 -15 -8 -27 45 -4 20 -10 27 -21 23 -12 -5 -12 -2 -3
15 6 11 8 27 5 35 -3 9 -1 12 4 9 6 -3 10 2 11 12 0 10 7 1 15 -21 7 -21 11
-42 8 -47z m-84 -219 c0 -13 -27 -38 -87 -78 -115 -77 -169 -105 -216 -109
-36 -4 -38 -3 -32 19 4 13 8 23 9 24 0 0 26 11 56 23 30 13 87 41 125 64 56
33 126 71 143 76 1 1 2 -8 2 -19z m-494 -221 c23 -26 65 -48 80 -42 6 2 14 -7
16 -21 4 -21 0 -27 -24 -35 -33 -12 -70 1 -65 21 1 7 -3 12 -10 13 -6 0 -15 4
-20 9 -4 5 -3 6 3 3 6 -4 19 -1 29 6 16 12 15 15 -15 40 -17 15 -27 27 -22 27
5 0 17 -9 28 -21z m-11 -19 c16 -17 16 -20 3 -15 -9 4 -19 13 -22 21 -7 19 -2
18 19 -6z m813 -199 c18 -57 15 -105 -8 -134 -11 -14 -19 -29 -18 -34 4 -12
-63 -186 -78 -204 -16 -18 -19 -33 -5 -25 5 3 14 -20 20 -52 6 -31 15 -78 21
-104 12 -61 5 -81 -26 -74 -14 4 -24 2 -24 -4 0 -5 14 -10 30 -10 25 0 30 -4
30 -25 0 -27 -3 -28 -38 -19 -24 7 -44 44 -61 109 -22 89 -43 170 -47 180 -3
6 32 51 76 100 83 92 132 163 63 90 -112 -118 -171 -190 -161 -196 13 -8 48
-114 48 -144 0 -11 9 -45 20 -75 11 -30 20 -56 20 -58 0 -2 -16 -10 -35 -18
-25 -10 -41 -12 -54 -5 -10 6 -21 8 -24 4 -3 -3 -9 8 -13 23 -3 16 -24 82 -46
148 -27 79 -38 129 -35 150 6 39 77 162 137 241 47 61 66 95 52 95 -5 0 -13
-5 -20 -12 -9 -9 -12 -6 -12 14 0 15 -6 29 -12 32 -7 3 -3 3 9 0 23 -5 112 36
135 63 16 19 42 -6 56 -56z m-109 -727 c-51 -54 -109 -84 -165 -84 -83 0 -91
8 -41 41 23 16 48 29 55 29 6 0 12 5 12 10 0 6 12 10 28 10 15 0 43 8 62 18
24 13 41 15 53 9 18 -8 18 -10 -4 -33z"/>
<path d="M1532 2400 c0 -14 2 -19 5 -12 2 6 2 18 0 25 -3 6 -5 1 -5 -13z"/>
<path d="M1485 940 c3 -5 13 -10 21 -10 8 0 14 5 14 10 0 6 -9 10 -21 10 -11
0 -17 -4 -14 -10z"/>
<path d="M1376 2383 c-12 -12 -6 -25 9 -20 8 4 17 2 20 -3 4 -6 11 -10 16 -10
6 0 7 4 4 10 -9 15 -41 30 -49 23z"/>
<path d="M1382 2336 c1 -10 8 -17 13 -17 15 1 12 24 -3 29 -9 3 -13 -2 -10
-12z"/>
<path d="M1501 2314 c0 -11 3 -14 6 -6 3 7 2 16 -1 19 -3 4 -6 -2 -5 -13z"/>
<path d="M1357 2306 c-11 -27 -8 -36 8 -36 16 0 17 5 6 34 -7 18 -8 18 -14 2z"/>
<path d="M2461 2296 l-22 -24 25 -25 c14 -14 28 -22 31 -17 3 5 -5 16 -17 24
-12 9 -19 19 -15 22 10 10 78 13 72 3 -4 -5 9 -6 27 -4 28 5 30 4 11 -4 -27
-12 -30 -31 -5 -31 9 0 24 -5 32 -11 12 -8 10 -9 -7 -4 -18 5 -21 3 -18 -14 2
-12 0 -21 -5 -21 -5 0 -7 -7 -4 -15 4 -10 0 -15 -12 -15 -16 0 -17 -2 -4 -10
12 -7 18 -3 27 18 7 15 12 20 12 12 1 -22 -15 -43 -33 -46 -21 -3 -115 -76
-116 -90 0 -6 -10 -24 -22 -40 -14 -18 -16 -24 -5 -15 11 9 17 10 17 2 0 -6
-4 -11 -10 -11 -5 0 -10 -5 -10 -11 0 -6 7 -9 15 -5 33 12 11 -22 -56 -90 -53
-53 -76 -70 -91 -66 -18 4 -18 6 5 21 29 19 97 98 97 113 0 6 7 8 15 4 22 -8
18 10 -7 35 -13 12 -17 19 -10 15 9 -5 12 7 12 47 0 41 4 56 16 61 12 5 15 2
10 -10 -14 -37 -19 -69 -8 -59 6 6 14 28 18 51 5 33 3 42 -10 47 -9 4 -16 1
-16 -6 0 -8 -13 -13 -33 -13 -37 0 -137 -48 -253 -122 -104 -66 -134 -90 -134
-108 0 -9 -4 -12 -10 -9 -5 3 -7 0 -4 -9 3 -8 12 -17 20 -20 9 -3 12 -11 9
-16 -4 -6 -3 -10 2 -9 4 1 28 -7 53 -19 25 -11 40 -21 33 -21 -7 -1 -30 -20
-52 -43 -92 -99 -95 -107 -63 -166 15 -28 16 -52 12 -171 l-5 -139 -76 -80
c-42 -44 -80 -90 -84 -103 -4 -13 -17 -36 -28 -51 -17 -22 -18 -30 -7 -43 7
-8 9 -15 4 -15 -4 0 -2 -6 4 -12 7 -7 17 -13 22 -13 5 0 24 -17 43 -37 38 -42
76 -49 114 -23 26 18 21 41 -12 49 -14 4 -27 18 -34 37 -12 34 -16 29 107 142
29 27 59 61 67 77 22 43 37 118 37 188 0 56 1 62 15 50 9 -7 30 -18 47 -23 31
-10 31 -11 28 -74 -1 -35 -6 -69 -11 -75 -4 -6 -14 -41 -21 -78 -7 -40 -20
-74 -31 -84 -10 -9 -19 -21 -19 -27 0 -27 167 -177 198 -177 16 0 15 31 -2 55
-19 28 -48 147 -37 154 5 3 13 33 19 66 6 33 20 95 31 139 12 43 21 99 21 123
0 49 -2 51 -132 150 -37 28 -64 54 -59 57 5 4 12 19 16 34 8 35 51 68 69 53 7
-6 16 -8 19 -4 4 3 18 1 30 -6 57 -30 118 12 104 71 -6 24 -10 25 -54 20 -46
-5 -47 -4 -32 14 9 10 25 29 35 42 24 28 29 28 30 -3 1 -14 -2 -25 -7 -25 -5
0 -9 -5 -9 -11 0 -8 4 -9 13 0 11 8 30 3 83 -23 38 -18 84 -37 102 -40 32 -8
39 -20 23 -45 -11 -17 -88 -9 -132 13 -16 8 -29 11 -29 6 0 -16 77 -43 134
-46 32 -2 69 -10 83 -19 21 -14 25 -14 47 2 33 24 38 51 15 74 -21 21 -22 21
-94 23 -28 1 -72 12 -100 25 -27 13 -65 30 -82 38 -18 8 -33 22 -33 30 0 18
19 56 33 65 6 3 12 30 14 59 3 59 23 96 58 109 12 5 26 14 30 20 3 5 10 8 15
5 13 -8 60 54 60 78 0 12 -3 39 -7 61 -5 31 -12 41 -39 52 -50 21 -87 17 -113
-10z m89 4 c18 -12 2 -12 -25 0 -13 6 -15 9 -5 9 8 0 22 -4 30 -9z m43 -47
c-7 -2 -19 -2 -25 0 -7 3 -2 5 12 5 14 0 19 -2 13 -5z m14 -69 c2 -13 1 -15
-4 -4 -3 8 -11 19 -17 23 -7 6 -6 7 4 4 8 -2 16 -12 17 -23z m-252 -113 c3
-16 3 -45 -1 -65 -4 -24 -2 -36 5 -36 20 0 11 -31 -19 -63 -16 -18 -30 -35
-30 -39 0 -3 -16 -16 -36 -27 l-36 -21 -44 19 c-40 18 -43 22 -33 40 7 10 39
34 71 53 32 18 58 37 58 41 0 8 -21 -3 -119 -65 -25 -15 -51 -28 -58 -28 -17
0 -17 -15 0 -27 6 -5 39 -18 72 -27 91 -26 105 -34 105 -55 0 -30 -13 -33 -72
-17 -131 35 -235 96 -222 131 12 29 307 213 346 215 3 0 9 -13 13 -29z m25
-18 c0 -25 -2 -44 -4 -42 -8 10 -13 89 -5 89 5 0 9 -21 9 -47z m10 -273 c-10
-6 -11 -10 -2 -10 15 0 16 -32 0 -48 -28 -28 -85 0 -74 36 6 19 23 26 76 30
13 2 13 1 0 -8z m-238 -21 c33 -17 38 -23 26 -30 -23 -13 -102 23 -86 39 15
15 12 16 60 -9z m528 -9 c0 -5 -3 -9 -7 -9 -20 3 -24 -2 -14 -15 16 -19 3 -50
-15 -35 -7 6 -17 8 -22 5 -5 -3 -7 6 -4 19 2 14 11 25 18 25 8 0 14 5 14 10 0
6 7 10 15 10 8 0 15 -4 15 -10z m-465 -29 c-3 -6 -11 -11 -17 -11 -6 0 -6 6 2
15 14 17 26 13 15 -4z m500 9 c3 -6 -1 -7 -9 -4 -18 7 -21 14 -7 14 6 0 13 -4
16 -10z m-602 -36 c40 -12 57 -22 57 -34 0 -27 -12 -31 -37 -15 -13 9 -23 12
-23 7 0 -5 45 -39 100 -77 94 -64 150 -123 150 -156 0 -8 -14 -71 -30 -140
-17 -68 -33 -134 -35 -145 -4 -20 -8 -21 -47 -13 -22 6 -45 12 -49 15 -4 2 3
44 16 92 13 48 26 108 29 134 7 48 5 50 -44 63 -30 9 -107 52 -140 80 -23 19
-46 35 -51 35 -13 0 -39 56 -39 84 0 29 57 99 74 92 6 -2 37 -12 69 -22z m-30
-227 c28 -23 28 -24 24 -128 -3 -81 -9 -112 -24 -139 -12 -19 -26 -34 -33 -32
-6 1 -9 -2 -6 -7 4 -5 -17 -31 -46 -58 -28 -26 -61 -58 -73 -69 l-20 -22 -38
32 -38 32 29 39 c16 22 52 62 81 88 l52 49 4 131 c2 73 4 136 4 140 1 8 31
-12 84 -56z m172 -361 c16 -5 24 -21 34 -67 8 -33 22 -77 32 -97 11 -20 19
-38 19 -40 0 -2 -24 14 -53 35 -53 38 -127 113 -127 129 0 16 44 54 59 50 9
-2 25 -7 36 -10z m-365 -107 c4 -8 12 -24 19 -36 7 -15 7 -23 1 -23 -5 0 -10
-5 -10 -11 0 -6 7 -8 16 -5 19 7 57 -11 49 -25 -4 -5 -22 -9 -41 -9 -30 0 -43
8 -85 53 -54 58 -58 69 -29 90 11 8 17 18 12 23 -4 4 9 -3 27 -17 19 -14 38
-32 41 -40z"/>
<path d="M1380 2250 c0 -5 7 -10 15 -10 9 0 12 -6 8 -17 -5 -17 -5 -17 13 0
16 15 17 19 4 27 -20 13 -40 13 -40 0z"/>
<path d="M9 2213 c5 -16 20 -53 33 -83 14 -30 23 -61 20 -69 -3 -8 0 -11 7 -7
6 4 11 3 11 -3 0 -5 -4 -12 -9 -15 -8 -5 -17 -51 -41 -196 -4 -30 -8 -62 -9
-70 0 -8 -3 -34 -7 -57 -4 -29 -3 -43 5 -43 6 0 11 -11 11 -25 0 -30 32 -64
56 -61 32 5 41 32 21 65 -20 35 -22 90 -3 97 7 3 22 20 32 39 l18 33 20 -26
c15 -19 21 -43 23 -82 1 -56 18 -168 26 -176 8 -9 48 -13 63 -7 10 4 14 17 12
44 -1 21 -5 36 -10 33 -4 -3 -8 -1 -8 5 0 5 -3 17 -6 25 -5 12 -2 15 9 10 27
-10 37 4 26 33 -13 36 15 93 43 85 10 -2 18 -13 18 -23 0 -11 4 -27 9 -37 6
-9 26 -52 46 -94 30 -66 40 -78 60 -78 13 0 27 5 30 10 4 6 11 8 16 4 13 -7
-17 65 -35 86 -23 26 -24 45 -10 106 13 56 11 94 -4 94 -4 0 -7 -21 -8 -47 0
-27 -5 -62 -11 -79 -9 -27 -7 -37 18 -78 16 -25 29 -52 29 -60 0 -11 -20 -26
-36 -26 -9 0 -84 172 -84 194 0 15 8 30 20 36 31 16 15 30 -23 19 -44 -13 -44
-13 -40 24 l3 32 -11 -35 c-6 -19 -24 -55 -41 -79 -48 -71 -52 -88 -28 -128
16 -27 18 -38 9 -49 -20 -24 -42 -17 -37 11 3 13 2 22 -2 20 -17 -10 -40 162
-24 178 10 9 11 87 2 87 -5 0 -8 -9 -8 -19 0 -30 -17 -34 -34 -10 -11 16 -12
27 -6 40 13 23 12 29 0 29 -5 0 -10 -7 -10 -15 0 -26 -40 -96 -68 -120 -26
-22 -26 -24 -14 -66 26 -86 26 -89 6 -89 -27 0 -44 46 -45 121 -1 69 6 154 15
167 3 5 8 36 12 68 3 32 10 63 15 69 15 15 11 35 -26 111 -19 40 -35 76 -35
80 0 4 24 -19 54 -52 l53 -59 79 -1 c102 -1 164 -18 164 -44 0 -11 -14 -35
-31 -55 -23 -26 -27 -35 -15 -35 9 0 16 5 16 10 0 6 6 10 14 10 8 0 17 14 21
31 4 17 13 33 21 36 11 4 12 9 3 19 -6 8 -8 25 -5 40 l7 27 25 -23 c13 -13 24
-19 24 -13 0 13 -33 43 -47 43 -6 0 -14 -13 -18 -30 -6 -27 -25 -43 -25 -22 0
11 -2 11 -125 18 l-100 6 -59 59 c-32 32 -62 59 -67 59 -4 0 -4 -12 0 -27z
m18 -525 c-3 -7 -5 -2 -5 12 0 14 2 19 5 13 2 -7 2 -19 0 -25z m273 -19 c0 -5
-4 -9 -10 -9 -5 0 -10 7 -10 16 0 8 5 12 10 9 6 -3 10 -10 10 -16z"/>
<path d="M2420 2212 c-8 -15 -16 -31 -19 -36 -2 -5 1 -6 8 -2 13 8 34 56 28
62 -2 2 -10 -8 -17 -24z"/>
<path d="M2454 2229 c-4 -7 -3 -14 4 -17 15 -5 -7 -42 -25 -42 -16 0 -17 -12
-1 -28 20 -20 41 -15 35 8 -3 11 0 26 7 33 9 9 9 17 0 35 -9 18 -14 20 -20 11z"/>
<path d="M2518 2223 c6 -2 12 -14 12 -24 0 -11 5 -17 10 -14 13 8 -6 45 -23
44 -9 0 -9 -2 1 -6z"/>
<path d="M1424 2206 c-10 -8 -16 -17 -13 -20 3 -3 14 1 25 8 10 8 16 17 13 20
-3 3 -14 -1 -25 -8z"/>
<path d="M2500 2200 c0 -5 5 -10 10 -10 6 0 10 5 10 10 0 6 -4 10 -10 10 -5 0
-10 -4 -10 -10z"/>
<path d="M495 2146 c-10 -15 -15 -29 -12 -32 3 -3 11 4 17 16 l12 22 19 -28
c10 -16 19 -24 19 -19 0 6 -9 23 -19 39 l-19 28 -17 -26z"/>
<path d="M538 2063 c-22 -6 -23 -22 -2 -30 15 -5 33 11 34 30 0 7 -4 7 -32 0z"/>
<path d="M438 2043 c-10 -2 -18 -9 -18 -15 0 -5 6 -8 14 -5 10 4 12 0 8 -15
-3 -15 -1 -19 9 -16 8 3 14 11 14 19 0 8 7 19 15 26 13 11 12 12 -5 12 -11 -1
-28 -3 -37 -6z"/>
<path d="M515 2009 c-4 -6 -5 -12 -2 -15 2 -3 7 2 10 11 7 17 1 20 -8 4z"/>
<path d="M536 2004 c-5 -14 -4 -15 9 -4 17 14 19 20 6 20 -5 0 -12 -7 -15 -16z"/>
<path d="M574 2011 c3 -5 -1 -11 -9 -15 -30 -11 -14 -27 25 -24 44 2 48 8 24
32 -16 17 -49 22 -40 7z"/>
<path d="M560 1943 c-72 -15 -100 -38 -76 -62 19 -18 126 -29 126 -12 0 6 7
11 16 11 8 0 13 4 9 9 -3 5 -18 7 -32 5 -15 -3 -25 -2 -21 1 3 4 14 8 24 9 24
4 30 26 7 27 -15 0 -14 2 5 9 12 5 22 12 22 15 0 6 3 6 -80 -12z m25 -21 c-4
-4 -25 -8 -68 -11 -28 -2 -9 -21 21 -21 18 0 23 -3 16 -10 -7 -7 -19 -8 -37
-1 -33 13 -35 29 -4 40 23 9 81 12 72 3z"/>
<path d="M410 1862 c0 -14 109 -28 188 -24 22 1 32 7 32 18 0 13 -3 14 -15 4
-15 -12 -97 -10 -172 6 -20 4 -33 2 -33 -4z"/>
<path d="M255 1560 c3 -5 8 -10 11 -10 2 0 4 5 4 10 0 6 -5 10 -11 10 -5 0 -7
-4 -4 -10z"/>
<path d="M900 1241 c0 -6 -11 -13 -24 -17 -14 -3 -32 -14 -42 -25 -22 -24 -13
-24 28 1 36 22 68 26 68 10 0 -6 -6 -25 -13 -43 -14 -31 -8 -82 6 -60 4 6 5
18 2 25 -3 8 0 20 8 26 20 17 8 86 -16 90 -9 2 -17 -1 -17 -7z"/>
<path d="M748 1204 c-4 -3 -3 -16 2 -29 5 -14 4 -44 -4 -79 -7 -30 -11 -58 -8
-60 2 -3 -11 -23 -30 -45 -43 -50 -72 -109 -93 -186 -24 -88 -18 -209 13 -255
9 -14 18 -38 20 -55 1 -16 5 -36 7 -42 6 -17 61 -17 68 0 9 23 -4 162 -19 202
l-15 40 7 -50 c3 -27 7 -82 8 -120 2 -63 1 -71 -16 -72 -10 -1 -16 2 -13 8 4
5 2 9 -3 9 -5 0 -8 12 -7 27 1 16 -3 34 -9 42 -8 11 -8 13 0 8 13 -7 27 17 16
27 -11 12 -13 59 -3 65 7 5 7 26 2 61 -5 30 -7 58 -4 63 2 4 -3 7 -12 7 -12 0
-15 -5 -11 -17 4 -10 4 -14 0 -10 -5 4 -14 -3 -21 -15 -22 -40 -15 2 17 103
22 68 41 109 66 138 63 73 106 81 162 33 26 -23 34 -40 47 -107 9 -44 16 -98
15 -120 -3 -70 -1 -81 25 -118 13 -20 21 -39 17 -41 -14 -9 -29 9 -65 73 -30
54 -35 72 -32 115 1 28 1 40 -1 26 -7 -43 -27 -100 -35 -100 -4 0 -13 8 -18
18 -13 22 -14 7 -2 -17 6 -10 11 -65 13 -124 2 -61 9 -112 15 -118 16 -16 5
-39 -18 -39 -21 0 -33 44 -26 106 3 34 -1 45 -25 69 -15 16 -28 32 -28 37 0 4
-10 8 -22 8 -21 0 -19 -4 16 -33 37 -32 38 -35 40 -103 1 -39 6 -75 10 -82 4
-7 22 -12 41 -12 40 0 53 24 28 52 -14 16 -17 36 -15 120 4 136 11 145 52 67
35 -68 45 -79 73 -79 24 0 21 24 -9 72 -20 31 -25 50 -21 78 2 20 1 61 -4 91
-16 90 -13 223 5 258 9 16 16 37 16 46 0 27 -25 11 -25 -16 -1 -13 -10 -42
-20 -65 l-20 -40 -38 13 c-21 7 -53 12 -70 10 -32 -4 -32 -4 -28 37 2 23 8 47
14 54 7 9 7 16 -1 24 -19 19 -14 31 9 25 13 -3 19 -1 16 6 -4 13 -39 21 -49
11z m-114 -536 c4 -17 2 -28 -4 -28 -5 0 -10 14 -10 32 0 36 4 35 14 -4z m-7
-70 c-3 -7 -5 -2 -5 12 0 14 2 19 5 13 2 -7 2 -19 0 -25z"/>
<path d="M837 1174 c-3 -4 -2 -15 4 -25 9 -18 10 -18 29 1 11 11 20 22 20 25
0 7 -46 6 -53 -1z"/>
<path d="M1074 539 c-209 -160 -383 -296 -389 -302 -16 -18 -4 -9 390 293 394
302 392 300 383 300 -3 0 -176 -131 -384 -291z"/>
<path d="M300 200 c-8 -5 -10 -10 -3 -10 6 0 9 -8 6 -19 -3 -12 -11 -17 -22
-14 -23 6 -73 -52 -69 -81 2 -17 10 -21 45 -23 29 -1 46 4 55 15 12 16 11 16
-6 2 -17 -14 -18 -13 -13 5 3 11 11 39 17 63 6 24 14 50 17 58 6 16 -5 18 -27
4z m-10 -66 c0 -30 -31 -73 -52 -74 -15 0 -8 38 13 64 23 29 39 34 39 10z"/>
<path d="M1233 204 c-7 -3 -10 -11 -7 -19 3 -7 -2 -37 -10 -66 -9 -29 -16 -56
-16 -61 0 -15 27 -8 41 10 13 15 12 16 -3 3 -22 -17 -22 -16 1 69 19 68 19 74
-6 64z"/>
<path d="M1300 195 c0 -8 5 -15 10 -15 6 0 10 7 10 15 0 8 -4 15 -10 15 -5 0
-10 -7 -10 -15z"/>
<path d="M1656 188 c-10 -38 -6 -45 9 -18 17 29 18 40 6 40 -5 0 -11 -10 -15
-22z"/>
<path d="M1970 200 c-8 -5 -10 -10 -3 -10 6 0 9 -8 6 -19 -3 -12 -11 -17 -22
-14 -23 6 -73 -52 -69 -81 2 -17 10 -21 45 -23 29 -1 46 4 55 15 12 16 11 16
-6 2 -17 -14 -18 -13 -13 5 3 11 11 39 17 63 6 24 14 50 17 58 6 16 -5 18 -27
4z m-10 -66 c0 -30 -31 -73 -52 -74 -15 0 -8 38 13 64 23 29 39 34 39 10z"/>
<path d="M2040 195 c0 -8 5 -15 10 -15 6 0 10 7 10 15 0 8 -4 15 -10 15 -5 0
-10 -7 -10 -15z"/>
<path d="M570 175 c-7 -9 -14 -26 -15 -38 -1 -12 -5 -37 -9 -54 -6 -26 -4 -33
7 -33 8 0 21 8 28 18 13 15 12 16 -3 3 -10 -7 -18 -9 -18 -4 0 16 23 78 30 83
4 3 4 13 1 23 -6 18 -8 18 -21 2z"/>
<path d="M365 152 c-5 -4 -10 -18 -11 -32 0 -14 -4 -35 -8 -47 -13 -40 9 -25
29 20 14 29 25 41 38 39 10 -2 17 3 17 13 0 20 -9 19 -33 -2 -19 -17 -20 -17
-14 0 7 18 -1 22 -18 9z"/>
<path d="M445 129 c-14 -17 -25 -39 -25 -50 0 -25 27 -36 51 -21 13 9 19 8 22
-1 3 -8 10 -6 23 7 11 10 13 15 5 11 -14 -8 -13 7 5 66 3 12 -3 16 -25 17 -22
0 -37 -8 -56 -29z m55 -2 c0 -28 -26 -67 -46 -67 -34 0 4 89 39 90 4 0 7 -10
7 -23z"/>
<path d="M625 129 c-14 -17 -25 -39 -25 -50 0 -25 27 -36 51 -21 13 9 19 8 22
-1 3 -8 10 -6 23 7 11 10 13 15 5 11 -14 -8 -13 7 5 66 3 12 -3 16 -25 17 -22
0 -37 -8 -56 -29z m55 -2 c0 -28 -26 -67 -46 -67 -34 0 4 89 39 90 4 0 7 -10
7 -23z"/>
<path d="M815 152 c-5 -4 -10 -18 -11 -32 0 -14 -4 -35 -8 -47 -4 -14 -3 -23
3 -23 5 0 14 15 21 34 6 18 20 42 32 52 21 19 21 19 15 -11 -4 -16 -9 -40 -13
-52 -4 -14 -2 -23 5 -23 6 0 11 5 11 11 0 21 32 78 47 83 12 5 14 1 9 -19 -3
-14 -9 -36 -12 -50 -7 -30 16 -35 37 -7 13 16 13 16 -5 2 -18 -14 -19 -13 -13
2 3 9 9 33 13 52 7 39 -2 44 -37 26 -13 -7 -19 -7 -19 0 0 15 -21 12 -42 -7
-18 -16 -18 -16 -12 0 6 18 -4 22 -21 9z"/>
<path d="M995 152 c-6 -4 -10 -14 -11 -22 -1 -8 -4 -30 -8 -47 -6 -26 -4 -33
8 -33 8 0 22 10 30 22 l16 22 0 -22 c0 -26 12 -28 31 -5 12 14 12 16 0 8 -11
-6 -13 -2 -8 21 3 16 9 37 12 47 15 37 -12 14 -38 -34 -33 -59 -43 -59 -27 1
12 44 11 53 -5 42z"/>
<path d="M1100 150 c-9 -5 -9 -9 -1 -11 12 -4 -12 -103 -31 -126 -8 -10 -4
-13 14 -13 21 0 25 4 20 25 -3 20 0 25 17 25 33 0 73 45 69 78 -3 23 -8 27
-39 28 -20 1 -42 -2 -49 -6z m70 -15 c0 -27 -30 -75 -46 -75 -12 0 -14 7 -9
33 4 17 12 38 17 45 14 17 38 15 38 -3z"/>
<path d="M1292 153 c-6 -2 -10 -9 -6 -14 3 -5 0 -25 -6 -45 -14 -42 -6 -55 18
-29 9 10 11 15 5 11 -16 -9 -16 -7 2 43 14 40 12 44 -13 34z"/>
<path d="M1410 150 c-9 -5 -9 -9 -1 -11 12 -4 -12 -103 -31 -126 -8 -10 -4
-13 14 -13 21 0 25 4 20 25 -3 20 0 25 17 25 33 0 73 45 69 78 -3 23 -8 27
-39 28 -20 1 -42 -2 -49 -6z m70 -15 c0 -27 -30 -75 -46 -75 -12 0 -14 7 -9
33 4 17 12 38 17 45 14 17 38 15 38 -3z"/>
<path d="M1544 135 c-34 -34 -30 -79 7 -83 16 -2 31 4 40 15 13 16 12 17 -3 4
-20 -15 -48 -8 -48 11 0 7 15 20 33 28 17 8 33 23 35 33 5 26 -34 21 -64 -8z
m46 5 c0 -5 -9 -14 -20 -20 -22 -12 -27 -1 -8 18 14 14 28 16 28 2z"/>
<path d="M1725 152 c-6 -4 -10 -14 -11 -22 -1 -8 -4 -30 -8 -47 -6 -26 -4 -33
8 -33 8 0 22 10 30 22 l16 22 0 -22 c0 -26 12 -28 31 -5 12 14 12 16 0 8 -11
-6 -13 -2 -8 21 3 16 9 37 12 47 15 37 -12 14 -38 -34 -33 -59 -43 -59 -27 1
12 44 11 53 -5 42z"/>
<path d="M2021 151 c-8 -5 -9 -10 -2 -12 7 -3 6 -19 -4 -54 -24 -81 -25 -82
-35 -65 -5 8 -12 11 -16 7 -4 -4 -3 -12 2 -17 21 -21 44 3 60 59 8 31 18 64
20 74 6 19 -3 22 -25 8z"/>
<path d="M2085 129 c-14 -17 -25 -39 -25 -50 0 -25 27 -36 51 -21 13 9 19 8
22 -1 3 -8 10 -6 23 7 11 10 13 15 5 11 -14 -8 -13 7 5 66 3 12 -3 16 -25 17
-22 0 -37 -8 -56 -29z m55 -2 c0 -28 -26 -67 -46 -67 -34 0 4 89 39 90 4 0 7
-10 7 -23z"/>
<path d="M2205 152 c-5 -4 -10 -18 -11 -32 0 -14 -4 -35 -8 -47 -12 -36 11
-27 24 10 24 67 22 90 -5 69z"/>
<path d="M2239 143 c-13 -17 -13 -17 5 -3 21 16 21 22 0 -65 -7 -30 16 -35 37
-7 13 16 13 16 -5 2 -18 -14 -19 -13 -13 2 3 9 9 33 13 52 5 28 3 36 -9 36 -8
0 -21 -8 -28 -17z"/>
<path d="M2320 65 c0 -8 7 -15 15 -15 8 0 15 7 15 15 0 8 -7 15 -15 15 -8 0
-15 -7 -15 -15z"/>
</g>
</svg>
