<?xml version="1.0" standalone="no"?>
<!DOCTYPE svg PUBLIC "-//W3C//DTD SVG 20010904//EN"
 "http://www.w3.org/TR/2001/REC-SVG-20010904/DTD/svg10.dtd">
<svg version="1.0" xmlns="http://www.w3.org/2000/svg"
 width="256.000000pt" height="262.000000pt" viewBox="0 0 256.000000 262.000000"
 preserveAspectRatio="xMidYMid meet">

<g transform="translate(0.000000,262.000000) scale(0.100000,-0.100000)"
fill="#000000" stroke="none">
<path d="M0 1310 l0 -1310 1280 0 1280 0 0 1310 0 1310 -1280 0 -1280 0 0
-1310z m2550 0 l0 -1300 -1270 0 -1270 0 0 1300 0 1300 1270 0 1270 0 0 -1300z"/>
<path d="M461 2548 c0 -28 3 -37 7 -25 6 14 12 9 30 -29 29 -60 40 -50 13 11
-15 35 -17 44 -6 35 8 -7 15 -8 15 -3 0 10 -24 34 -47 47 -10 5 -13 -4 -12
-36z"/>
<path d="M340 2575 c0 -4 7 -19 15 -34 24 -47 72 -212 80 -271 3 -30 20 -87
36 -127 31 -74 66 -117 153 -188 57 -46 116 -120 116 -145 0 -24 -57 -33 -63
-11 -4 14 -5 14 -6 0 -1 -20 -53 -32 -63 -16 -6 9 -8 9 -8 0 0 -17 -63 -33
-72 -19 -6 8 -8 8 -8 -1 0 -6 -13 -16 -29 -21 -25 -9 -31 -8 -34 6 -4 16 -5
16 -6 0 0 -9 -14 -21 -30 -26 -25 -9 -31 -8 -34 6 -4 15 -5 15 -6 -1 -1 -23
-51 -43 -63 -25 -6 10 -8 10 -8 1 0 -7 -15 -19 -32 -26 -29 -12 -34 -12 -40 2
-6 15 -7 15 -7 0 -1 -9 -12 -21 -26 -27 -21 -10 -25 -9 -26 6 0 13 -2 13 -9
-4 -11 -27 -47 -38 -53 -15 -3 11 -5 9 -6 -6 0 -13 -7 -23 -15 -23 -8 0 -21
-3 -29 -6 -11 -4 -17 2 -20 18 -2 13 -4 3 -4 -22 -1 -25 1 -38 4 -29 5 20 55
32 65 16 5 -8 8 -6 8 5 0 18 33 33 50 23 5 -3 10 -2 10 3 0 15 43 23 52 9 5
-8 8 -7 8 4 0 9 8 19 18 22 9 2 25 8 34 12 12 5 18 0 21 -17 l4 -23 2 23 c1
29 48 53 62 31 7 -12 9 -11 9 3 0 9 13 21 29 26 25 9 31 8 34 -6 4 -15 5 -15
6 0 1 20 53 38 59 20 2 -6 11 -3 23 9 22 22 55 25 62 7 3 -8 6 -6 6 5 1 9 7
17 15 17 8 0 21 3 29 6 10 3 17 -2 20 -13 4 -16 5 -16 6 0 1 13 10 17 35 17
19 0 38 -4 41 -10 11 -17 47 -11 52 9 6 24 72 39 84 19 7 -10 9 -10 9 2 0 16
51 40 83 40 9 0 17 -8 18 -17 0 -15 2 -14 9 3 5 13 21 24 40 28 46 9 50 8 51
-11 0 -14 2 -15 6 -3 3 8 11 18 17 22 18 12 64 9 69 -4 4 -8 6 -7 6 3 1 10 13
19 32 23 50 10 67 7 72 -11 4 -17 5 -17 6 0 1 13 10 17 40 17 29 0 41 -5 44
-17 4 -16 5 -16 6 1 1 16 7 18 38 13 20 -4 40 -12 45 -19 6 -10 8 -10 8 0 0
25 86 10 93 -17 4 -13 5 -13 6 3 1 12 6 16 17 12 9 -3 24 -6 35 -6 13 0 19 -7
20 -22 1 -17 2 -19 6 -5 8 29 77 13 86 -20 4 -17 5 -17 6 0 1 12 10 17 31 17
24 0 30 -4 31 -22 1 -19 2 -19 6 -5 3 12 10 16 21 12 10 -4 29 -9 45 -12 19
-4 27 -12 28 -27 1 -18 2 -18 6 -3 4 14 11 17 26 13 12 -3 25 -6 30 -6 4 0 8
-10 8 -22 1 -19 2 -19 6 -5 3 11 10 16 20 13 8 -3 23 -6 34 -6 13 0 19 -7 20
-22 1 -19 2 -20 6 -4 4 14 11 17 35 12 17 -3 34 -6 39 -6 4 0 10 -8 12 -17 4
-17 5 -17 6 0 1 13 10 17 41 17 34 0 40 -3 41 -22 1 -17 2 -19 6 -5 3 12 14
17 36 17 36 0 51 -8 60 -30 4 -12 6 -11 6 3 1 13 10 17 40 17 33 0 40 -4 44
-22 l4 -23 2 23 c1 19 7 22 40 22 22 0 43 5 47 12 5 8 -5 9 -39 5 -42 -6 -46
-4 -50 16 l-4 22 -2 -22 c-1 -15 -7 -23 -18 -23 -35 0 -62 12 -66 29 -4 14 -5
14 -6 -1 -1 -19 -12 -21 -59 -12 -17 4 -33 14 -35 23 -4 14 -5 14 -6 -1 -2
-29 -69 -25 -81 5 -7 17 -9 18 -9 5 -1 -13 -9 -18 -28 -18 -32 0 -48 9 -56 30
-4 11 -6 11 -6 -4 -1 -12 -6 -16 -17 -12 -9 3 -22 6 -30 6 -8 0 -19 10 -24 23
-6 14 -9 17 -9 6 -1 -24 -50 -12 -61 15 -7 17 -9 18 -9 4 -1 -10 -2 -18 -3
-18 -25 2 -84 32 -89 46 -7 17 -8 17 -8 2 -2 -34 -55 -19 -64 17 -4 17 -5 17
-6 -4 -1 -17 -5 -21 -17 -17 -9 3 -24 6 -35 6 -11 0 -24 10 -29 23 -7 18 -9
19 -9 3 -1 -12 -6 -16 -17 -12 -9 3 -22 6 -30 6 -8 0 -19 10 -24 23 -7 17 -9
18 -9 5 -1 -13 -9 -18 -33 -18 -37 0 -52 8 -61 30 -4 12 -6 11 -6 -2 -1 -14
-10 -18 -40 -18 -29 0 -41 5 -44 18 -4 16 -5 16 -6 0 -1 -14 -10 -18 -40 -18
-29 0 -41 5 -44 18 -4 16 -5 16 -6 0 -1 -15 -10 -18 -50 -18 -30 0 -51 5 -54
13 -4 7 -6 6 -6 -4 -2 -30 -77 -40 -84 -11 -4 16 -5 16 -6 0 -1 -11 -12 -20
-28 -24 -16 -3 -36 -8 -45 -10 -10 -3 -18 2 -21 13 -4 16 -5 16 -6 1 -1 -17
-10 -21 -68 -33 -25 -5 -32 -3 -36 12 -4 15 -5 14 -6 -4 -1 -26 -30 -37 -75
-29 -23 4 -37 16 -51 42 -11 20 -64 78 -118 128 -68 62 -107 107 -124 141 -27
57 -53 153 -53 205 0 38 -16 90 -57 188 -21 51 -30 62 -50 62 -12 0 -23 -2
-23 -5z"/>
<path d="M2150 2538 c-20 -9 -22 -12 -8 -15 14 -3 15 -9 8 -29 -12 -31 -12
-34 0 -34 5 0 15 18 21 40 7 21 19 41 28 43 11 3 10 5 -4 5 -11 0 -31 -4 -45
-10z"/>
<path d="M1675 2529 c-4 -6 1 -17 11 -24 16 -12 16 -16 5 -24 -7 -5 -23 -6
-35 -3 -16 4 -18 2 -10 -7 16 -17 55 -10 68 12 9 15 7 20 -9 29 -19 11 -19 11
0 19 19 7 19 8 -2 8 -12 1 -25 -4 -28 -10z"/>
<path d="M2046 2525 c12 -8 15 -19 10 -38 -4 -16 -2 -27 4 -27 6 0 13 14 17
30 3 17 10 30 16 30 24 0 -7 15 -34 16 -26 1 -27 0 -13 -11z"/>
<path d="M2346 2528 c-13 -41 -15 -68 -6 -68 6 0 13 14 17 30 3 17 10 30 15
30 5 0 6 5 3 10 -9 14 -25 13 -29 -2z"/>
<path d="M1810 2509 c-6 -11 -9 -28 -7 -37 3 -13 7 -11 15 11 14 34 26 36 18
2 -8 -30 10 -34 19 -5 3 11 11 20 16 20 6 0 7 -9 4 -20 -7 -24 10 -27 19 -4 9
23 9 22 -30 39 -45 19 -41 19 -54 -6z"/>
<path d="M1926 2521 c-16 -25 -25 -61 -16 -61 6 0 15 11 20 25 5 14 12 25 16
25 3 0 3 -11 0 -25 -8 -30 10 -34 19 -5 3 11 11 20 16 20 6 0 7 -9 4 -20 -7
-24 10 -27 19 -4 9 23 9 22 -30 39 -43 18 -41 17 -48 6z"/>
<path d="M1747 2513 c-4 -3 -7 -17 -7 -30 0 -31 37 -32 49 0 12 30 4 35 -15
11 -15 -18 -15 -18 -11 4 5 21 -3 29 -16 15z"/>
<path d="M2017 2493 c-5 -27 -2 -41 7 -32 11 10 17 59 8 59 -5 0 -12 -12 -15
-27z"/>
<path d="M2222 2511 c-8 -5 -12 -17 -10 -27 4 -22 45 -31 62 -14 8 10 5 11
-16 6 -35 -8 -39 20 -5 34 20 8 20 9 2 9 -11 0 -26 -3 -33 -8z"/>
<path d="M2296 2494 c-6 -24 -2 -43 8 -33 11 10 17 59 8 59 -5 0 -13 -12 -16
-26z"/>
<path d="M2423 2513 c-51 -10 -56 -67 -6 -61 16 2 31 10 35 18 9 21 10 50 1
49 -5 -1 -18 -4 -30 -6z m11 -22 c7 -10 -22 -37 -30 -28 -9 8 3 37 15 37 5 0
12 -4 15 -9z"/>
<path d="M540 2435 c0 -8 -6 -15 -14 -15 -8 0 -17 -4 -21 -9 -3 -5 10 -9 30
-8 40 2 51 18 24 35 -16 10 -19 9 -19 -3z"/>
<path d="M1658 2318 c-60 -78 -63 -80 -66 -52 -6 58 -10 60 -51 20 -22 -21
-43 -36 -49 -33 -10 7 -182 -205 -182 -224 0 -6 10 1 22 16 12 15 34 42 50 59
16 17 45 55 65 84 24 35 39 48 44 40 5 -8 18 0 43 26 40 44 38 45 51 -59 8
-64 24 -117 35 -110 4 3 1 27 -7 54 -17 53 -13 86 14 116 10 11 37 44 61 74
23 29 42 49 42 43 0 -6 3 -18 7 -28 4 -11 3 -15 -5 -10 -6 3 -13 2 -17 -4 -4
-6 -10 -8 -15 -5 -9 6 -21 -20 -13 -29 3 -3 15 2 28 10 20 13 23 12 33 -10 6
-13 19 -58 28 -100 12 -49 23 -76 32 -76 7 0 10 5 6 11 -3 6 -14 42 -23 79
-16 64 -16 70 -1 91 21 27 44 16 37 -17 -4 -21 -2 -23 12 -12 25 20 51 50 51
60 0 25 20 1 40 -47 23 -58 34 -66 44 -38 5 13 17 -1 48 -55 39 -68 58 -87 58
-60 0 6 -8 20 -17 30 -17 19 -15 21 29 64 40 38 48 42 56 28 8 -14 15 -12 56
20 26 20 51 36 54 36 4 0 17 -20 28 -44 33 -66 87 -145 96 -140 4 3 -5 24 -20
47 -16 23 -44 69 -62 102 -18 33 -34 62 -36 64 -2 2 -26 -15 -53 -38 -45 -38
-51 -40 -60 -24 -9 16 -15 13 -59 -31 l-50 -48 -27 46 c-25 43 -45 59 -45 36
0 -25 -20 -6 -36 35 -9 25 -22 45 -27 45 -6 0 -22 -12 -34 -27 -21 -26 -24
-27 -37 -10 -18 23 -31 22 -54 -7 l-19 -25 -13 55 c-7 29 -17 54 -21 54 -4 0
-36 -37 -71 -82z"/>
<path d="M522 2363 c2 -10 14 -19 26 -21 19 -3 23 1 20 15 -2 10 -14 19 -26
21 -19 3 -23 -1 -20 -15z m28 -3 c0 -5 -2 -10 -4 -10 -3 0 -8 5 -11 10 -3 6
-1 10 4 10 6 0 11 -4 11 -10z"/>
<path d="M571 2301 c-40 -7 -47 -19 -27 -46 13 -17 18 -18 35 -7 12 6 30 12
40 12 24 0 33 13 25 34 -6 17 -16 18 -73 7z m59 -21 c0 -13 -11 -13 -30 0 -12
8 -11 10 8 10 12 0 22 -4 22 -10z m-55 -10 c3 -5 -1 -10 -9 -10 -9 0 -16 5
-16 10 0 6 4 10 9 10 6 0 13 -4 16 -10z"/>
<path d="M575 2231 c-9 -16 3 -31 26 -31 14 0 19 6 17 17 -4 20 -33 29 -43 14z
m35 -11 c0 -5 -4 -10 -10 -10 -5 0 -10 5 -10 10 0 6 5 10 10 10 6 0 10 -4 10
-10z"/>
<path d="M592 2168 c7 -20 40 -35 45 -20 3 6 9 9 15 6 6 -4 9 -1 6 6 -7 21
-28 24 -28 3 -1 -17 -1 -17 -14 0 -15 19 -30 23 -24 5z"/>
<path d="M670 2140 c0 -5 -11 -10 -25 -10 -14 0 -25 -4 -25 -10 0 -5 13 -7 30
-3 23 4 34 1 45 -13 13 -18 14 -18 12 2 -1 22 -37 54 -37 34z"/>
<path d="M642 2083 c4 -22 43 -25 43 -3 0 8 -11 16 -23 18 -19 3 -23 0 -20
-15z m33 -3 c3 -5 2 -10 -4 -10 -5 0 -13 5 -16 10 -3 6 -2 10 4 10 5 0 13 -4
16 -10z"/>
<path d="M660 2040 c0 -5 9 -10 20 -10 25 0 27 -20 3 -21 -11 0 -13 -2 -5 -6
23 -9 41 5 35 26 -5 22 -53 31 -53 11z"/>
<path d="M1827 2033 c-14 -52 -16 -73 -7 -73 5 0 12 12 16 28 3 15 8 35 11 45
2 9 0 17 -6 17 -5 0 -12 -8 -14 -17z"/>
<path d="M1445 2030 c-11 -17 -15 -70 -6 -70 10 0 21 23 27 58 4 22 -10 30
-21 12z"/>
<path d="M1500 2036 c0 -2 -7 -20 -15 -40 -13 -29 -13 -36 -2 -36 8 0 20 12
27 28 12 24 14 25 17 7 4 -23 46 -46 82 -44 21 1 22 2 6 6 -35 9 -38 21 -5 28
36 8 35 29 -2 33 -18 2 -31 -4 -42 -20 l-16 -22 0 22 c0 13 -6 22 -15 22 -8 0
-15 5 -15 10 0 6 -4 10 -10 10 -5 0 -10 -2 -10 -4z m105 -36 c-3 -5 -11 -10
-16 -10 -6 0 -7 5 -4 10 3 6 11 10 16 10 6 0 7 -4 4 -10z"/>
<path d="M1727 2007 c-27 -32 -21 -51 9 -26 14 11 18 10 30 -6 19 -26 27 -14
19 29 -9 44 -22 45 -58 3z"/>
<path d="M1865 2030 c-11 -17 -15 -70 -6 -70 10 0 21 23 27 58 4 22 -10 30
-21 12z"/>
<path d="M1945 2030 c-11 -17 -15 -70 -6 -70 10 0 21 23 27 58 4 22 -10 30
-21 12z"/>
<path d="M2110 2032 c0 -4 -10 -12 -22 -17 -13 -6 -24 -20 -26 -32 -3 -19 1
-23 22 -23 15 0 27 7 30 18 2 9 7 27 11 40 4 13 2 22 -4 22 -6 0 -11 -3 -11
-8z m-19 -55 c-8 -8 -11 -7 -11 4 0 9 3 19 7 23 4 4 9 2 11 -4 3 -7 -1 -17 -7
-23z"/>
<path d="M2346 2028 c-13 -41 -15 -68 -6 -68 5 0 12 12 16 28 3 15 7 33 10 40
2 6 -1 12 -7 12 -5 0 -11 -6 -13 -12z"/>
<path d="M1896 1994 c-6 -24 -2 -43 8 -33 11 10 17 59 8 59 -5 0 -13 -12 -16
-26z"/>
<path d="M1997 2013 c-4 -3 -7 -17 -7 -30 0 -32 45 -33 53 -1 8 30 0 35 -19
12 -15 -18 -15 -18 -11 4 5 21 -3 29 -16 15z"/>
<path d="M2127 1993 c-5 -27 -2 -41 7 -32 11 10 17 59 8 59 -5 0 -12 -12 -15
-27z"/>
<path d="M2170 2006 c0 -8 -3 -21 -6 -30 -3 -9 -1 -16 5 -16 6 0 13 11 17 25
3 14 11 25 16 25 6 0 7 -11 4 -26 -5 -19 -3 -25 6 -22 7 3 14 17 16 31 3 24 0
27 -27 27 -20 0 -31 -5 -31 -14z"/>
<path d="M2250 2001 c-17 -33 -12 -41 28 -39 36 1 38 3 34 30 -3 22 -10 28
-28 28 -13 0 -28 -9 -34 -19z m32 -23 c-6 -6 -15 -8 -19 -4 -4 4 -1 11 7 16
19 12 27 3 12 -12z"/>
<path d="M2375 2010 c-3 -6 1 -13 9 -16 9 -3 14 -10 11 -15 -3 -4 -12 -6 -20
-2 -8 3 -15 0 -15 -6 0 -16 36 -13 50 4 10 12 9 16 -6 22 -16 6 -16 7 2 14 18
7 17 8 -3 8 -12 1 -25 -4 -28 -9z"/>
<path d="M713 1723 c-16 -6 -17 -35 -1 -51 23 -23 88 -9 88 20 0 4 -15 8 -32
7 -27 0 -30 -2 -13 -9 19 -7 19 -8 2 -15 -23 -9 -42 8 -33 30 4 11 12 14 27
10 15 -5 19 -4 15 4 -7 11 -31 13 -53 4z"/>
<path d="M815 1698 c8 -37 12 -44 21 -35 9 9 -6 67 -18 67 -6 0 -7 -13 -3 -32z"/>
<path d="M920 1720 c-8 -5 -28 -10 -43 -10 -24 0 -28 -4 -25 -22 2 -18 10 -23
33 -23 25 0 30 4 27 23 -3 30 22 24 26 -6 5 -35 23 -25 19 10 -4 35 -14 43
-37 28z m-20 -36 c0 -17 -22 -14 -28 4 -2 7 3 12 12 12 9 0 16 -7 16 -16z"/>
<path d="M975 1721 c-3 -5 -1 -12 5 -16 5 -3 10 -15 10 -26 0 -10 5 -19 11
-19 7 0 9 10 7 25 -3 14 -1 25 6 25 6 0 4 5 -4 10 -19 12 -27 12 -35 1z"/>
<path d="M1126 1693 c7 -42 11 -49 20 -40 10 9 -5 77 -17 77 -6 0 -7 -15 -3
-37z"/>
<path d="M1036 1694 c-9 -23 7 -37 44 -40 28 -2 31 0 28 24 -2 22 -9 28 -34
30 -22 2 -33 -2 -38 -14z m49 -14 c0 -7 -6 -15 -12 -17 -8 -3 -13 4 -13 17 0
13 5 20 13 18 6 -3 12 -11 12 -18z"/>
<path d="M1480 1574 c-75 -74 -95 -115 -24 -50 22 20 49 36 62 36 37 0 102 38
102 59 0 17 -30 33 -55 29 -5 -1 -44 -34 -85 -74z m118 44 c-5 -14 -57 -43
-64 -36 -2 3 5 14 16 26 22 24 54 30 48 10z"/>
<path d="M800 1617 c0 -7 10 -17 21 -22 26 -12 23 -31 -4 -27 -12 2 -17 -1
-13 -7 9 -15 53 -14 62 1 4 6 -4 21 -19 34 -17 15 -22 24 -14 27 7 3 2 6 -10
6 -13 1 -23 -5 -23 -12z"/>
<path d="M863 1624 c-8 -4 -6 -11 8 -25 10 -10 19 -26 19 -34 0 -8 5 -15 11
-15 7 0 8 11 4 30 -5 21 -3 30 7 31 7 0 4 4 -7 9 -23 10 -26 10 -42 4z"/>
<path d="M1580 1555 c-35 -35 -61 -67 -58 -70 5 -5 138 120 138 130 0 15 -22
-2 -80 -60z"/>
<path d="M932 1601 c-25 -16 -10 -46 23 -46 25 0 30 4 30 25 0 27 -28 38 -53
21z m43 -20 c10 -18 -17 -23 -33 -7 -15 15 -15 16 5 16 12 0 24 -4 28 -9z"/>
<path d="M1006 1573 c8 -44 12 -52 22 -37 4 6 15 13 25 17 12 5 17 15 15 29
-2 18 -11 24 -36 26 l-33 3 7 -38z m44 0 c0 -13 -3 -13 -15 -3 -8 7 -12 16 -9
21 8 13 24 1 24 -18z"/>
<path d="M1797 1593 c-10 -9 -9 -23 2 -23 5 0 11 7 15 15 5 15 -5 20 -17 8z"/>
<path d="M2230 1521 c0 -37 2 -41 25 -41 26 0 46 26 29 39 -5 3 -9 13 -9 21 0
8 -10 16 -22 18 -21 3 -23 -1 -23 -37z m35 -10 c3 -5 1 -12 -5 -16 -5 -3 -10
1 -10 9 0 18 6 21 15 7z"/>
<path d="M1633 1533 c-30 -20 -29 -41 3 -53 33 -13 34 -13 34 3 0 8 9 22 20
32 11 10 17 22 14 26 -8 14 -47 10 -71 -8z m37 -18 c-7 -8 -20 -15 -29 -15
-13 1 -13 3 3 15 26 19 42 19 26 0z"/>
<path d="M1717 1509 c-40 -45 -23 -50 21 -6 23 23 31 37 22 37 -9 0 -28 -14
-43 -31z"/>
<path d="M1782 1500 c-38 -46 -29 -53 18 -14 38 32 53 24 20 -11 -13 -14 -19
-25 -13 -25 15 0 53 45 53 63 0 9 -4 17 -9 17 -5 0 -15 2 -23 5 -7 3 -28 -13
-46 -35z"/>
<path d="M1386 1428 c-2 -7 -8 -31 -12 -53 -7 -31 -14 -41 -32 -43 -13 -2 -25
3 -28 12 -8 20 -24 21 -24 1 0 -16 30 -35 54 -35 28 0 56 38 56 75 0 35 23 50
33 23 2 -7 8 -10 12 -6 4 4 5 14 2 23 -8 18 -56 20 -61 3z"/>
<path d="M2237 1422 c-10 -10 -17 -25 -17 -33 1 -10 5 -8 15 5 14 18 15 13 15
-57 l0 -77 -47 1 c-41 0 -45 2 -24 10 13 5 21 12 18 16 -10 9 -68 -19 -64 -31
2 -7 25 -10 60 -8 l57 4 0 -84 c-1 -77 -2 -81 -15 -58 -10 17 -14 20 -15 9 0
-9 9 -27 20 -40 l20 -24 20 24 c11 13 20 31 20 40 -1 11 -5 8 -15 -9 -13 -23
-14 -19 -15 58 l0 82 37 0 c35 0 36 -1 17 -15 -14 -11 -15 -14 -4 -14 8 -1 26
8 39 18 l24 18 -24 17 c-31 21 -63 22 -35 1 19 -14 18 -15 -17 -15 l-37 0 0
77 c0 70 1 75 15 57 12 -16 14 -16 15 -3 0 14 -29 49 -42 49 -3 0 -12 -8 -21
-18z"/>
<path d="M1551 1343 c-54 -62 -60 -73 -36 -73 8 0 15 4 15 9 0 5 20 31 45 59
25 27 45 53 45 56 0 18 -24 0 -69 -51z"/>
<path d="M1601 1329 c-62 -70 -59 -91 7 -71 51 15 69 36 52 57 -7 9 -20 13
-29 10 -11 -4 -9 1 5 17 27 30 37 48 27 48 -5 0 -33 -27 -62 -61z m39 -29 c0
-11 -50 -34 -57 -26 -2 2 3 11 12 20 18 18 45 21 45 6z"/>
<path d="M1436 1351 c-24 -26 -17 -55 14 -59 23 -2 24 -1 8 11 -24 19 -23 25
5 20 29 -5 51 11 44 31 -9 22 -50 20 -71 -3z m51 -7 c-3 -3 -12 -4 -19 -1 -8
3 -5 6 6 6 11 1 17 -2 13 -5z"/>
<path d="M1856 1361 c-4 -7 -5 -15 -2 -18 9 -9 19 4 14 18 -4 11 -6 11 -12 0z"/>
<path d="M107 1315 c9 -27 21 -45 30 -45 11 0 13 4 6 13 -6 6 -13 20 -16 30
-6 15 -4 16 13 7 11 -6 24 -8 29 -5 5 3 11 -5 13 -17 2 -12 8 -23 15 -25 18
-6 -7 78 -25 85 -9 3 -17 1 -20 -6 -2 -8 -11 -8 -28 -1 -14 5 -27 9 -29 9 -2
0 3 -20 12 -45z"/>
<path d="M295 1348 c7 -33 28 -78 36 -78 11 0 11 3 -1 34 -7 19 -6 26 3 26 6
0 3 7 -7 15 -24 18 -35 19 -31 3z"/>
<path d="M210 1315 c0 -26 25 -45 59 -45 12 0 21 5 21 11 0 5 -4 8 -9 5 -5 -4
-20 -2 -33 3 -21 9 -22 10 -2 10 11 1 24 4 27 8 12 11 -14 33 -39 33 -19 0
-24 -5 -24 -25z m40 5 c0 -5 -4 -10 -10 -10 -5 0 -10 5 -10 10 0 6 5 10 10 10
6 0 10 -4 10 -10z"/>
<path d="M356 1314 c-8 -21 21 -43 58 -44 22 0 27 4 22 16 -3 9 -6 22 -6 30 0
21 -66 19 -74 -2z m52 -18 c3 -12 -1 -17 -10 -14 -7 3 -15 13 -16 22 -3 12 1
17 10 14 7 -3 15 -13 16 -22z"/>
<path d="M1741 1311 c-8 -5 -19 -7 -26 -5 -13 5 -70 -54 -61 -64 3 -3 16 4 29
16 26 24 75 45 88 36 5 -3 9 2 9 10 0 18 -17 20 -39 7z"/>
<path d="M1770 1265 c-18 -19 -30 -38 -27 -42 8 -7 77 55 77 69 0 16 -17 7
-50 -27z"/>
<path d="M2057 1283 c-12 -12 -7 -21 14 -26 28 -7 19 -33 -11 -29 -14 2 -20 0
-16 -7 11 -17 56 -13 63 6 4 10 -2 23 -15 34 -20 16 -21 18 -5 22 15 4 14 5
-3 6 -11 0 -24 -2 -27 -6z"/>
<path d="M2417 1283 c-12 -12 -7 -21 14 -26 28 -7 19 -33 -11 -29 -14 2 -20 0
-16 -7 11 -17 56 -13 63 6 4 10 -2 23 -15 34 -20 16 -21 18 -5 22 15 4 14 5
-3 6 -11 0 -24 -2 -27 -6z"/>
<path d="M40 1226 c0 -28 4 -36 18 -36 45 0 186 -133 283 -267 53 -74 71 -89
154 -139 98 -58 198 -97 281 -109 27 -4 99 -18 159 -32 61 -13 142 -30 180
-39 81 -17 151 -51 215 -104 126 -104 189 -141 303 -180 37 -13 67 -27 67 -31
0 -4 -15 -19 -33 -34 -88 -72 -103 -86 -120 -114 -24 -41 -6 -40 23 2 12 17
38 43 57 57 19 14 52 40 72 58 34 30 35 33 18 46 -10 8 -55 27 -100 41 -100
33 -107 37 -182 95 -133 103 -156 119 -207 144 -29 14 -87 33 -128 41 -41 9
-115 25 -165 36 -49 11 -116 24 -148 29 -69 10 -180 46 -222 71 -16 10 -56 33
-89 51 -45 24 -71 49 -114 107 -30 42 -75 98 -98 124 -25 28 -41 54 -37 63 3
9 -2 14 -17 14 -26 0 -95 56 -77 63 9 3 9 8 -2 18 -10 10 -15 11 -18 2 -6 -16
-63 4 -63 23 0 8 4 14 10 14 14 0 120 -48 120 -54 0 -3 -7 -3 -16 1 -12 4 -15
1 -12 -13 2 -10 10 -18 16 -16 7 1 12 -5 12 -13 0 -8 7 -15 15 -15 17 0 20 16
5 25 -5 3 -10 11 -10 17 0 13 46 -36 69 -72 57 -94 228 -267 295 -298 89 -42
230 -83 371 -106 198 -34 270 -53 325 -85 30 -18 60 -38 65 -45 15 -19 184
-131 257 -170 60 -32 148 -56 209 -56 17 0 50 19 95 55 38 30 94 67 124 81
187 89 227 112 283 166 77 75 113 97 186 109 34 6 61 15 61 21 0 5 -8 7 -17 5
-10 -3 -36 -8 -58 -12 -60 -10 -114 -42 -175 -105 -45 -45 -81 -68 -176 -114
-174 -84 -195 -96 -236 -132 -20 -18 -46 -38 -59 -44 -31 -17 -141 -5 -193 22
-78 40 -191 111 -267 169 -99 74 -162 106 -239 118 -244 40 -441 88 -528 129
-76 37 -190 137 -247 217 -15 22 -33 45 -39 50 -7 6 -21 26 -33 45 -12 20 -32
45 -45 57 -26 25 -110 68 -150 78 -27 7 -28 5 -28 -29z"/>
<path d="M490 1249 c0 -7 -7 -17 -16 -24 -23 -17 -2 -55 31 -55 26 0 44 18 27
29 -6 3 -14 19 -17 34 -7 26 -25 38 -25 16z m20 -61 c0 -6 -7 -5 -15 2 -8 7
-15 17 -15 22 0 6 7 5 15 -2 8 -7 15 -17 15 -22z"/>
<path d="M244 1234 c3 -9 9 -27 12 -40 8 -31 16 -30 31 1 9 20 8 25 -2 25 -8
0 -17 5 -21 11 -4 8 0 9 15 4 12 -4 21 -2 21 4 0 6 -14 11 -31 11 -24 0 -30
-3 -25 -16z"/>
<path d="M2165 1230 c3 -5 13 -10 21 -10 8 0 12 5 9 10 -3 6 -13 10 -21 10 -8
0 -12 -4 -9 -10z"/>
<path d="M327 1219 c-23 -14 -5 -49 26 -49 32 0 48 19 36 42 -11 20 -35 23
-62 7z m48 -18 c10 -18 -17 -23 -33 -7 -15 15 -15 16 5 16 12 0 24 -4 28 -9z"/>
<path d="M404 1208 c3 -13 6 -26 6 -30 0 -5 5 -8 11 -8 6 0 9 9 6 20 -3 12 1
24 11 30 14 8 12 9 -12 10 -25 0 -28 -3 -22 -22z"/>
<path d="M2247 1023 c-12 -12 -7 -21 14 -26 28 -7 19 -33 -11 -29 -14 2 -20 0
-16 -7 11 -17 56 -13 63 6 4 10 -2 23 -15 34 -20 16 -21 18 -5 22 15 4 14 5
-3 6 -11 0 -24 -2 -27 -6z"/>
<path d="M350 820 c0 -22 -16 -27 -23 -7 -2 6 -8 9 -13 4 -12 -11 22 -41 40
-34 9 4 16 17 17 29 0 13 3 17 6 11 7 -18 23 -16 23 2 0 9 -9 15 -25 15 -18 0
-25 -5 -25 -20z"/>
<path d="M1670 810 c0 -25 -4 -30 -25 -30 -22 0 -25 -4 -25 -40 l0 -40 65 0
65 0 0 40 c0 38 -1 40 -32 40 -32 1 -33 1 -10 14 l24 13 -26 16 c-34 23 -36
22 -36 -13z m60 -75 c0 -23 -4 -25 -45 -25 -41 0 -45 2 -45 25 0 23 4 25 45
25 41 0 45 -2 45 -25z"/>
<path d="M363 767 c-34 -23 -45 -44 -15 -32 9 4 28 7 41 6 27 -1 51 15 51 35
0 20 -40 15 -77 -9z m54 -3 c-3 -3 -12 -4 -19 -1 -8 3 -5 6 6 6 11 1 17 -2 13
-5z"/>
<path d="M440 750 c-17 -11 -4 -40 21 -49 12 -3 12 -2 1 12 -11 13 -10 15 6
10 24 -6 40 16 21 28 -18 11 -30 11 -49 -1z"/>
<path d="M490 705 c-10 -12 -10 -18 0 -30 7 -8 17 -15 22 -15 6 0 5 7 -2 15
-11 13 -9 15 11 13 16 -2 24 2 24 12 0 21 -39 24 -55 5z"/>
<path d="M1560 668 c0 -18 4 -28 8 -22 4 6 15 14 25 17 24 9 17 31 -11 35 -19
3 -22 -1 -22 -30z m40 12 c0 -5 -7 -10 -15 -10 -8 0 -15 5 -15 10 0 6 7 10 15
10 8 0 15 -4 15 -10z"/>
<path d="M552 674 c-20 -22 -7 -44 25 -43 l28 0 -24 10 c-18 7 -21 13 -13 21
8 8 15 8 28 -3 14 -12 16 -11 13 6 -5 25 -39 30 -57 9z"/>
<path d="M1718 678 c-10 -6 -10 -8 0 -8 6 0 12 -7 12 -15 0 -8 4 -15 10 -15 5
0 7 7 4 15 -4 8 -1 15 5 15 6 0 11 -7 11 -15 0 -8 4 -15 8 -15 5 0 8 10 7 22
-2 23 -33 32 -57 16z"/>
<path d="M645 644 l-40 -36 38 7 c38 7 47 -1 25 -23 -7 -7 -8 -12 -2 -12 14 0
34 22 34 37 0 7 -7 13 -17 13 -15 0 -15 1 0 18 10 10 17 22 17 25 0 14 -16 5
-55 -29z"/>
<path d="M1621 658 c0 -16 2 -18 6 -8 3 8 11 18 17 22 7 5 4 8 -6 8 -12 0 -18
-7 -17 -22z"/>
<path d="M1660 660 c0 -14 6 -20 23 -19 21 0 21 1 2 9 -17 7 -17 9 -2 9 24 1
22 21 -3 21 -13 0 -20 -7 -20 -20z"/>
<path d="M1792 658 c1 -16 6 -28 10 -28 9 0 21 40 14 47 -3 4 -6 0 -6 -8 0
-12 -2 -11 -10 1 -8 11 -9 9 -8 -12z"/>
<path d="M1571 608 c-1 -23 3 -28 22 -27 15 1 17 3 5 6 -9 2 -19 14 -21 26 -4
18 -5 17 -6 -5z"/>
<path d="M1642 605 c0 -16 2 -22 5 -12 2 9 2 23 0 30 -3 6 -5 -1 -5 -18z"/>
<path d="M1666 623 c-7 -7 6 -43 15 -43 5 0 6 7 3 15 -4 8 -1 15 5 15 6 0 11
-7 11 -15 0 -8 4 -15 8 -15 5 0 8 10 7 22 -1 14 -9 22 -23 23 -12 1 -24 0 -26
-2z"/>
<path d="M1732 605 c0 -16 2 -22 5 -12 2 9 2 23 0 30 -3 6 -5 -1 -5 -18z"/>
<path d="M810 613 c0 -3 8 -15 18 -26 17 -20 16 -20 -15 -14 -39 8 -45 -10 -7
-19 35 -9 53 10 36 37 -12 19 -11 20 9 14 14 -5 19 -4 15 4 -8 12 -56 16 -56
4z"/>
<path d="M1750 600 c0 -14 6 -20 23 -19 21 0 21 1 2 9 -17 7 -17 9 -2 9 24 1
22 21 -3 21 -13 0 -20 -7 -20 -20z"/>
<path d="M915 600 c-3 -5 -13 -6 -22 -3 -12 5 -15 2 -10 -10 4 -11 -1 -20 -13
-27 -11 -6 -20 -16 -20 -22 0 -6 10 -3 23 6 12 9 29 19 37 23 25 11 41 43 21
43 -6 0 -12 -4 -16 -10z"/>
<path d="M922 557 c-12 -6 -22 -14 -22 -20 0 -5 8 -6 18 -1 9 4 27 7 40 7 12
-1 22 3 22 7 0 13 -34 17 -58 7z"/>
<path d="M986 541 c-20 -22 -14 -41 12 -40 11 0 12 3 5 6 -22 8 -14 21 8 16
16 -5 20 -2 18 12 -6 26 -23 29 -43 6z"/>
<path d="M1570 535 c0 -20 5 -25 25 -25 16 0 25 6 25 15 0 8 -8 15 -17 15 -15
0 -16 -2 -3 -10 13 -8 12 -10 -2 -10 -26 0 -22 28 5 33 19 4 18 4 -5 6 -24 1
-28 -3 -28 -24z"/>
<path d="M1712 535 c0 -16 2 -22 5 -12 2 9 2 23 0 30 -3 6 -5 -1 -5 -18z"/>
<path d="M221 539 c-1 -9 8 -27 19 -40 l20 -24 20 24 c11 13 20 31 19 40 0 11
-4 9 -11 -7 l-12 -23 -13 23 -14 23 4 -22 c3 -13 2 -23 -2 -23 -5 0 -13 10
-19 23 -8 16 -11 17 -11 6z"/>
<path d="M1671 528 c0 -16 2 -18 6 -8 3 8 11 18 17 22 7 5 4 8 -6 8 -12 0 -18
-7 -17 -22z"/>
<path d="M1740 540 c0 -13 11 -13 30 0 12 8 11 10 -7 10 -13 0 -23 -4 -23 -10z"/>
<path d="M1037 522 c-22 -24 -21 -32 2 -32 11 0 23 -4 26 -10 11 -17 21 -11
20 13 0 24 -12 47 -24 47 -4 0 -15 -8 -24 -18z m33 -12 c0 -5 -7 -10 -16 -10
-8 0 -12 5 -9 10 3 6 10 10 16 10 5 0 9 -4 9 -10z"/>
<path d="M1651 524 c0 -11 3 -14 6 -6 3 7 2 16 -1 19 -3 4 -6 -2 -5 -13z"/>
<path d="M531 519 c-1 -9 8 -27 19 -40 l20 -24 20 24 c11 13 20 31 19 40 0 11
-4 9 -11 -7 l-12 -23 -13 23 -14 23 4 -22 c3 -13 2 -23 -2 -23 -5 0 -13 10
-19 23 -8 16 -11 17 -11 6z"/>
<path d="M1750 520 c-12 -8 -11 -10 8 -10 12 0 22 5 22 10 0 13 -11 13 -30 0z"/>
<path d="M1115 500 c-19 -21 -13 -42 7 -22 7 7 18 12 26 12 12 0 12 -3 2 -15
-19 -23 -5 -29 24 -10 26 18 36 9 14 -13 -6 -6 -8 -15 -4 -19 10 -10 36 25 36
48 0 13 -8 17 -32 17 -18 -1 -34 4 -36 10 -5 17 -16 15 -37 -8z"/>
<path d="M1682 470 c0 -19 2 -27 5 -17 2 9 8 17 13 17 5 0 11 -8 13 -17 4 -14
5 -12 6 5 1 13 -5 22 -13 22 -8 0 -17 6 -19 13 -3 6 -5 -4 -5 -23z"/>
<path d="M1573 465 c0 -20 5 -25 23 -25 31 0 32 30 2 31 -22 1 -22 1 2 9 l25
8 -26 1 c-22 1 -26 -3 -26 -24z m34 -11 c-3 -3 -12 -4 -19 -1 -8 3 -5 6 6 6
11 1 17 -2 13 -5z"/>
<path d="M1862 465 c0 -16 2 -22 5 -12 2 9 2 23 0 30 -3 6 -5 -1 -5 -18z"/>
<path d="M1637 473 c-15 -14 -6 -33 16 -32 16 1 18 2 5 6 -10 2 -18 9 -18 15
0 5 7 8 15 4 8 -3 15 -1 15 4 0 11 -23 13 -33 3z"/>
<path d="M1740 461 c0 -15 6 -21 21 -21 25 0 22 33 -4 38 -12 2 -17 -3 -17
-17z m30 -1 c0 -5 -4 -10 -10 -10 -5 0 -10 5 -10 10 0 6 5 10 10 10 6 0 10 -4
10 -10z"/>
<path d="M1800 461 c0 -15 6 -21 21 -21 25 0 22 33 -4 38 -12 2 -17 -3 -17
-17z m30 -1 c0 -5 -4 -10 -10 -10 -5 0 -10 5 -10 10 0 6 5 10 10 10 6 0 10 -4
10 -10z"/>
<path d="M861 459 c-1 -9 8 -27 19 -40 l20 -24 20 24 c11 13 20 31 19 40 0 11
-4 9 -11 -7 l-12 -23 -13 23 -14 23 4 -22 c3 -13 2 -23 -2 -23 -5 0 -13 10
-19 23 -8 16 -11 17 -11 6z"/>
<path d="M91 439 c-1 -9 8 -27 19 -40 l20 -24 20 24 c11 13 20 31 19 40 0 11
-4 9 -11 -7 l-12 -23 -13 23 -14 23 4 -22 c3 -13 2 -23 -2 -23 -5 0 -13 10
-19 23 -8 16 -11 17 -11 6z"/>
<path d="M300 400 c0 -34 4 -50 13 -50 9 0 12 11 9 37 -4 34 -3 36 12 24 8 -7
23 -11 31 -7 10 4 15 -1 15 -14 0 -11 5 -20 10 -20 6 0 10 18 10 40 0 41 -14
52 -38 28 -9 -9 -15 -9 -24 0 -26 26 -38 13 -38 -38z"/>
<path d="M628 433 c-13 -3 -18 -15 -18 -39 0 -19 5 -34 10 -34 6 0 10 9 10 19
0 11 7 26 15 35 25 24 21 29 -17 19z"/>
<path d="M436 417 c-25 -19 -13 -57 18 -57 32 0 53 26 39 48 -14 22 -34 26
-57 9z m32 -24 c-4 -22 -22 -20 -26 1 -2 10 3 16 13 16 10 0 15 -7 13 -17z"/>
<path d="M536 417 c-25 -19 -13 -57 18 -57 32 0 53 26 39 48 -14 22 -34 26
-57 9z m32 -24 c-4 -22 -22 -20 -26 1 -2 10 3 16 13 16 10 0 15 -7 13 -17z"/>
<path d="M721 399 c-1 -9 8 -27 19 -40 l20 -24 20 24 c11 13 20 31 19 40 0 11
-4 9 -11 -7 l-12 -23 -13 23 -14 23 4 -22 c3 -13 2 -23 -2 -23 -5 0 -13 10
-19 23 -8 16 -11 17 -11 6z"/>
<path d="M931 319 c-1 -9 8 -27 19 -40 l20 -24 20 24 c11 13 20 31 19 40 0 11
-4 9 -11 -7 l-12 -23 -13 23 -14 23 4 -22 c3 -13 2 -23 -2 -23 -5 0 -13 10
-19 23 -8 16 -11 17 -11 6z"/>
<path d="M181 289 c-1 -9 8 -27 19 -40 l20 -24 20 24 c11 13 20 31 19 40 0 11
-4 9 -11 -7 l-12 -23 -13 23 -14 23 4 -22 c3 -13 2 -23 -2 -23 -5 0 -13 10
-19 23 -8 16 -11 17 -11 6z"/>
<path d="M1964 281 c31 -6 48 -31 22 -31 -9 0 -16 5 -16 10 0 6 -4 10 -9 10
-5 0 -11 -20 -13 -45 -3 -43 -2 -45 23 -45 37 0 64 23 54 46 -4 10 -7 25 -6
33 3 19 -18 31 -54 30 l-30 -1 29 -7z m46 -65 c0 -8 -7 -17 -16 -20 -23 -9
-24 -8 -24 14 0 13 7 20 20 20 11 0 20 -6 20 -14z"/>
<path d="M2224 281 c31 -6 48 -31 22 -31 -9 0 -16 5 -16 10 0 6 -4 10 -9 10
-5 0 -11 -20 -13 -45 -3 -43 -2 -45 23 -45 37 0 64 23 54 46 -4 10 -7 25 -6
33 3 19 -18 31 -54 30 l-30 -1 29 -7z m46 -65 c0 -8 -7 -17 -16 -20 -23 -9
-24 -8 -24 14 0 13 7 20 20 20 11 0 20 -6 20 -14z"/>
<path d="M298 258 c-5 -31 2 -68 13 -68 5 0 9 9 9 20 0 11 6 20 13 20 6 0 18
4 26 9 12 8 12 12 2 25 -21 25 -59 20 -63 -6z m44 -3 c0 -5 -5 -11 -11 -13 -6
-2 -11 4 -11 13 0 9 5 15 11 13 6 -2 11 -8 11 -13z"/>
<path d="M389 268 c0 -7 -2 -28 -3 -45 -4 -41 21 -46 26 -6 4 35 28 43 28 9 0
-14 5 -26 11 -26 6 0 9 12 7 28 -2 19 -9 28 -26 30 -12 2 -20 8 -17 13 4 5 -1
9 -9 9 -9 0 -16 -6 -17 -12z"/>
<path d="M580 235 c0 -25 5 -45 10 -45 6 0 10 20 10 45 0 25 -4 45 -10 45 -5
0 -10 -20 -10 -45z"/>
<path d="M722 258 c-22 -22 -14 -48 18 -54 17 -4 30 -13 30 -20 0 -17 -12 -18
-28 -2 -9 9 -15 9 -23 1 -9 -9 -5 -14 16 -19 42 -10 60 6 63 60 l3 46 -33 0
c-19 0 -39 -5 -46 -12z m46 -26 c4 -23 -4 -27 -26 -14 -15 10 -5 45 12 39 6
-2 12 -13 14 -25z"/>
<path d="M496 247 c-25 -19 -13 -57 18 -57 32 0 53 26 39 48 -14 22 -34 26
-57 9z m32 -24 c-4 -22 -22 -20 -26 1 -2 10 3 16 13 16 10 0 15 -7 13 -17z"/>
<path d="M636 247 c-25 -19 -13 -57 18 -57 32 0 53 26 39 48 -14 22 -34 26
-57 9z m32 -24 c-4 -22 -22 -20 -26 1 -2 10 3 16 13 16 10 0 15 -7 13 -17z"/>
<path d="M863 240 c-5 -19 -6 -19 -18 -3 -19 25 -28 11 -15 -22 6 -16 9 -34 6
-42 -3 -7 -2 -13 3 -13 12 0 27 21 33 45 3 11 9 28 13 38 4 10 3 17 -5 17 -6
0 -14 -9 -17 -20z"/>
<path d="M2052 248 c-32 -32 0 -78 53 -76 l30 0 -29 7 c-40 8 -44 28 -7 36 27
6 29 9 21 26 -12 21 -50 25 -68 7z m53 -7 c3 -5 -4 -13 -16 -16 -23 -8 -34 -1
-24 14 8 13 32 14 40 2z"/>
<path d="M2350 252 c-63 -9 -57 -74 6 -70 32 2 34 4 32 36 -2 38 -4 39 -38 34z
m9 -21 c17 -11 7 -41 -13 -41 -19 0 -29 17 -22 35 6 17 15 18 35 6z"/>
<path d="M2452 234 c-12 -25 -32 -25 -32 2 0 8 -4 14 -10 14 -13 0 -13 -6 5
-40 8 -16 12 -37 8 -46 -14 -38 17 -1 37 43 23 52 23 53 12 53 -5 0 -14 -12
-20 -26z"/>
<path d="M51 179 c-1 -9 8 -27 19 -40 l20 -24 20 24 c11 13 20 31 19 40 0 11
-4 9 -11 -7 l-12 -23 -13 23 -14 23 4 -22 c3 -13 2 -23 -2 -23 -5 0 -13 10
-19 23 -8 16 -11 17 -11 6z"/>
<path d="M441 129 c-1 -9 8 -27 19 -40 l20 -24 20 24 c11 13 20 31 19 40 0 11
-4 9 -11 -7 l-12 -23 -13 23 -14 23 4 -22 c3 -13 2 -23 -2 -23 -5 0 -13 10
-19 23 -8 16 -11 17 -11 6z"/>
<path d="M901 129 c-1 -9 8 -27 19 -40 l20 -24 20 24 c11 13 20 31 19 40 0 11
-4 9 -11 -7 l-12 -23 -13 23 -14 23 4 -22 c3 -13 2 -23 -2 -23 -5 0 -13 10
-19 23 -8 16 -11 17 -11 6z"/>
<path d="M241 119 c-1 -9 8 -27 19 -40 l20 -24 20 24 c11 13 20 31 19 40 0 11
-4 9 -11 -7 l-12 -23 -13 23 -14 23 4 -22 c3 -13 2 -23 -2 -23 -5 0 -13 10
-19 23 -8 16 -11 17 -11 6z"/>
<path d="M611 119 c-1 -9 8 -27 19 -40 l20 -24 20 24 c11 13 20 31 19 40 0 11
-4 9 -11 -7 l-12 -23 -13 23 -14 23 4 -22 c3 -13 2 -23 -2 -23 -5 0 -13 10
-19 23 -8 16 -11 17 -11 6z"/>
<path d="M741 119 c-1 -9 8 -27 19 -40 l20 -24 20 24 c11 13 20 31 19 40 0 11
-4 9 -11 -7 l-12 -23 -13 23 -14 23 4 -22 c3 -13 2 -23 -2 -23 -5 0 -13 10
-19 23 -8 16 -11 17 -11 6z"/>
</g>
</svg>
