<?xml version="1.0" standalone="no"?>
<!DOCTYPE svg PUBLIC "-//W3C//DTD SVG 20010904//EN"
 "http://www.w3.org/TR/2001/REC-SVG-20010904/DTD/svg10.dtd">
<svg version="1.0" xmlns="http://www.w3.org/2000/svg"
 width="389.000000pt" height="166.000000pt" viewBox="0 0 389.000000 166.000000"
 preserveAspectRatio="xMidYMid meet">

<g transform="translate(0.000000,166.000000) scale(0.100000,-0.100000)"
fill="#000000" stroke="none">
<path d="M282 1633 c-14 -27 -52 -179 -52 -209 0 -23 -2 -25 -16 -13 -22 18
-44 20 -51 3 -3 -8 -14 -14 -25 -14 -27 0 -50 -60 -47 -127 2 -40 -2 -58 -15
-71 -16 -16 -17 -14 -15 43 1 34 9 71 18 85 l16 24 -32 -24 c-30 -21 -37 -37
-46 -100 -2 -8 -7 -21 -11 -29 -6 -9 -5 -12 1 -8 7 4 11 -20 12 -71 2 -93 9
-140 27 -167 8 -11 14 -31 15 -45 0 -14 4 -34 9 -45 6 -14 8 -2 7 40 -1 39 -8
65 -18 76 -21 21 -31 110 -20 174 5 28 10 41 11 30 1 -11 2 -24 1 -28 -1 -4 6
-10 14 -13 10 -4 28 6 49 28 29 30 38 33 73 30 42 -4 67 12 35 22 -15 5 -17
17 -16 78 1 40 0 55 -2 33 -7 -65 -13 -82 -29 -82 -12 0 -15 14 -14 71 1 51 3
64 9 46 8 -24 8 -24 9 7 1 17 5 34 10 37 11 7 31 -38 31 -69 0 -50 15 -23 16
28 1 54 38 219 55 247 5 9 7 -78 3 -231 -5 -219 -4 -246 10 -246 9 0 16 4 16
9 0 12 190 5 191 -7 0 -5 -31 -17 -69 -27 -57 -14 -79 -25 -121 -64 -69 -63
-83 -72 -128 -83 -33 -8 -34 -9 -10 -10 16 -1 36 3 45 8 15 8 17 3 13 -42 -1
-29 1 -48 5 -44 9 9 10 13 12 63 3 60 110 138 223 163 51 12 75 37 57 59 -10
11 -35 13 -117 10 l-104 -3 -9 30 c-5 17 -6 121 -2 231 5 140 3 203 -4 208 -6
4 -15 -1 -20 -11z m-132 -312 c0 -50 -4 -72 -16 -82 -13 -10 -17 -10 -25 2
-11 17 -1 118 13 137 21 25 28 10 28 -57z m40 -92 c0 -5 -10 -9 -23 -9 -13 0
-32 -7 -43 -15 -23 -17 -34 -19 -34 -4 0 5 5 7 10 4 6 -3 10 -1 10 4 0 6 7 11
15 11 8 0 15 5 15 11 0 5 4 8 9 4 5 -3 12 -1 16 5 7 12 25 4 25 -11z m-95 -59
c-3 -5 -12 -10 -18 -10 -7 0 -6 4 3 10 19 12 23 12 15 0z"/>
<path d="M2225 1500 c-3 -6 -10 -38 -14 -73 l-7 -62 -8 52 c-4 29 -12 55 -16
58 -15 9 -30 -31 -30 -79 0 -25 -4 -46 -10 -46 -5 0 -10 9 -10 20 0 20 -24 28
-34 11 -3 -4 -8 -75 -11 -157 -3 -82 -8 -177 -11 -210 -4 -44 -1 -72 10 -99 9
-21 16 -61 16 -91 0 -56 10 -73 29 -50 8 10 9 16 1 21 -13 8 -13 65 0 85 7 11
2 22 -17 42 l-26 27 7 178 c4 98 9 192 9 210 1 17 5 35 10 39 4 4 7 -36 7 -89
0 -58 4 -97 10 -97 6 0 10 3 10 8 0 4 4 33 10 65 5 31 10 84 11 117 4 97 19
80 20 -22 1 -51 0 -109 -1 -128 -1 -24 2 -32 9 -25 6 6 15 55 22 110 6 55 13
116 16 135 11 66 20 -6 16 -125 -2 -60 -1 -106 3 -103 9 9 46 146 52 192 3 27
1 37 -7 32 -6 -4 -11 -22 -12 -39 -1 -18 -5 -43 -9 -57 -6 -19 -8 -10 -9 36
-2 100 -16 146 -36 114z"/>
<path d="M2310 1478 c-1 -6 -13 -275 -14 -300 -1 -27 -2 -27 -69 -26 -42 1
-73 -4 -80 -11 -9 -10 -6 -11 18 -6 17 4 36 8 43 11 6 2 12 -4 12 -12 0 -9 14
-21 30 -27 17 -6 30 -16 30 -21 0 -5 -18 -25 -40 -44 -23 -19 -38 -37 -35 -40
3 -3 16 5 29 17 13 12 29 21 37 19 8 -2 18 10 23 30 6 17 17 32 25 32 29 0 1
13 -34 15 -34 2 -53 10 -44 19 2 2 27 6 54 7 l50 3 -3 -43 c-2 -46 -39 -141
-53 -141 -5 0 -9 -5 -9 -12 0 -6 -8 -20 -17 -31 -17 -19 -17 -20 5 -15 21 6
22 3 23 -45 l1 -52 9 65 c5 36 14 74 19 85 6 11 12 29 15 40 2 11 11 47 19 79
16 66 13 86 -14 86 -14 0 -18 12 -24 65 -4 36 -5 69 -3 73 11 18 17 182 7 182
-5 0 -10 -1 -10 -2z"/>
<path d="M1651 1394 c-15 -60 -39 -106 -51 -99 -6 4 -10 1 -10 -4 0 -22 30
-10 43 17 18 36 41 121 35 128 -3 2 -11 -16 -17 -42z"/>
<path d="M3103 1413 c-7 -15 -13 -33 -13 -40 0 -17 -16 -17 -23 1 -8 19 -59
27 -77 11 -8 -7 -26 -11 -39 -10 -14 1 -36 -4 -50 -11 -14 -8 -33 -14 -42 -14
-27 0 -66 -48 -73 -88 -12 -73 -6 -133 20 -205 15 -39 31 -109 37 -154 5 -49
13 -80 19 -77 10 6 6 75 -7 127 -5 18 -3 27 5 27 7 0 6 5 -4 15 -37 38 -77
207 -54 230 10 10 48 -5 48 -19 0 -7 7 -27 16 -45 15 -30 17 -31 39 -17 12 8
41 17 65 19 23 2 46 10 50 17 5 8 17 10 33 6 29 -7 37 11 37 90 0 28 8 73 17
100 l17 49 10 -60 c6 -41 5 -90 -2 -153 -13 -97 -28 -138 -63 -171 -17 -15
-23 -35 -26 -86 -3 -45 -1 -65 6 -60 6 3 11 19 11 34 0 27 30 108 46 124 5 4
9 13 10 20 2 7 10 37 18 67 16 55 24 269 11 290 -11 18 -30 10 -42 -17z m-77
-69 c10 -53 -7 -149 -26 -149 -12 0 -15 14 -13 70 2 79 9 115 23 115 5 0 12
-16 16 -36z m50 -44 c-9 -59 -21 -93 -35 -98 -10 -3 -11 4 -5 29 4 19 6 49 5
67 -1 19 1 43 5 55 6 20 7 20 21 1 9 -12 12 -32 9 -54z m-128 38 c14 -26 21
-133 9 -144 -16 -16 -29 16 -34 90 -6 78 3 96 25 54z m-106 -35 c-3 -15 -12
-34 -20 -43 -14 -13 -15 -12 -8 15 7 26 23 55 31 55 1 0 0 -12 -3 -27z m59
-29 c15 -66 12 -94 -11 -94 -11 0 -20 1 -20 3 0 1 -4 29 -10 61 -7 43 -6 63 2
73 15 18 27 5 39 -43z m-1 -114 c0 -5 -4 -10 -10 -10 -5 0 -10 5 -10 10 0 6 5
10 10 10 6 0 10 -4 10 -10z"/>
<path d="M1694 1393 c-13 -60 -28 -99 -47 -128 -18 -26 -19 -28 -3 -15 22 17
50 80 60 133 8 42 0 51 -10 10z"/>
<path d="M859 1349 c-92 -70 -104 -83 -107 -114 -1 -23 1 -27 8 -15 8 12 10 9
7 -12 -1 -15 -5 -30 -9 -33 -8 -8 -19 55 -12 69 4 6 -1 4 -10 -5 -15 -14 -15
-18 0 -48 9 -18 14 -41 11 -53 -4 -15 12 -39 66 -97 61 -65 76 -87 96 -149 13
-40 26 -71 28 -68 3 2 -5 37 -18 78 -18 58 -32 82 -68 119 -56 56 -90 95 -75
86 7 -4 15 0 18 9 4 12 2 15 -9 11 -8 -4 -17 -1 -21 5 -4 6 -3 8 4 4 6 -3 14
-1 18 5 3 6 9 7 13 3 13 -19 123 -64 155 -64 29 0 36 5 45 31 13 36 15 99 4
99 -12 0 -43 59 -43 81 0 17 -3 17 -36 -6 -20 -14 -54 -30 -75 -36 -30 -9 -39
-18 -44 -40 -4 -16 -11 -29 -17 -29 -11 0 -7 41 7 74 7 15 5 17 -6 11 -8 -5
-3 4 10 18 14 15 29 27 35 27 6 0 0 -9 -14 -20 -14 -11 -21 -20 -16 -20 5 0
27 15 50 33 79 63 89 67 123 51 17 -9 54 -40 83 -71 l53 -56 -5 -196 c-3 -108
-1 -209 3 -226 5 -22 7 -9 7 45 0 41 2 144 4 228 l5 153 -51 53 c-57 60 -90
83 -134 95 -26 8 -37 4 -83 -30z m60 18 c-2 -2 -22 -15 -44 -31 l-40 -27 35
30 c19 17 39 31 44 31 5 0 7 -1 5 -3z m50 -140 c23 -39 28 -75 15 -119 -7 -24
-47 -23 -100 2 -59 29 -75 49 -66 85 7 23 19 34 63 52 30 12 56 22 59 22 3 1
16 -18 29 -42z"/>
<path d="M3730 1333 c-8 -3 -43 -34 -77 -69 -51 -50 -63 -69 -64 -96 -1 -18
-3 -56 -4 -85 -2 -36 1 -56 11 -64 8 -6 17 -9 21 -5 3 3 1 6 -5 6 -16 0 -15
148 1 180 11 22 19 25 82 27 39 2 78 3 88 4 9 0 15 4 12 9 -3 6 -35 7 -70 4
-36 -3 -65 -3 -65 0 0 3 21 25 48 50 47 46 49 49 22 39z"/>
<path d="M3838 1271 c-6 -10 -18 -17 -25 -14 -7 3 -13 3 -13 0 0 -3 6 -7 14
-10 9 -3 21 4 30 19 9 13 14 24 11 24 -3 0 -10 -9 -17 -19z"/>
<path d="M1440 1261 c0 -5 9 -12 20 -16 17 -5 14 -11 -26 -50 l-46 -43 17 -32
c9 -17 14 -37 12 -43 -2 -7 0 -21 6 -32 10 -19 27 -95 21 -95 -1 0 -11 15 -23
33 -13 22 -19 45 -16 72 1 22 -2 48 -7 58 -9 18 -10 18 -24 0 -14 -17 -15 -17
-10 2 3 11 1 27 -4 35 -8 12 -10 9 -10 -11 0 -43 55 -170 90 -207 11 -12 18
-26 15 -31 -3 -6 5 -21 17 -34 13 -13 38 -41 55 -62 29 -33 35 -36 49 -24 9 7
29 12 44 11 39 -4 82 36 114 107 22 50 28 83 36 194 6 74 12 142 16 150 3 8 1
18 -5 22 -7 4 -11 -3 -11 -17 -1 -82 -21 -279 -31 -308 -31 -90 -94 -154 -130
-132 -10 7 -19 8 -19 3 0 -14 -32 -23 -43 -12 -7 7 -3 13 11 18 21 8 21 8 3
48 l-18 41 61 28 c117 53 126 59 126 78 0 10 -7 18 -15 18 -19 0 -19 9 1 31
13 15 13 19 1 30 -8 7 -12 21 -10 30 5 19 -34 51 -51 42 -6 -3 -8 -3 -4 2 11
12 -61 94 -88 101 -15 4 -34 0 -50 -11 -23 -15 -27 -15 -43 -1 -20 18 -31 20
-31 7z m160 -36 c12 -14 11 -18 -1 -26 -21 -13 -39 -11 -39 6 0 8 -7 15 -15
15 -8 0 -15 -4 -15 -8 0 -5 -12 -15 -26 -22 -23 -13 -24 -15 -8 -27 10 -7 48
-12 96 -12 76 0 115 -12 102 -32 -3 -5 -49 -9 -102 -9 -66 0 -92 -3 -82 -10 8
-5 57 -10 108 -10 50 0 92 -3 92 -7 -1 -30 -39 -48 -124 -58 -32 -4 -54 -11
-49 -15 4 -4 43 -3 87 2 100 12 122 -2 50 -32 -93 -39 -139 -65 -139 -80 0 -8
5 -26 12 -40 10 -19 10 -26 0 -32 -19 -12 -23 -10 -36 18 -10 22 -9 28 5 39
12 9 14 14 5 19 -6 4 -18 3 -25 -3 -10 -9 -15 -8 -19 3 -8 21 9 29 34 15 17
-9 20 -8 17 3 -3 7 -19 14 -37 16 -30 3 -32 6 -30 35 2 18 -5 44 -15 59 -11
16 -15 35 -11 48 4 12 0 26 -9 36 -9 8 -16 22 -16 29 0 20 54 70 101 93 44 22
62 19 89 -13z m20 -45 c0 -5 -10 -10 -22 -10 -19 0 -20 2 -8 10 19 13 30 13
30 0z m-53 -6 c-3 -3 -12 -4 -19 -1 -8 3 -5 6 6 6 11 1 17 -2 13 -5z m-177
-88 c0 -8 3 -23 6 -33 3 -10 -2 -7 -10 7 -18 30 -20 40 -6 40 6 0 10 -6 10
-14z"/>
<path d="M1816 1150 c-19 -210 -103 -390 -180 -390 -16 0 -25 -4 -21 -10 11
-18 34 -10 73 24 46 42 86 112 108 192 18 63 37 215 32 249 -2 11 -7 -18 -12
-65z"/>
<path d="M3822 1181 c-16 -21 -28 -67 -43 -161 -27 -161 -42 -153 -35 20 4
114 4 118 -5 45 -27 -239 -52 -275 -44 -65 3 80 1 113 -4 92 -5 -18 -7 -42 -4
-52 5 -18 -32 -48 -45 -36 -7 7 -4 92 4 119 3 9 1 17 -4 17 -12 0 -25 -110
-16 -133 7 -19 34 -23 50 -7 6 6 8 -20 5 -70 -3 -68 -1 -81 14 -86 9 -4 21 -2
27 4 6 6 17 8 24 5 18 -7 22 7 37 103 7 43 17 79 22 79 40 1 85 72 85 131 0
16 -2 17 -10 4 -5 -8 -10 -25 -10 -38 0 -28 -61 -94 -68 -74 -2 8 5 22 16 32
17 17 39 86 29 96 -2 2 -13 -9 -25 -25z"/>
<path d="M168 1177 c-27 -6 -48 -15 -48 -20 0 -5 7 -6 16 -3 9 3 33 9 55 12
22 4 42 11 45 15 6 11 -4 10 -68 -4z"/>
<path d="M3029 1173 c-1 -5 -2 -12 -3 -18 0 -5 -9 -23 -20 -38 -10 -15 -16
-30 -13 -33 4 -5 67 80 67 92 0 7 -30 4 -31 -3z"/>
<path d="M2810 1166 c0 -2 11 -6 25 -8 14 -3 25 -1 25 3 0 5 -11 9 -25 9 -14
0 -25 -2 -25 -4z"/>
<path d="M197 1094 c-21 -14 -36 -28 -33 -32 3 -3 16 4 29 16 13 12 28 22 35
22 6 0 14 5 17 10 11 17 -9 11 -48 -16z"/>
<path d="M2173 1087 c-24 -5 -43 -14 -43 -19 0 -6 8 -7 18 -3 9 4 36 10 60 12
23 3 42 10 42 14 0 11 -22 10 -77 -4z"/>
<path d="M310 335 c0 -8 5 -15 10 -15 6 0 10 7 10 15 0 8 -4 15 -10 15 -5 0
-10 -7 -10 -15z"/>
<path d="M773 344 c-7 -3 -10 -11 -7 -19 3 -7 -2 -37 -10 -66 -9 -29 -16 -56
-16 -61 0 -15 27 -8 41 10 13 15 12 16 -3 3 -22 -17 -22 -16 1 69 19 68 19 74
-6 64z"/>
<path d="M1034 325 c-9 -14 -23 -25 -32 -25 -8 0 -24 -8 -35 -17 -19 -17 -20
-17 -14 0 4 9 3 17 -1 17 -16 0 -27 -16 -28 -40 0 -14 -4 -35 -8 -47 -13 -40
9 -25 29 20 12 25 26 41 34 39 8 -2 18 3 22 10 16 26 18 0 3 -57 -15 -56 -34
-94 -34 -67 0 7 -4 12 -10 12 -5 0 -10 -7 -10 -15 0 -22 37 -18 50 4 5 11 16
44 24 73 10 40 18 53 32 53 20 0 21 -9 10 -62 -6 -26 -4 -33 8 -33 8 0 22 10
30 22 l16 22 0 -22 c0 -26 12 -28 31 -5 12 14 12 16 0 8 -11 -6 -13 -2 -8 21
3 16 9 37 12 47 12 29 -12 19 -24 -10 -6 -16 -21 -39 -32 -53 l-21 -25 6 28
c3 15 9 39 12 53 5 18 3 25 -4 20 -5 -3 -20 -3 -31 2 -20 7 -20 9 -7 27 9 11
16 14 16 8 0 -18 20 -16 20 2 0 24 -38 17 -56 -10z"/>
<path d="M1270 340 c-8 -5 -10 -10 -3 -10 8 0 5 -19 -7 -62 -21 -68 -19 -78
15 -78 27 0 75 52 75 81 0 25 -27 36 -51 21 -16 -10 -17 -8 -8 21 5 17 9 33 9
34 0 6 -16 2 -30 -7z m60 -69 c0 -24 -37 -71 -56 -71 -19 0 -18 19 6 58 22 35
50 43 50 13z"/>
<path d="M1583 344 c-7 -3 -10 -11 -7 -19 3 -7 -2 -37 -10 -66 -9 -29 -16 -56
-16 -61 0 -15 27 -8 41 10 13 15 12 16 -3 3 -22 -17 -22 -16 1 69 19 68 19 74
-6 64z"/>
<path d="M2010 340 c-8 -5 -10 -10 -3 -10 8 0 5 -19 -7 -62 -21 -68 -19 -78
15 -78 27 0 75 52 75 81 0 25 -27 36 -51 21 -16 -10 -17 -8 -8 21 5 17 9 33 9
34 0 6 -16 2 -30 -7z m60 -69 c0 -24 -37 -71 -56 -71 -19 0 -18 19 6 58 22 35
50 43 50 13z"/>
<path d="M2330 335 c0 -8 5 -15 10 -15 6 0 10 7 10 15 0 8 -4 15 -10 15 -5 0
-10 -7 -10 -15z"/>
<path d="M2550 340 c-8 -5 -10 -10 -3 -10 8 0 5 -19 -7 -62 -21 -68 -19 -78
15 -78 27 0 75 52 75 81 0 25 -27 36 -51 21 -16 -10 -17 -8 -8 21 5 17 9 33 9
34 0 6 -16 2 -30 -7z m60 -69 c0 -24 -37 -71 -56 -71 -19 0 -18 19 6 58 22 35
50 43 50 13z"/>
<path d="M3040 340 c-8 -5 -10 -10 -3 -10 8 0 5 -19 -7 -62 -21 -68 -19 -78
15 -78 27 0 75 52 75 81 0 25 -27 36 -51 21 -16 -10 -17 -8 -8 21 5 17 9 33 9
34 0 6 -16 2 -30 -7z m60 -69 c0 -24 -37 -71 -56 -71 -19 0 -18 19 6 58 22 35
50 43 50 13z"/>
<path d="M87 293 c-13 -13 -7 -21 13 -16 27 7 25 -6 -10 -47 l-30 -34 36 -14
c26 -11 38 -12 46 -4 7 7 8 15 4 19 -4 4 -11 2 -15 -5 -6 -9 -12 -7 -26 8 -18
20 -18 21 1 43 48 54 49 57 17 57 -16 0 -33 -3 -36 -7z"/>
<path d="M175 269 c-14 -17 -25 -39 -25 -50 0 -25 27 -36 51 -21 13 9 19 8 22
-1 3 -8 10 -6 23 7 11 10 13 15 5 11 -14 -8 -13 7 5 66 3 12 -3 16 -25 17 -22
0 -37 -8 -56 -29z m55 -2 c0 -28 -26 -67 -46 -67 -34 0 4 89 39 90 4 0 7 -10
7 -23z"/>
<path d="M302 293 c-6 -2 -10 -9 -6 -14 3 -5 0 -25 -6 -45 -14 -42 -6 -55 18
-29 9 10 11 15 5 11 -16 -9 -16 -7 2 43 14 40 12 44 -13 34z"/>
<path d="M415 290 c-3 -5 -2 -10 3 -10 16 0 23 -30 12 -51 -6 -10 -17 -19 -25
-19 -8 0 -15 -4 -15 -10 0 -15 16 -12 31 6 12 14 14 14 26 -2 13 -17 14 -17
31 -1 16 17 16 18 0 11 -14 -5 -18 -1 -18 16 0 28 19 62 31 55 5 -4 9 -1 9 4
0 16 -11 14 -32 -6 -17 -15 -18 -15 -18 0 0 18 -25 23 -35 7z"/>
<path d="M525 269 c-14 -17 -25 -39 -25 -50 0 -25 27 -36 51 -21 13 9 19 8 22
-1 3 -8 10 -6 23 7 11 10 13 15 5 11 -14 -8 -13 7 5 66 3 12 -3 16 -25 17 -22
0 -37 -8 -56 -29z m55 -2 c0 -28 -26 -67 -46 -67 -34 0 4 89 39 90 4 0 7 -10
7 -23z"/>
<path d="M645 292 c-5 -4 -10 -18 -11 -32 0 -14 -4 -35 -8 -47 -12 -36 11 -27
24 10 24 67 22 90 -5 69z"/>
<path d="M679 283 c-13 -17 -13 -17 5 -3 21 16 21 22 0 -65 -7 -30 16 -35 37
-7 13 16 13 16 -5 2 -18 -14 -19 -13 -13 2 3 9 9 33 13 52 5 28 3 36 -9 36 -8
0 -21 -8 -28 -17z"/>
<path d="M834 275 c-34 -34 -30 -79 7 -83 16 -2 31 4 40 15 13 16 12 17 -3 4
-20 -15 -48 -8 -48 11 0 7 15 20 33 28 17 8 33 23 35 33 5 26 -34 21 -64 -8z
m46 5 c0 -5 -9 -14 -20 -20 -22 -12 -27 -1 -8 18 14 14 28 16 28 2z"/>
<path d="M1395 292 c-6 -4 -10 -14 -11 -22 -1 -8 -4 -30 -8 -47 -6 -26 -4 -33
8 -33 8 0 22 10 30 22 l16 22 0 -22 c0 -26 12 -28 31 -5 12 14 12 16 0 8 -11
-6 -13 -2 -8 21 3 16 9 37 12 47 15 37 -12 14 -38 -34 -33 -59 -43 -59 -27 1
12 44 11 53 -5 42z"/>
<path d="M1622 291 c-11 -7 -11 -9 1 -14 21 -8 33 -92 17 -111 -6 -8 -18 -12
-26 -9 -8 3 -14 0 -14 -6 0 -22 30 -10 53 22 49 64 71 127 46 127 -6 0 -9 -7
-5 -15 6 -18 -13 -67 -24 -60 -4 3 -11 21 -14 40 -7 36 -12 40 -34 26z"/>
<path d="M1895 276 c-28 -28 -33 -73 -9 -83 41 -15 100 49 77 85 -16 26 -40
26 -68 -2z m55 -10 c0 -30 -33 -72 -48 -62 -17 10 -15 37 4 64 20 29 44 28 44
-2z"/>
<path d="M2135 292 c-6 -4 -10 -14 -11 -22 -1 -8 -4 -30 -8 -47 -6 -26 -4 -33
8 -33 8 0 22 10 30 22 l16 22 0 -22 c0 -26 12 -28 31 -5 12 14 12 16 0 8 -11
-6 -13 -2 -8 21 3 16 9 37 12 47 15 37 -12 14 -38 -34 -33 -59 -43 -59 -27 1
12 44 11 53 -5 42z"/>
<path d="M2311 291 c-8 -5 -9 -10 -2 -12 7 -3 6 -19 -4 -54 -24 -81 -25 -82
-35 -65 -5 8 -12 11 -16 7 -4 -4 -3 -12 2 -17 21 -21 44 3 60 59 8 31 18 64
20 74 6 19 -3 22 -25 8z"/>
<path d="M2362 291 c-11 -7 -11 -9 1 -14 21 -8 33 -92 17 -111 -6 -8 -18 -12
-26 -9 -8 3 -14 0 -14 -6 0 -22 30 -10 53 22 49 64 71 127 46 127 -6 0 -9 -7
-5 -15 6 -18 -13 -67 -24 -60 -4 3 -11 21 -14 40 -7 36 -12 40 -34 26z"/>
<path d="M2652 291 c-11 -7 -11 -9 1 -14 21 -8 33 -92 17 -111 -6 -8 -18 -12
-26 -9 -8 3 -14 0 -14 -6 0 -22 30 -10 53 22 49 64 71 127 46 127 -6 0 -9 -7
-5 -15 6 -18 -13 -67 -24 -60 -4 3 -11 21 -14 40 -7 36 -12 40 -34 26z"/>
<path d="M2915 269 c-14 -17 -25 -39 -25 -50 0 -25 27 -36 51 -21 13 9 19 8
22 -1 3 -8 10 -6 23 7 11 10 13 15 5 11 -14 -8 -13 7 5 66 3 12 -3 16 -25 17
-22 0 -37 -8 -56 -29z m55 -2 c0 -28 -26 -67 -46 -67 -34 0 4 89 39 90 4 0 7
-10 7 -23z"/>
<path d="M3165 292 c-6 -4 -10 -14 -11 -22 -1 -8 -4 -30 -8 -47 -6 -26 -4 -33
8 -33 8 0 22 10 30 22 l16 22 0 -22 c0 -26 12 -28 31 -5 12 14 12 16 0 8 -11
-6 -13 -2 -8 21 3 16 9 37 12 47 15 37 -12 14 -38 -34 -33 -59 -43 -59 -27 1
12 44 11 53 -5 42z"/>
<path d="M3345 292 c-5 -4 -10 -18 -11 -32 0 -14 -4 -35 -8 -47 -12 -36 11
-27 24 10 24 67 22 90 -5 69z"/>
<path d="M3379 283 c-13 -17 -13 -17 5 -3 21 16 21 22 0 -65 -7 -30 16 -35 37
-7 13 16 13 16 -5 2 -18 -14 -19 -13 -13 2 3 9 9 33 13 52 5 28 3 36 -9 36 -8
0 -21 -8 -28 -17z"/>
<path d="M3452 291 c-11 -7 -11 -9 1 -14 21 -8 33 -92 17 -111 -6 -8 -18 -12
-26 -9 -8 3 -14 0 -14 -6 0 -22 30 -10 53 22 49 64 71 127 46 127 -6 0 -9 -7
-5 -15 6 -18 -13 -67 -24 -60 -4 3 -11 21 -14 40 -7 36 -12 40 -34 26z"/>
<path d="M1800 205 c0 -8 7 -15 15 -15 8 0 15 7 15 15 0 8 -7 15 -15 15 -8 0
-15 -7 -15 -15z"/>
<path d="M2830 205 c0 -8 7 -15 15 -15 8 0 15 7 15 15 0 8 -7 15 -15 15 -8 0
-15 -7 -15 -15z"/>
<path d="M3560 205 c0 -8 7 -15 15 -15 8 0 15 7 15 15 0 8 -7 15 -15 15 -8 0
-15 -7 -15 -15z"/>
</g>
</svg>
