<?xml version="1.0" standalone="no"?>
<!DOCTYPE svg PUBLIC "-//W3C//DTD SVG 20010904//EN"
 "http://www.w3.org/TR/2001/REC-SVG-20010904/DTD/svg10.dtd">
<svg version="1.0" xmlns="http://www.w3.org/2000/svg"
 width="177.000000pt" height="332.000000pt" viewBox="0 0 177.000000 332.000000"
 preserveAspectRatio="xMidYMid meet">

<g transform="translate(0.000000,332.000000) scale(0.100000,-0.100000)"
fill="#000000" stroke="none">
<path d="M847 3304 c-16 -8 -25 -20 -21 -26 4 -6 3 -8 -3 -5 -17 11 -46 -31
-45 -64 0 -18 -6 -49 -15 -70 -12 -32 -13 -42 -3 -55 15 -17 32 -1 23 23 -3 7
0 13 6 13 7 0 14 -7 17 -15 4 -8 11 -12 17 -8 10 6 9 0 -9 -42 -2 -6 5 -16 16
-23 17 -10 21 -10 26 3 3 8 10 12 15 9 5 -3 9 3 9 12 0 14 -3 15 -12 6 -7 -7
-18 -12 -25 -12 -11 0 -10 7 1 35 8 19 11 35 5 35 -5 0 -8 3 -8 8 3 18 -3 20
-30 12 -25 -7 -28 -6 -24 11 3 10 8 18 12 17 17 -2 21 4 12 20 -24 46 80 125
133 101 20 -9 23 -17 21 -46 -2 -19 -5 -37 -8 -39 -2 -2 -13 15 -25 39 -13 25
-22 34 -22 23 0 -10 10 -35 21 -56 19 -33 24 -37 36 -25 8 8 13 30 11 49 -2
36 6 55 19 42 7 -7 8 -58 1 -86 -1 -8 -10 -18 -18 -21 -21 -9 -25 -98 -5 -106
9 -3 22 2 30 13 7 11 17 16 21 11 4 -4 2 -7 -4 -7 -7 0 -12 -11 -12 -25 0 -16
-6 -25 -15 -25 -8 0 -15 4 -15 8 0 5 -7 9 -15 9 -8 0 -15 -4 -15 -8 0 -4 -3
-16 -6 -26 -6 -16 -5 -15 9 2 21 27 34 11 13 -17 -39 -56 -44 -64 -51 -85 -12
-43 13 -23 41 33 15 30 31 57 34 59 7 4 -4 -83 -11 -88 -27 -22 -57 -37 -72
-37 -14 0 -16 4 -7 19 12 24 13 31 1 31 -5 0 -12 -13 -16 -30 -8 -37 -22 -39
-32 -2 l-7 27 -7 -25 c-6 -21 -7 -19 -9 15 -1 22 -4 34 -7 28 -8 -21 -19 -14
-18 12 0 13 9 31 20 39 20 15 20 15 -1 16 -12 0 -25 10 -31 22 -9 22 -11 21
-22 -15 -11 -32 -10 -41 4 -63 16 -25 16 -27 -3 -40 -11 -8 -23 -28 -27 -44
-4 -17 -10 -30 -15 -30 -14 0 -40 -92 -50 -176 -5 -43 -14 -95 -20 -114 -12
-40 -14 -180 -2 -180 10 0 6 -119 -7 -213 -6 -43 -11 -107 -11 -142 0 -43 -5
-68 -15 -79 -8 -8 -15 -18 -15 -22 0 -4 -11 -22 -25 -40 -14 -19 -25 -40 -23
-46 2 -7 -7 -27 -18 -43 -50 -70 -56 -98 -58 -310 -1 -110 -4 -206 -7 -214 -6
-20 67 -43 132 -39 l56 3 12 -150 c7 -82 17 -166 22 -185 5 -19 9 -45 9 -57 0
-12 4 -32 9 -45 9 -23 12 -24 73 -16 34 4 75 10 89 14 23 5 27 2 32 -23 9 -42
73 -67 154 -59 57 6 62 5 69 -16 5 -16 1 -27 -16 -40 -12 -10 -28 -18 -34 -18
-7 0 -37 -12 -67 -26 -30 -15 -67 -27 -84 -28 -16 0 -33 -5 -36 -9 -3 -4 -17
-4 -30 1 -35 13 -85 -10 -93 -43 -4 -14 -4 -30 -1 -35 4 -6 -1 -10 -10 -10
-34 0 -51 -91 -31 -163 6 -18 4 -32 -4 -42 -7 -9 -9 -19 -5 -23 4 -4 10 -1 12
6 3 6 10 9 16 5 16 -10 37 -13 37 -5 0 12 -15 29 -30 35 -9 3 -4 6 11 6 19 1
28 -5 32 -20 3 -12 10 -18 16 -14 6 3 11 1 11 -6 0 -20 29 24 30 44 0 22 -9
22 -25 0 -12 -16 -14 -16 -29 0 -10 9 -23 17 -31 17 -7 0 -16 8 -20 17 -12 28
-13 93 -2 93 5 0 7 7 3 15 -5 14 5 19 32 16 6 -1 12 4 12 11 0 9 3 9 10 -2 9
-13 11 -13 20 0 16 24 12 33 -14 26 -25 -6 -42 5 -28 18 4 4 7 13 7 19 0 7 17
12 44 12 40 0 45 -3 54 -28 9 -27 -1 -55 -10 -29 -7 17 -30 15 -37 -4 -9 -23
-9 -23 24 -19 18 3 28 0 25 -5 -4 -6 -2 -10 3 -10 17 0 21 -54 6 -71 -12 -14
-13 -18 -2 -22 9 -4 8 -6 -3 -6 -17 -1 -36 -31 -20 -31 15 0 43 39 36 49 -3 6
-1 11 4 11 14 0 14 77 1 85 -6 4 -7 12 -1 23 6 10 4 23 -5 37 -11 18 -12 22
-1 22 7 0 52 16 99 36 47 21 92 37 100 37 24 0 41 27 40 62 0 22 6 37 20 47
20 14 21 20 15 150 -4 75 -16 208 -27 296 -16 128 -18 175 -10 235 5 41 12
129 16 195 3 66 8 123 10 126 6 10 -24 291 -41 384 -8 44 -16 91 -18 105 -6
40 17 278 28 288 2 2 11 -9 21 -25 10 -15 24 -33 32 -40 11 -9 16 -63 22 -235
5 -123 11 -272 15 -333 3 -60 10 -209 15 -330 6 -121 15 -274 20 -340 5 -66
11 -200 12 -297 2 -143 5 -178 16 -178 11 0 13 10 8 43 -3 23 -10 155 -16 292
-6 138 -12 264 -15 280 -4 26 -16 263 -40 805 -19 421 -26 652 -21 657 3 4 6
-11 6 -33 0 -21 4 -66 9 -99 6 -33 12 -118 16 -190 3 -71 12 -238 20 -370 8
-132 17 -305 20 -385 4 -80 8 -156 10 -170 2 -14 8 -122 15 -240 6 -118 15
-270 20 -338 6 -67 10 -147 10 -177 0 -30 4 -55 8 -55 5 0 7 26 5 58 -6 112
-33 581 -48 817 -8 132 -17 310 -21 395 -3 85 -10 202 -13 260 -4 58 -6 107
-5 109 2 2 10 -4 19 -13 40 -39 105 -4 112 60 6 56 -31 215 -77 334 -40 103
-60 165 -60 191 0 50 -12 88 -25 83 -16 -6 -8 47 9 58 17 12 54 9 76 -4 15
-10 22 -9 39 6 27 25 85 14 107 -19 18 -27 15 -99 -4 -101 -7 -1 -52 -2 -102
-3 -49 0 -90 -5 -90 -9 0 -5 51 -7 113 -5 l112 3 -3 58 c-4 78 -20 99 -79 107
-63 8 -83 19 -113 60 -29 40 -58 44 -87 13 -36 -41 -41 -60 -36 -135 5 -65 4
-73 -11 -73 -16 0 -17 -8 -12 -67 6 -89 7 -93 21 -93 6 0 12 -20 14 -47 l2
-48 -25 35 c-13 19 -31 43 -40 53 -9 9 -16 26 -16 37 0 11 -6 20 -13 20 -8 0
-27 11 -43 25 -16 14 -32 25 -35 25 -4 0 -10 8 -13 17 -4 10 -4 14 0 11 4 -4
15 -3 26 3 14 8 17 14 9 23 -10 12 -9 36 5 105 4 18 2 22 -10 18 -9 -4 -16 -2
-16 3 0 6 -9 10 -20 10 -11 0 -20 5 -20 11 0 5 5 7 10 4 6 -3 10 -1 10 5 0 7
7 5 16 -4 22 -23 34 -11 34 35 0 43 -40 114 -69 123 -45 14 -108 14 -134 0z
m183 -94 c0 -11 -4 -20 -10 -20 -5 0 -10 9 -10 20 0 11 5 20 10 20 6 0 10 -9
10 -20z m271 -41 c28 -28 47 -54 43 -58 -3 -3 -23 13 -44 37 -21 23 -43 42
-49 42 -17 0 -41 -55 -41 -95 0 -19 -4 -35 -10 -35 -13 0 -13 61 1 97 10 26
37 63 46 63 2 0 27 -23 54 -51z m-22 -18 c12 -22 5 -31 -26 -31 -24 0 -27 7
-17 34 8 22 31 20 43 -3z m-292 -63 c-3 -8 -6 -5 -6 6 -1 11 2 17 5 13 3 -3 4
-12 1 -19z m231 -83 c3 -25 2 -27 -12 -16 -19 16 -22 55 -3 49 6 -3 14 -17 15
-33z m32 -49 c0 -21 5 -56 11 -77 10 -32 9 -40 -4 -54 -15 -14 -19 -12 -51 22
-34 37 -40 52 -38 102 2 33 8 36 36 17 36 -23 39 -21 33 22 -5 25 -3 32 3 22
5 -8 10 -32 10 -54z m-232 -129 c-11 -29 -28 -77 -37 -108 l-16 -56 -55 2
c-91 4 -109 12 -116 52 -8 41 0 146 12 165 6 9 10 4 14 -17 4 -22 11 -30 25
-30 12 1 19 7 17 15 -3 11 2 10 16 -3 17 -16 20 -16 25 -2 4 8 13 15 20 15 8
0 30 13 48 30 l34 30 17 -21 c16 -19 16 -23 -4 -72z m-227 60 c-8 -20 -16
-161 -12 -204 1 -17 56 -32 133 -37 56 -4 67 -2 74 12 4 9 6 21 5 26 -5 22 55
175 74 188 21 15 28 -12 12 -54 -26 -71 -38 -149 -31 -197 6 -45 27 -81 47
-81 5 0 4 8 -4 18 -7 9 0 5 15 -9 23 -22 26 -30 17 -47 -6 -11 -13 -82 -17
-158 -5 -119 -3 -156 15 -251 40 -209 47 -496 16 -676 -11 -66 -11 -94 0 -170
36 -248 48 -498 24 -513 -6 -3 -48 -9 -93 -11 -76 -5 -84 -4 -109 18 -23 20
-30 36 -37 94 -26 200 -35 353 -35 568 0 130 -3 237 -7 237 -22 0 3 -731 28
-812 3 -11 0 -18 -8 -19 -7 0 -22 -3 -33 -6 -11 -3 -45 -8 -76 -10 l-57 -5
-11 69 c-33 198 -39 295 -36 523 3 190 8 256 25 345 12 61 24 151 27 200 2 50
8 128 12 175 9 97 9 120 -9 362 -15 189 -6 341 24 413 17 39 41 50 27 12z
m396 -177 c6 -14 14 -77 17 -140 5 -93 3 -111 -7 -96 -43 65 -94 122 -106 118
-7 -2 -17 2 -22 9 -12 20 3 151 22 201 l11 27 37 -47 c20 -26 41 -58 48 -72z
m-458 83 c-14 -35 -19 -244 -8 -313 14 -92 22 -285 14 -383 l-7 -95 -34 -4
-34 -4 0 56 c0 30 7 95 14 143 10 59 12 105 6 140 -4 29 -6 55 -3 60 2 4 0 7
-4 7 -5 0 -9 9 -10 20 -1 11 2 18 7 15 4 -3 6 3 3 14 -9 34 35 333 53 363 11
18 13 6 3 -19z m570 -15 c56 -133 92 -301 77 -361 -8 -32 -44 -44 -78 -26 -12
7 -26 12 -29 12 -4 -1 -7 21 -7 50 0 35 2 46 8 32 4 -11 5 -24 2 -29 -3 -5 0
-6 7 -2 14 9 12 21 -39 241 -10 43 -9 55 7 87 10 21 22 38 26 38 4 0 16 -19
26 -42z m-575 -865 c-6 -89 -6 -88 -48 -91 -38 -3 -43 3 -25 28 9 13 10 12 5
-2 -3 -10 -2 -18 3 -18 5 0 12 12 16 28 l7 27 11 -25 10 -25 5 23 c4 28 3 31
-28 34 -17 2 -28 -4 -37 -22 -9 -17 -13 -20 -13 -8 0 9 -5 18 -11 20 -15 5 29
58 47 58 11 0 13 6 9 20 -5 17 -2 20 24 20 l30 0 -5 -67z m-114 -67 c0 -2 -8
-10 -17 -17 -16 -13 -17 -12 -4 4 13 16 21 21 21 13z m98 -41 c2 -1 -2 -32 -9
-67 l-12 -65 -34 7 c-18 5 -58 7 -88 5 -30 -2 -55 -1 -55 1 0 3 11 27 25 54
33 66 53 78 118 72 28 -2 53 -6 55 -7z m-59 -141 c18 -4 31 -13 31 -22 0 -13
-12 -14 -76 -9 -85 8 -112 18 -74 28 33 9 81 10 119 3z m-37 -49 c34 -3 64 -7
66 -9 2 -3 -1 -36 -7 -75 -6 -38 -11 -117 -11 -175 l0 -105 -35 -10 c-32 -9
-89 -2 -114 13 -7 5 -10 69 -10 196 l1 189 25 -10 c13 -5 51 -11 85 -14z"/>
<path d="M886 1715 c-3 -9 -6 -29 -5 -43 1 -22 3 -19 10 12 10 40 6 60 -5 31z"/>
<path d="M1242 2740 c0 -14 2 -19 5 -12 2 6 2 18 0 25 -3 6 -5 1 -5 -13z"/>
<path d="M840 3234 c0 -8 5 -25 11 -37 12 -22 12 -22 -10 -3 -21 19 -28 12
-12 -13 5 -8 16 -11 30 -6 22 7 27 20 11 30 -5 3 -10 15 -10 26 0 10 -4 19
-10 19 -5 0 -10 -7 -10 -16z"/>
<path d="M886 3228 c9 -31 34 -59 46 -52 5 3 3 13 -5 22 -8 10 -17 25 -20 35
-10 26 -30 21 -21 -5z"/>
<path d="M883 3128 c2 -13 12 -25 22 -27 13 -2 16 1 12 14 -6 13 -3 15 14 10
15 -5 20 -3 17 6 -2 7 -19 14 -36 16 -29 4 -32 2 -29 -19z"/>
<path d="M846 2999 c-17 -21 -17 -23 -2 -34 9 -7 16 -22 16 -34 0 -11 5 -21
11 -21 7 0 9 10 7 24 -3 15 0 27 8 30 8 3 14 15 14 27 0 14 -5 19 -14 16 -8
-3 -16 -2 -18 4 -2 5 -12 0 -22 -12z"/>
<path d="M910 3006 c0 -9 5 -16 10 -16 6 0 10 4 10 9 0 6 -4 13 -10 16 -5 3
-10 -1 -10 -9z"/>
<path d="M907 2960 c-3 -11 -1 -20 4 -20 5 0 9 9 9 20 0 11 -2 20 -4 20 -2 0
-6 -9 -9 -20z"/>
<path d="M1570 833 c-54 -7 -71 -14 -103 -43 -32 -28 -84 -55 -99 -52 -4 1
-27 -7 -52 -18 -34 -14 -50 -29 -66 -61 -14 -26 -18 -44 -12 -48 6 -3 12 -22
14 -41 4 -31 8 -35 36 -37 21 -2 39 4 52 17 11 11 25 20 30 20 6 0 10 4 10 9
0 15 49 19 61 5 6 -8 16 -11 23 -7 6 3 6 0 -1 -8 -7 -7 -13 -22 -13 -32 0 -15
3 -17 13 -8 8 6 17 8 20 4 4 -3 7 0 7 8 0 11 2 11 10 -1 8 -13 10 -13 10 2 0
9 -8 19 -17 21 -10 3 -1 5 21 6 30 1 37 -2 32 -14 -8 -22 12 -18 24 5 9 17 6
20 -27 25 -21 4 -45 9 -53 12 -8 4 -19 5 -24 4 -20 -4 -44 31 -41 62 2 18 3
40 4 50 1 23 48 70 61 62 6 -3 10 0 10 8 0 13 20 23 70 33 29 7 75 -17 111
-57 53 -58 54 -71 8 -100 -22 -13 -39 -27 -39 -30 0 -4 -21 -12 -46 -19 -36
-10 -42 -15 -30 -22 10 -6 15 -17 12 -26 -4 -13 1 -17 19 -18 25 -2 33 10 15
21 -15 9 -12 35 4 35 7 0 19 7 26 15 7 9 19 14 26 11 7 -3 24 6 38 19 19 18
26 20 30 9 7 -19 26 -18 26 1 0 8 -3 15 -8 15 -4 0 -18 20 -32 45 -14 25 -28
45 -33 45 -4 0 -5 5 -2 10 3 6 -2 13 -12 17 -10 4 -25 15 -34 25 -9 10 -19 15
-22 11 -4 -3 -12 -2 -19 4 -7 5 -24 7 -38 6z m-165 -160 c2 -49 1 -51 -36 -74
-21 -13 -39 -31 -40 -39 -1 -11 -3 -10 -6 3 -5 20 -14 22 -30 6 -20 -20 -38
63 -20 93 10 16 65 49 89 52 3 1 10 4 14 9 17 16 27 -1 29 -50z"/>
<path d="M1291 641 c-8 -6 -11 -16 -7 -27 6 -16 8 -16 23 -1 20 19 6 41 -16
28z"/>
<path d="M695 719 c-27 -22 -58 -47 -68 -55 -27 -22 -20 -81 11 -89 26 -6 112
18 150 43 21 13 22 13 16 -4 -4 -11 -12 -25 -17 -32 -7 -9 -6 -11 4 -7 8 3 22
18 32 33 11 15 43 45 73 66 69 50 62 61 -8 14 -29 -20 -64 -39 -78 -43 -14 -4
-29 -11 -35 -15 -15 -11 -106 -40 -127 -40 -13 0 -18 8 -18 29 0 24 12 38 70
82 39 29 70 54 70 56 0 12 -33 -5 -75 -38z"/>
<path d="M610 725 c0 -8 5 -15 10 -15 6 0 10 7 10 15 0 8 -4 15 -10 15 -5 0
-10 -7 -10 -15z"/>
<path d="M389 703 c-17 -15 -41 -29 -52 -30 -20 -3 -101 -63 -124 -93 -7 -8
-13 -22 -13 -30 0 -8 -9 -21 -21 -28 -12 -7 -18 -16 -15 -19 3 -4 1 -12 -6
-20 -6 -7 -8 -16 -5 -19 3 -4 -3 -24 -14 -45 -18 -37 -18 -39 -2 -39 10 0 26
7 37 15 12 9 25 11 35 6 9 -5 31 -9 50 -9 42 -1 46 -5 25 -26 -9 -9 -13 -20
-10 -24 4 -3 11 0 15 7 5 7 14 10 20 7 6 -4 11 -2 11 4 0 6 6 10 13 8 6 -2 12
2 12 7 0 6 -4 9 -10 7 -5 -2 -7 0 -3 4 5 4 20 9 35 10 20 2 24 1 13 -6 -8 -5
-11 -12 -7 -16 3 -4 13 -2 21 5 11 9 15 9 19 -1 4 -10 6 -10 6 0 1 6 8 12 16
12 8 0 15 5 15 11 0 7 -10 9 -25 7 -13 -3 -22 -1 -19 3 3 5 11 9 17 9 24 0 86
60 92 90 4 17 11 30 16 30 5 0 9 5 9 11 0 5 -4 7 -10 4 -5 -3 -10 0 -11 7 0 7
-7 -5 -15 -27 -22 -61 -93 -124 -139 -124 -11 0 -47 0 -79 -1 -35 -1 -62 3
-66 10 -9 14 -20 13 -40 -4 -29 -25 -38 -27 -33 -6 3 10 11 24 18 30 8 6 11
18 8 26 -3 8 1 14 11 14 9 0 16 8 16 19 0 11 5 23 10 26 6 4 8 11 4 16 -6 11
69 84 109 105 27 14 27 14 22 -8 -5 -24 38 -88 51 -75 4 3 1 13 -6 22 -7 8 -9
15 -4 15 5 0 3 4 -4 9 -11 7 -11 14 1 42 23 55 44 71 84 64 48 -7 50 -10 45
-45 -3 -24 -1 -30 14 -30 16 0 17 -2 4 -10 -16 -10 -23 -50 -8 -50 57 0 60 77
6 123 -44 37 -95 37 -139 0z m151 -43 c0 -5 -4 -10 -10 -10 -5 0 -10 5 -10 10
0 6 5 10 10 10 6 0 10 -4 10 -10z"/>
<path d="M260 710 c0 -5 7 -10 15 -10 8 0 15 5 15 10 0 6 -7 10 -15 10 -8 0
-15 -4 -15 -10z"/>
<path d="M1491 688 c7 -13 14 -18 16 -12 4 11 58 5 96 -11 12 -5 17 -3 17 8 0
10 -14 17 -42 22 -24 4 -56 9 -71 11 -26 4 -27 3 -16 -18z"/>
<path d="M1637 684 c-4 -4 -4 -10 -1 -15 6 -10 34 0 34 12 0 10 -24 12 -33 3z"/>
<path d="M447 646 c-3 -8 0 -17 8 -20 11 -4 25 13 25 30 0 11 -29 2 -33 -10z"/>
<path d="M330 535 c-7 -14 -17 -25 -22 -25 -5 0 -20 -11 -34 -25 -14 -14 -20
-25 -13 -25 22 0 76 40 87 64 15 33 -1 42 -18 11z"/>
<path d="M60 540 c0 -5 7 -10 15 -10 8 0 15 5 15 10 0 6 -7 10 -15 10 -8 0
-15 -4 -15 -10z"/>
<path d="M1130 520 c0 -5 5 -10 10 -10 6 0 10 5 10 10 0 6 -4 10 -10 10 -5 0
-10 -4 -10 -10z"/>
<path d="M1020 500 c0 -5 5 -10 10 -10 6 0 10 5 10 10 0 6 -4 10 -10 10 -5 0
-10 -4 -10 -10z"/>
<path d="M1280 500 c0 -5 5 -10 10 -10 6 0 10 5 10 10 0 6 -4 10 -10 10 -5 0
-10 -4 -10 -10z"/>
<path d="M560 490 c0 -5 7 -10 15 -10 8 0 15 5 15 10 0 6 -7 10 -15 10 -8 0
-15 -4 -15 -10z"/>
<path d="M700 435 c0 -8 5 -15 10 -15 6 0 10 7 10 15 0 8 -4 15 -10 15 -5 0
-10 -7 -10 -15z"/>
<path d="M1610 440 c0 -5 7 -10 15 -10 8 0 15 5 15 10 0 6 -7 10 -15 10 -8 0
-15 -4 -15 -10z"/>
<path d="M1150 430 c0 -5 7 -10 15 -10 8 0 15 5 15 10 0 6 -7 10 -15 10 -8 0
-15 -4 -15 -10z"/>
<path d="M1360 430 c0 -5 7 -10 15 -10 8 0 15 5 15 10 0 6 -7 10 -15 10 -8 0
-15 -4 -15 -10z"/>
<path d="M560 410 c0 -5 5 -10 10 -10 6 0 10 5 10 10 0 6 -4 10 -10 10 -5 0
-10 -4 -10 -10z"/>
<path d="M1040 410 c0 -5 5 -10 10 -10 6 0 10 5 10 10 0 6 -4 10 -10 10 -5 0
-10 -4 -10 -10z"/>
<path d="M0 340 c0 -5 5 -10 10 -10 6 0 10 5 10 10 0 6 -4 10 -10 10 -5 0 -10
-4 -10 -10z"/>
<path d="M1440 330 c0 -5 7 -10 15 -10 8 0 15 5 15 10 0 6 -7 10 -15 10 -8 0
-15 -4 -15 -10z"/>
<path d="M440 290 c0 -11 5 -20 10 -20 6 0 10 9 10 20 0 11 -4 20 -10 20 -5 0
-10 -9 -10 -20z"/>
<path d="M1340 300 c0 -5 5 -10 10 -10 6 0 10 5 10 10 0 6 -4 10 -10 10 -5 0
-10 -4 -10 -10z"/>
<path d="M870 280 c0 -11 4 -20 10 -20 5 0 7 8 3 18 -5 14 -3 15 8 5 18 -18
30 -16 23 2 -9 23 -44 19 -44 -5z"/>
<path d="M1110 290 c0 -5 5 -10 10 -10 6 0 10 5 10 10 0 6 -4 10 -10 10 -5 0
-10 -4 -10 -10z"/>
<path d="M1710 290 c0 -5 5 -10 10 -10 6 0 10 5 10 10 0 6 -4 10 -10 10 -5 0
-10 -4 -10 -10z"/>
<path d="M130 280 c0 -5 7 -10 15 -10 8 0 15 5 15 10 0 6 -7 10 -15 10 -8 0
-15 -4 -15 -10z"/>
<path d="M350 145 c0 -8 5 -15 10 -15 6 0 10 7 10 15 0 8 -4 15 -10 15 -5 0
-10 -7 -10 -15z"/>
<path d="M680 145 c0 -8 5 -15 10 -15 6 0 10 7 10 15 0 8 -4 15 -10 15 -5 0
-10 -7 -10 -15z"/>
<path d="M890 145 c0 -8 5 -15 10 -15 6 0 10 7 10 15 0 8 -4 15 -10 15 -5 0
-10 -7 -10 -15z"/>
<path d="M1220 145 c0 -8 5 -15 10 -15 6 0 10 7 10 15 0 8 -4 15 -10 15 -5 0
-10 -7 -10 -15z"/>
<path d="M342 103 c-6 -2 -10 -9 -6 -14 3 -5 0 -25 -6 -45 -14 -42 -6 -55 18
-29 9 10 11 15 5 11 -16 -9 -16 -7 2 43 14 40 12 44 -13 34z"/>
<path d="M545 79 c-14 -17 -25 -39 -25 -50 0 -25 27 -36 51 -21 13 9 19 8 22
-1 3 -8 10 -6 23 7 11 10 13 15 5 11 -14 -8 -13 7 5 66 3 12 -3 16 -25 17 -22
0 -37 -8 -56 -29z m55 -2 c0 -28 -26 -67 -46 -67 -34 0 4 89 39 90 4 0 7 -10
7 -23z"/>
<path d="M672 103 c-6 -2 -10 -9 -6 -14 3 -5 0 -25 -6 -45 -14 -42 -6 -55 18
-29 9 10 11 15 5 11 -16 -9 -16 -7 2 43 14 40 12 44 -13 34z"/>
<path d="M882 103 c-6 -2 -10 -9 -6 -14 3 -5 0 -25 -6 -45 -14 -42 -6 -55 18
-29 9 10 11 15 5 11 -16 -9 -16 -7 2 43 14 40 12 44 -13 34z"/>
<path d="M1085 79 c-14 -17 -25 -39 -25 -50 0 -25 27 -36 51 -21 13 9 19 8 22
-1 3 -8 10 -6 23 7 11 10 13 15 5 11 -14 -8 -13 7 5 66 3 12 -3 16 -25 17 -22
0 -37 -8 -56 -29z m55 -2 c0 -28 -26 -67 -46 -67 -34 0 4 89 39 90 4 0 7 -10
7 -23z"/>
<path d="M1212 103 c-6 -2 -10 -9 -6 -14 3 -5 0 -25 -6 -45 -14 -42 -6 -55 18
-29 9 10 11 15 5 11 -16 -9 -16 -7 2 43 14 40 12 44 -13 34z"/>
<path d="M1425 86 c-28 -28 -33 -73 -9 -83 41 -15 100 49 77 85 -16 26 -40 26
-68 -2z m55 -10 c0 -30 -33 -72 -48 -62 -17 10 -15 37 4 64 20 29 44 28 44 -2z"/>
<path d="M250 15 c0 -8 7 -15 15 -15 8 0 15 7 15 15 0 8 -7 15 -15 15 -8 0
-15 -7 -15 -15z"/>
<path d="M460 15 c0 -8 7 -15 15 -15 8 0 15 7 15 15 0 8 -7 15 -15 15 -8 0
-15 -7 -15 -15z"/>
<path d="M790 15 c0 -8 7 -15 15 -15 8 0 15 7 15 15 0 8 -7 15 -15 15 -8 0
-15 -7 -15 -15z"/>
<path d="M1000 15 c0 -8 7 -15 15 -15 8 0 15 7 15 15 0 8 -7 15 -15 15 -8 0
-15 -7 -15 -15z"/>
<path d="M1330 15 c0 -8 7 -15 15 -15 8 0 15 7 15 15 0 8 -7 15 -15 15 -8 0
-15 -7 -15 -15z"/>
</g>
</svg>
