<?xml version="1.0" standalone="no"?>
<!DOCTYPE svg PUBLIC "-//W3C//DTD SVG 20010904//EN"
 "http://www.w3.org/TR/2001/REC-SVG-20010904/DTD/svg10.dtd">
<svg version="1.0" xmlns="http://www.w3.org/2000/svg"
 width="314.000000pt" height="272.000000pt" viewBox="0 0 314.000000 272.000000"
 preserveAspectRatio="xMidYMid meet">

<g transform="translate(0.000000,272.000000) scale(0.100000,-0.100000)"
fill="#000000" stroke="none">
<path d="M1254 2041 c-31 -19 -64 -74 -64 -106 0 -9 -11 -40 -25 -67 -14 -28
-24 -53 -21 -55 9 -9 45 65 60 122 19 73 50 105 104 105 62 0 103 -45 71 -77
-8 -8 -7 -13 1 -18 29 -18 41 53 13 76 -55 44 -92 49 -139 20z"/>
<path d="M1330 1975 c-15 -8 -19 -15 -11 -19 15 -10 48 1 54 18 6 16 -14 16
-43 1z"/>
<path d="M1240 1894 c-11 -26 -20 -58 -20 -71 0 -23 -3 -24 -45 -20 -25 3 -48
1 -51 -4 -3 -5 11 -9 31 -9 29 0 36 -3 31 -15 -7 -19 -118 -188 -128 -195 -15
-11 -29 -65 -19 -68 6 -2 11 -9 11 -15 0 -6 20 -37 45 -68 43 -55 45 -60 36
-98 -5 -22 -7 -69 -4 -103 4 -55 -22 -239 -42 -303 -6 -19 -2 -20 78 -17 l85
4 -20 -69 c-31 -104 -34 -141 -12 -158 18 -14 17 -14 -7 -15 -43 0 -50 18 -46
128 1 55 -1 98 -5 96 -4 -3 -8 -34 -8 -70 l0 -64 -107 -1 c-60 0 -119 -2 -133
-4 -14 -1 -141 -4 -282 -6 -141 -2 -265 -7 -275 -11 -19 -7 618 -1 725 8 l62
5 0 -48 c0 -60 16 -71 106 -80 63 -6 70 -3 66 28 -1 4 6 5 16 2 9 -2 25 2 36
10 18 13 18 14 -4 35 -12 11 -36 24 -51 27 -70 16 -12 23 229 30 141 4 367 10
502 14 135 4 247 6 250 4 2 -2 -9 -15 -25 -28 -28 -24 -29 -26 -12 -39 10 -8
18 -18 17 -23 -1 -14 42 -16 82 -4 27 9 40 19 44 36 3 14 10 25 16 25 5 0 6 9
3 20 -6 19 -2 20 107 21 62 1 129 3 148 4 19 1 133 4 253 6 119 1 217 7 217
11 0 9 -259 5 -589 -8 l-144 -5 5 52 c4 43 11 57 33 74 47 35 105 97 105 112
0 11 -7 9 -30 -7 -34 -24 -50 -19 -50 16 0 30 -14 59 -46 93 -13 14 -24 29
-24 34 0 4 -10 -2 -22 -13 -15 -14 -24 -17 -27 -9 -5 15 26 39 50 39 19 0 33
26 19 35 -5 3 -16 28 -25 55 -18 53 -37 70 -81 70 -34 0 -94 -45 -94 -70 0
-27 14 -32 28 -9 7 11 8 19 2 19 -24 0 6 31 40 41 51 15 68 4 96 -65 l23 -56
-32 -14 c-31 -12 -32 -12 -35 13 -6 43 -18 44 -14 1 4 -43 1 -46 -28 -30 -11
6 -21 6 -24 1 -3 -5 9 -14 27 -22 43 -17 43 -16 23 -38 -9 -10 -24 -55 -33
-99 -14 -73 -14 -86 0 -143 9 -35 14 -66 12 -70 -7 -10 -184 -18 -545 -25
-184 -3 -368 -7 -408 -9 l-72 -3 6 37 c4 20 11 46 15 59 11 30 11 55 0 48 -4
-3 -11 -22 -14 -43 -4 -21 -11 -58 -16 -83 -8 -36 -7 -47 5 -57 19 -14 4 -25
-16 -12 -23 14 -34 11 -20 -6 11 -13 10 -14 -4 -9 -18 7 -21 20 -7 28 5 4 6
18 2 34 -5 16 -3 41 5 62 7 19 15 47 18 62 6 28 11 30 89 43 37 6 37 6 37 53
0 41 -11 108 -61 384 -16 83 11 199 36 158 12 -19 26 -10 20 13 -5 17 -4 19 4
7 6 -8 11 -11 11 -7 0 10 39 -18 89 -63 18 -16 37 -30 41 -30 4 0 12 -12 19
-26 10 -23 16 -25 42 -20 19 3 42 0 61 -10 16 -8 33 -13 36 -9 8 7 0 15 -198
185 -91 78 -167 148 -169 154 -2 6 -10 19 -19 28 -18 21 -9 50 13 42 11 -5 14
-2 9 10 -9 23 -31 20 -37 -5 -7 -28 -29 -20 -42 15 -7 21 -5 35 8 58 9 16 17
36 17 44 0 8 7 14 15 14 8 0 15 5 15 10 0 6 -7 10 -15 10 -8 0 -23 -21 -35
-46z m14 -137 c21 -17 30 -34 33 -62 2 -21 8 -46 13 -56 13 -24 12 -74 -2
-159 l-12 -70 -46 0 c-54 0 -68 17 -71 82 -1 30 6 57 25 91 28 52 30 57 19 57
-5 0 -21 -24 -36 -54 -26 -50 -30 -53 -52 -42 -18 8 -21 14 -14 28 6 12 6 18
0 18 -5 0 -13 -9 -16 -20 -3 -11 -13 -20 -21 -20 -15 0 44 104 98 173 l30 38
35 -21 c19 -11 37 -20 40 -20 11 0 -20 30 -31 30 -18 1 -53 30 -35 30 8 0 27
-11 43 -23z m153 -154 c8 -7 9 -14 3 -18 -5 -3 -10 -11 -10 -18 0 -6 7 -4 16
5 16 15 20 14 63 -27 25 -23 74 -66 109 -95 65 -54 83 -76 33 -41 -27 20 -30
20 -34 4 -4 -14 -5 -13 -6 4 -1 24 -14 35 -41 37 -10 1 -50 26 -88 56 -58 45
-68 58 -61 72 6 12 6 18 0 18 -5 0 -12 -9 -16 -19 -3 -11 -12 -24 -20 -31 -11
-9 -14 -5 -13 28 0 21 -5 48 -11 60 -22 40 -11 45 26 11 20 -18 43 -39 50 -46z
m-327 -79 c0 -2 -7 -4 -15 -4 -8 0 -15 4 -15 10 0 5 7 7 15 4 8 -4 15 -8 15
-10z m45 7 c3 -6 -4 -9 -15 -8 -11 1 -20 5 -20 9 0 11 28 10 35 -1z m35 -44
c0 -5 -4 -5 -10 -2 -5 3 -10 14 -10 23 0 15 2 15 10 2 5 -8 10 -19 10 -23z
m-7 -37 l33 -55 58 1 c41 1 53 -2 41 -9 -10 -5 -32 -7 -51 -4 -31 5 -36 2 -65
-44 -18 -27 -33 -49 -35 -49 -5 0 10 46 18 57 7 8 -1 28 -24 60 -18 26 -36 50
-39 53 -3 3 -11 15 -17 27 -11 20 -10 21 18 20 25 -2 36 -11 63 -57z m417 -30
c0 -5 -2 -10 -4 -10 -3 0 -8 5 -11 10 -3 6 -1 10 4 10 6 0 11 -4 11 -10z
m-250 -145 c39 -202 50 -261 50 -277 0 -23 -51 -38 -150 -44 -109 -7 -115 -2
-101 67 6 30 16 101 22 159 14 126 37 179 75 172 13 -2 24 0 24 5 0 6 14 10
31 9 l32 -1 17 -90z m1095 -174 c5 -16 4 -21 -4 -17 -6 4 -2 -9 10 -28 12 -20
24 -34 28 -32 4 3 5 -8 3 -25 -5 -36 -18 -37 -49 -1 -32 37 -38 67 -19 97 22
34 19 45 -4 16 -11 -13 -20 -20 -20 -15 0 14 33 45 41 37 4 -5 10 -19 14 -32z
m-72 -19 c-3 -12 -9 -22 -14 -22 -5 0 -3 11 3 25 13 30 20 28 11 -3z m107 -26
c0 -19 0 -19 -14 -1 -8 11 -11 25 -8 33 4 11 6 11 13 0 5 -7 9 -22 9 -32z
m-82 -49 c6 2 18 -10 26 -25 12 -23 13 -51 8 -133 l-7 -104 -27 -3 c-16 -2
-28 -2 -28 0 -6 47 -14 86 -20 98 -14 27 -22 109 -16 154 8 49 36 68 47 31 3
-11 11 -19 17 -18z m-998 -56 c0 -11 -52 -19 -172 -27 -71 -5 -98 -4 -98 4 0
8 27 12 83 13 45 0 100 4 122 8 56 12 65 12 65 2z m1080 -11 c-14 -10 -26 -17
-28 -15 -7 7 23 34 38 34 10 1 6 -6 -10 -19z m-130 -165 c0 -8 -4 -15 -10 -15
-5 0 -7 7 -4 15 4 8 8 15 10 15 2 0 4 -7 4 -15z m10 -34 c0 -11 -50 -44 -57
-37 -8 8 7 26 23 26 8 0 14 5 14 10 0 6 5 10 10 10 6 0 10 -4 10 -9z m42 -32
c-9 -9 -35 -19 -56 -22 l-39 -6 32 22 c18 12 43 22 56 22 23 0 23 -1 7 -16z
m-1018 -25 c6 -16 -31 -18 -74 -4 l-25 8 27 1 c15 1 29 5 33 11 7 12 32 2 39
-16z m-64 -29 c26 -16 -17 -25 -70 -15 -29 6 -54 10 -56 10 -2 0 -4 3 -4 8 0
9 113 7 130 -3z"/>
<path d="M1345 1922 c0 -9 4 -22 8 -29 4 -6 4 -19 0 -29 -4 -12 -3 -15 6 -10
7 5 10 18 7 29 -3 12 0 28 7 36 9 12 9 13 0 7 -7 -4 -13 -2 -13 3 0 6 -4 11
-8 11 -5 0 -8 -8 -7 -18z"/>
<path d="M1300 1836 c0 -2 6 -9 14 -15 10 -9 16 -8 26 4 11 13 8 15 -14 15
-14 0 -26 -2 -26 -4z"/>
<path d="M1764 1300 c-34 -51 -45 -148 -20 -173 14 -13 21 -14 44 -5 39 17 47
27 70 88 17 48 18 60 7 86 -24 57 -65 58 -101 4z m82 -5 c15 -22 14 -28 -4
-77 -21 -57 -62 -92 -82 -72 -18 18 -1 112 27 145 30 35 38 36 59 4z"/>
<path d="M1987 1331 c-25 -9 -59 -107 -51 -144 8 -38 38 -52 75 -36 39 16 59
46 59 89 0 57 -44 105 -83 91z m52 -43 c23 -37 19 -69 -11 -100 -32 -32 -54
-33 -73 -3 -11 17 -9 28 11 73 26 57 50 67 73 30z"/>
<path d="M2273 1263 c5 -24 -8 -32 -16 -10 -3 7 -6 5 -6 -5 -1 -10 5 -18 12
-18 7 0 8 -3 2 -8 -14 -10 -18 -42 -5 -42 5 0 10 9 10 20 0 11 4 20 9 20 10 0
4 50 -6 60 -3 3 -3 -5 0 -17z"/>
<path d="M2302 1250 c0 -14 2 -19 5 -12 2 6 2 18 0 25 -3 6 -5 1 -5 -13z"/>
<path d="M1348 151 c11 -6 11 -17 1 -57 -6 -27 -18 -59 -25 -71 -14 -22 -13
-23 13 -23 19 0 24 3 15 8 -10 7 -10 18 0 55 7 26 15 47 18 47 3 0 19 -26 34
-57 l29 -58 18 65 c10 36 23 73 29 83 9 14 6 17 -17 17 -19 0 -24 -3 -15 -9
11 -7 11 -16 0 -55 l-14 -46 -27 55 c-21 43 -32 55 -49 55 -16 0 -19 -3 -10
-9z"/>
<path d="M1531 134 c-39 -32 -51 -86 -26 -114 33 -37 90 -18 120 40 20 38 19
63 -3 83 -26 24 -56 21 -91 -9z m73 -31 c-1 -49 -27 -93 -55 -93 -25 0 -33 21
-25 66 8 41 40 77 64 72 13 -3 17 -14 16 -45z"/>
<path d="M1738 151 c11 -6 11 -17 1 -57 -6 -27 -18 -59 -25 -71 -14 -22 -13
-23 13 -23 19 0 24 3 15 8 -10 7 -10 18 0 55 7 26 15 47 18 47 3 0 19 -26 34
-57 l29 -58 18 65 c10 36 23 73 29 83 9 14 6 17 -17 17 -19 0 -24 -3 -15 -9
11 -7 11 -16 0 -55 l-14 -46 -27 55 c-21 43 -32 55 -49 55 -16 0 -19 -3 -10
-9z"/>
<path d="M1921 134 c-39 -32 -51 -86 -26 -114 33 -37 90 -18 120 40 20 38 19
63 -3 83 -26 24 -56 21 -91 -9z m73 -31 c-1 -49 -27 -93 -55 -93 -25 0 -33 21
-25 66 8 41 40 77 64 72 13 -3 17 -14 16 -45z"/>
</g>
</svg>
